<?xml version="1.0" standalone="no"?>
<svg xmlns="http://www.w3.org/2000/svg" width="24" height="24"><rect width="24" height="24" opacity="0"></rect><g><path d="M9.22 17.9Q9.48 18.17 9.83 18.17Q10.18 18.17 10.46 17.9L15.46 12.91Q15.89 12.53 15.89 11.95Q15.89 11.38 15.46 10.94L10.44 5.95Q10.2 5.69 9.82 5.69Q9.43 5.69 9.19 5.95Q8.93 6.19 8.93 6.58Q8.93 6.96 9.19 7.2L13.92 11.93L9.22 16.66Q8.93 16.9 8.93 17.28Q8.93 17.66 9.22 17.9Z" fill="rgba(255,255,255,1)"></path><path d="M21.36 12Q21.36 14.54 20.1 16.69Q18.84 18.84 16.69 20.1Q14.54 21.36 12 21.36Q9.46 21.36 7.31 20.1Q5.16 18.84 3.9 16.69Q2.64 14.54 2.64 12Q2.64 9.43 3.9 7.28Q5.16 5.14 7.31 3.89Q9.46 2.64 12 2.64Q14.54 2.64 16.69 3.89Q18.84 5.14 20.1 7.28Q21.36 9.43 21.36 12ZM23.14 12Q23.14 8.98 21.64 6.42Q20.14 3.86 17.59 2.36Q15.05 0.86 12 0.86Q8.98 0.86 6.42 2.36Q3.86 3.86 2.36 6.42Q0.86 8.98 0.86 12Q0.86 15.02 2.36 17.58Q3.86 20.14 6.42 21.64Q8.98 23.14 12 23.14Q15.02 23.14 17.58 21.64Q20.14 20.14 21.64 17.58Q23.14 15.02 23.14 12Z" fill="rgba(255,255,255,1)"></path></g></svg>