<?xml version="1.0" standalone="no"?>
<svg xmlns="http://www.w3.org/2000/svg" width="24" height="24"><rect width="24" height="24" opacity="0"></rect><g><path d="M12 12.12Q12.38 12.12 12.65 11.86Q12.91 11.59 12.91 11.21L12.91 2.78Q12.91 2.4 12.65 2.14Q12.38 1.87 12 1.87Q11.62 1.87 11.35 2.14Q11.09 2.4 11.09 2.78L11.09 11.21Q11.09 11.59 11.35 11.86Q11.62 12.12 12 12.12ZM12 22.1Q14.76 22.1 17.08 20.75Q19.39 19.39 20.76 17.08Q22.13 14.76 22.13 12Q22.13 9.24 20.72 6.88Q19.32 4.51 16.9 3.14Q16.58 2.95 16.21 3.06Q15.84 3.17 15.67 3.5Q15.48 3.82 15.59 4.2Q15.7 4.58 16.03 4.75Q18 5.86 19.14 7.79Q20.28 9.72 20.28 12Q20.28 14.26 19.16 16.15Q18.05 18.05 16.15 19.16Q14.26 20.28 12 20.28Q9.74 20.28 7.85 19.16Q5.95 18.05 4.84 16.15Q3.72 14.26 3.72 12Q3.72 9.72 4.86 7.79Q6 5.86 7.97 4.75Q8.3 4.56 8.41 4.19Q8.52 3.82 8.33 3.5Q8.16 3.17 7.79 3.06Q7.42 2.95 7.1 3.14Q4.68 4.49 3.28 6.86Q1.87 9.24 1.87 12Q1.87 14.76 3.24 17.08Q4.61 19.39 6.92 20.75Q9.24 22.1 12 22.1Z" fill="rgba(255,255,255,1)"></path></g></svg>