<?xml version="1.0" standalone="no"?>
<svg xmlns="http://www.w3.org/2000/svg" width="24" height="24"><rect width="24" height="24" opacity="0"></rect><g><path d="M19.01 11.26Q19.75 11.26 20.38 10.88Q21 10.51 21.37 9.88Q21.74 9.24 21.74 8.5L21.74 4.99Q21.74 4.25 21.37 3.62Q21 3 20.38 2.63Q19.75 2.26 19.01 2.26L15.5 2.26Q14.76 2.26 14.12 2.63Q13.49 3 13.12 3.62Q12.74 4.25 12.74 4.99L12.74 8.5Q12.74 9.24 13.12 9.88Q13.49 10.51 14.12 10.88Q14.76 11.26 15.5 11.26L19.01 11.26ZM19.01 3.74Q19.51 3.74 19.88 4.12Q20.26 4.49 20.26 4.99L20.26 8.5Q20.26 9.02 19.88 9.38Q19.51 9.74 19.01 9.74L15.5 9.74Q14.98 9.74 14.62 9.38Q14.26 9.02 14.26 8.5L14.26 4.99Q14.26 4.49 14.62 4.12Q14.98 3.74 15.5 3.74L19.01 3.74ZM8.5 21.74Q9.24 21.74 9.88 21.37Q10.51 21 10.88 20.38Q11.26 19.75 11.26 19.01L11.26 15.5Q11.26 14.76 10.88 14.12Q10.51 13.49 9.88 13.12Q9.24 12.74 8.5 12.74L4.99 12.74Q4.25 12.74 3.62 13.12Q3 13.49 2.63 14.12Q2.26 14.76 2.26 15.5L2.26 19.01Q2.26 19.75 2.63 20.38Q3 21 3.62 21.37Q4.25 21.74 4.99 21.74L8.5 21.74ZM8.5 14.26Q9.02 14.26 9.38 14.62Q9.74 14.98 9.74 15.5L9.74 19.01Q9.74 19.51 9.38 19.88Q9.02 20.26 8.5 20.26L4.99 20.26Q4.49 20.26 4.12 19.88Q3.74 19.51 3.74 19.01L3.74 15.5Q3.74 14.98 4.12 14.62Q4.49 14.26 4.99 14.26L8.5 14.26ZM8.5 11.26Q9.24 11.26 9.88 10.88Q10.51 10.51 10.88 9.88Q11.26 9.24 11.26 8.5L11.26 4.99Q11.26 4.25 10.88 3.62Q10.51 3 9.88 2.63Q9.24 2.26 8.5 2.26L4.99 2.26Q4.25 2.26 3.62 2.63Q3 3 2.63 3.62Q2.26 4.25 2.26 4.99L2.26 8.5Q2.26 9.24 2.63 9.88Q3 10.51 3.62 10.88Q4.25 11.26 4.99 11.26L8.5 11.26ZM8.5 3.74Q9.02 3.74 9.38 4.12Q9.74 4.49 9.74 4.99L9.74 8.5Q9.74 9.02 9.38 9.38Q9.02 9.74 8.5 9.74L4.99 9.74Q4.49 9.74 4.12 9.38Q3.74 9.02 3.74 8.5L3.74 4.99Q3.74 4.49 4.12 4.12Q4.49 3.74 4.99 3.74L8.5 3.74ZM5.59 7.9L7.9 7.9L7.9 5.59L5.59 5.59ZM5.59 18.41L7.9 18.41L7.9 16.1L5.59 16.1ZM16.01 18.5L18.5 18.5L18.5 16.01L16.01 16.01ZM13.1 15.6L15.6 15.6L15.6 13.1L13.1 13.1ZM18.91 15.6L21.43 15.6L21.43 13.1L18.91 13.1ZM13.1 21.41L15.6 21.41L15.6 18.91L13.1 18.91ZM18.91 21.41L21.43 21.41L21.43 18.91L18.91 18.91ZM16.1 7.9L18.41 7.9L18.41 5.59L16.1 5.59Z" fill="rgba(255,255,255,1)"></path></g></svg>