<?xml version="1.0" encoding="UTF-8"?>
<svg xmlns="http://www.w3.org/2000/svg" xmlns:xlink="http://www.w3.org/1999/xlink" version="1.1" viewBox="0 0 298.2 298.2">
  <defs>
    <style>
      .cls-1 {
        fill: #fff;
      }

      .cls-1, .cls-2, .cls-3 {
        stroke: #231f20;
        stroke-miterlimit: 10;
      }

      .cls-1, .cls-3 {
        stroke-width: 3px;
      }

      .cls-4 {
        fill: url(#linear-gradient-3);
      }

      .cls-5 {
        fill: url(#linear-gradient-2);
      }

      .cls-6, .cls-7, .cls-8, .cls-9, .cls-10 {
        isolation: isolate;
      }

      .cls-6, .cls-8, .cls-9, .cls-10 {
        fill: #231f20;
      }

      .cls-6, .cls-9, .cls-10 {
        font-family: Noteworthy-Bold, Noteworthy;
        font-size: 48px;
        font-weight: 700;
      }

      .cls-11 {
        fill: url(#linear-gradient);
      }

      .cls-2 {
        fill: none;
        stroke-width: 2px;
      }

      .cls-8 {
        font-family: AmericanTypewriter-Semibold, 'American Typewriter';
        font-size: 24px;
        font-weight: 600;
      }

      .cls-3 {
        fill: #a97c50;
      }

      .cls-9 {
        letter-spacing: 0em;
      }

      .cls-10 {
        letter-spacing: 0em;
      }
    </style>
    <linearGradient id="linear-gradient" x1="81.5" y1="206.2" x2="260.7" y2="206.2" gradientTransform="translate(-97.9 290.6) rotate(21.6) scale(1 -1)" gradientUnits="userSpaceOnUse">
      <stop offset="0" stop-color="#fff33b"/>
      <stop offset="0" stop-color="#fee62d"/>
      <stop offset=".1" stop-color="#fdd51b"/>
      <stop offset=".2" stop-color="#fdca0f"/>
      <stop offset=".3" stop-color="#fdc70c"/>
      <stop offset=".7" stop-color="#f3903f"/>
      <stop offset=".9" stop-color="#ed683c"/>
      <stop offset="1" stop-color="#e93e3a"/>
    </linearGradient>
    <linearGradient id="linear-gradient-2" x1="125.6" y1="139.5" x2="165.5" y2="139.5" gradientTransform="translate(0 314) scale(1 -1)" gradientUnits="userSpaceOnUse">
      <stop offset="0" stop-color="#2484c6"/>
      <stop offset="1" stop-color="#2484c6" stop-opacity="0"/>
    </linearGradient>
    <linearGradient id="linear-gradient-3" x1="78.8" y1="165.9" x2="125.6" y2="165.9" gradientTransform="translate(0 314) scale(1 -1)" gradientUnits="userSpaceOnUse">
      <stop offset="0" stop-color="#158040"/>
      <stop offset="1" stop-color="#6dbe45" stop-opacity="0"/>
    </linearGradient>
  </defs>
  <!-- Generator: Adobe Illustrator 28.7.1, SVG Export Plug-In . SVG Version: 1.2.0 Build 142)  -->
  <g>
    <g id="Layer_1">
      <g>
        <rect class="cls-1" x="41.6" y="1.5" width="241.4" height="292" rx="52.8" ry="52.8"/>
        <rect class="cls-3" x="15.2" y="1.5" width="241.4" height="292" rx="27.4" ry="27.4"/>
        <path class="cls-2" d="M229.8,1.5c72.2,0,4.2,148.3,53.2,148.3"/>
        <path class="cls-2" d="M230.2,293.5c67.8,0,8.5-143.7,52.8-143.7"/>
        <path class="cls-2" d="M230.2,1.5c76.4,0,24.5,148.3,52.8,148.3"/>
        <path class="cls-2" d="M230.2,293.5c76.4,0,24.5-143.7,52.8-143.7"/>
        <g class="cls-7">
          <text class="cls-6" transform="translate(41.6 80.9)"><tspan x="0" y="0">N</tspan></text>
          <text class="cls-10" transform="translate(74.9 80.9)"><tspan x="0" y="0">o</tspan></text>
          <text class="cls-9" transform="translate(97.4 80.9)"><tspan x="0" y="0">t</tspan></text>
          <text class="cls-6" transform="translate(113.7 80.9)"><tspan x="0" y="0">ebook</tspan></text>
        </g>
        <g class="cls-7">
          <text class="cls-8" transform="translate(56.5 197.2) rotate(-4.3) scale(.8 1)"><tspan x="0" y="0">L</tspan></text>
        </g>
        <g class="cls-7">
          <text class="cls-8" transform="translate(70.3 197.4) rotate(20.4) scale(.8 1)"><tspan x="0" y="0">i</tspan></text>
        </g>
        <g class="cls-7">
          <text class="cls-8" transform="translate(78.2 200.6) rotate(29.7) scale(.8 1)"><tspan x="0" y="0">t</tspan></text>
        </g>
        <g class="cls-7">
          <text class="cls-8" transform="translate(87.5 206.1) rotate(33.2) scale(.8 1)"><tspan x="0" y="0">t</tspan></text>
        </g>
        <g class="cls-7">
          <text class="cls-8" transform="translate(96.6 212.1) rotate(33.2) scale(.8 1)"><tspan x="0" y="0">l</tspan></text>
        </g>
        <g class="cls-7">
          <text class="cls-8" transform="translate(104.7 217.4) rotate(31) scale(.8 1)"><tspan x="0" y="0">e</tspan></text>
        </g>
        <g class="cls-7">
          <text class="cls-8" transform="translate(125.1 228.8) rotate(21.6) scale(.8 1)"><tspan x="0" y="0">G</tspan></text>
        </g>
        <g class="cls-7">
          <text class="cls-8" transform="translate(142.7 235.3) rotate(13.4) scale(.8 1)"><tspan x="0" y="0">o</tspan></text>
        </g>
        <g class="cls-7">
          <text class="cls-8" transform="translate(157.5 238.5) rotate(7.2) scale(.8 1)"><tspan x="0" y="0">l</tspan></text>
        </g>
        <g class="cls-7">
          <text class="cls-8" transform="translate(167.9 239.7) rotate(.9) scale(.8 1)"><tspan x="0" y="0">d</tspan></text>
        </g>
        <g class="cls-7">
          <text class="cls-8" transform="translate(184 239.6) rotate(-4.9) scale(.8 1)"><tspan x="0" y="0">f</tspan></text>
        </g>
        <g class="cls-7">
          <text class="cls-8" transform="translate(195.3 238.5) rotate(-9.1) scale(.8 1)"><tspan x="0" y="0">i</tspan></text>
        </g>
        <g class="cls-7">
          <text class="cls-8" transform="translate(205.2 236.8) rotate(-13.1) scale(.8 1)"><tspan x="0" y="0">s</tspan></text>
        </g>
        <g class="cls-7">
          <text class="cls-8" transform="translate(218.5 233.6) rotate(-17.6) scale(.8 1)"><tspan x="0" y="0">h</tspan></text>
        </g>
        <g>
          <path class="cls-11" d="M204.4,200.9c65.5-50.7-19.5-41.8-19.5-41.8,0,0-180.4,6.1-96.5-19.1,95.4-28.6,93.2,129.9,42.9,29.9-50.2-99.9-137-29.1-17.6,4.1"/>
          <path class="cls-5" d="M165.5,189.4c0-10.5-8.1-26.4-10.7-29.7h-29.2c4.1,7.4,11.7,21.5,11.7,21.5l28.2,8.3h0Z"/>
          <path class="cls-4" d="M107.8,136.6s9.6,9.3,17.8,23.1c-21.2,0-82.7-5.6-17.8-23.1Z"/>
        </g>
      </g>
    </g>
  </g>
</svg>