<svg xmlns="http://www.w3.org/2000/svg" xmlns:xlink="http://www.w3.org/1999/xlink" contentStyleType="text/css" data-diagram-type="CLASS" height="518px" preserveAspectRatio="none" style="width:478px;height:518px;background:#F9F9F9;" version="1.1" viewBox="0 0 478 518" width="478px" zoomAndPan="magnify"><defs/><g><rect fill="#F9F9F9" height="518" style="stroke:none;stroke-width:1;" width="478" x="0" y="0"/><!--class Client--><g class="entity" data-entity="Client" data-source-line="4" data-uid="ent0002" id="entity_Client"><rect fill="#F1F1F1" height="64.2969" rx="3.5" ry="3.5" style="stroke:#181818;stroke-width:0.5;" width="115.1475" x="156.23" y="7"/><ellipse cx="190.4077" cy="23" fill="#ADD1B2" rx="11" ry="11" style="stroke:#181818;stroke-width:1;"/><path d="M193.3765,28.6406 Q192.7984,28.9375 192.1577,29.0781 Q191.5171,29.2344 190.814,29.2344 Q188.314,29.2344 186.9859,27.5938 Q185.6734,25.9375 185.6734,22.8125 Q185.6734,19.6875 186.9859,18.0313 Q188.314,16.375 190.814,16.375 Q191.5171,16.375 192.1577,16.5313 Q192.814,16.6875 193.3765,16.9844 L193.3765,19.7031 Q192.7515,19.125 192.1577,18.8594 Q191.564,18.5781 190.939,18.5781 Q189.5952,18.5781 188.9077,19.6563 Q188.2202,20.7188 188.2202,22.8125 Q188.2202,24.9063 188.9077,25.9844 Q189.5952,27.0469 190.939,27.0469 Q191.564,27.0469 192.1577,26.7813 Q192.7515,26.5 193.3765,25.9219 L193.3765,28.6406 Z " fill="#000000"/><text fill="#000000" font-family="sans-serif" font-size="14" lengthAdjust="spacing" textLength="40.5303" x="208.6695" y="27.8467">Client</text><line style="stroke:#181818;stroke-width:0.5;" x1="157.23" x2="270.3775" y1="39" y2="39"/><line style="stroke:#181818;stroke-width:0.5;" x1="157.23" x2="270.3775" y1="47" y2="47"/><ellipse cx="167.23" cy="60.6484" fill="#84BE84" rx="3" ry="3" style="stroke:#038048;stroke-width:1;"/><text fill="#000000" font-family="sans-serif" font-size="14" lengthAdjust="spacing" textLength="89.1475" x="176.23" y="63.9951">main() : void</text></g><!--class Target--><g class="entity" data-entity="Target" data-source-line="9" data-uid="ent0003" id="entity_Target"><rect fill="#F1F1F1" height="64.2969" rx="3.5" ry="3.5" style="stroke:#181818;stroke-width:0.5;" width="133.6934" x="146.95" y="148.3"/><ellipse cx="187.0678" cy="164.3" fill="#A9DCDF" rx="11" ry="11" style="stroke:#181818;stroke-width:1;"/><path d="M187.1772,159.6437 L186.0209,164.7219 L188.3491,164.7219 L187.1772,159.6437 Z M185.6928,157.4094 L188.6772,157.4094 L192.0366,169.8 L189.5834,169.8 L188.8178,166.7375 L185.5366,166.7375 L184.7866,169.8 L182.3491,169.8 L185.6928,157.4094 Z " fill="#000000"/><text fill="#000000" font-family="sans-serif" font-size="14" font-style="italic" lengthAdjust="spacing" textLength="45.876" x="206.6496" y="169.1467">Target</text><line style="stroke:#181818;stroke-width:0.5;" x1="147.95" x2="279.6434" y1="180.3" y2="180.3"/><line style="stroke:#181818;stroke-width:0.5;" x1="147.95" x2="279.6434" y1="188.3" y2="188.3"/><ellipse cx="157.95" cy="201.9484" fill="#84BE84" rx="3" ry="3" style="stroke:#038048;stroke-width:1;"/><text fill="#000000" font-family="sans-serif" font-size="14" lengthAdjust="spacing" textLength="107.6934" x="166.95" y="205.2951">request() : void</text></g><!--class Adaptee--><g class="entity" data-entity="Adaptee" data-source-line="14" data-uid="ent0004" id="entity_Adaptee"><rect fill="#F1F1F1" height="64.2969" rx="3.5" ry="3.5" style="stroke:#181818;stroke-width:0.5;" width="190.5615" x="118.52" y="447.48"/><ellipse cx="180.228" cy="463.48" fill="#ADD1B2" rx="11" ry="11" style="stroke:#181818;stroke-width:1;"/><path d="M183.1968,469.1206 Q182.6186,469.4175 181.978,469.5581 Q181.3374,469.7144 180.6343,469.7144 Q178.1343,469.7144 176.8061,468.0737 Q175.4936,466.4175 175.4936,463.2925 Q175.4936,460.1675 176.8061,458.5112 Q178.1343,456.855 180.6343,456.855 Q181.3374,456.855 181.978,457.0112 Q182.6343,457.1675 183.1968,457.4644 L183.1968,460.1831 Q182.5718,459.605 181.978,459.3394 Q181.3843,459.0581 180.7593,459.0581 Q179.4155,459.0581 178.728,460.1362 Q178.0405,461.1987 178.0405,463.2925 Q178.0405,465.3862 178.728,466.4644 Q179.4155,467.5269 180.7593,467.5269 Q181.3843,467.5269 181.978,467.2612 Q182.5718,466.98 183.1968,466.4019 L183.1968,469.1206 Z " fill="#000000"/><text fill="#000000" font-family="sans-serif" font-size="14" lengthAdjust="spacing" textLength="58.6455" x="200.728" y="468.3267">Adaptee</text><line style="stroke:#181818;stroke-width:0.5;" x1="119.52" x2="308.0815" y1="479.48" y2="479.48"/><line style="stroke:#181818;stroke-width:0.5;" x1="119.52" x2="308.0815" y1="487.48" y2="487.48"/><ellipse cx="129.52" cy="501.1284" fill="#84BE84" rx="3" ry="3" style="stroke:#038048;stroke-width:1;"/><text fill="#000000" font-family="sans-serif" font-size="14" lengthAdjust="spacing" textLength="164.5615" x="138.52" y="504.4751">specificRequest() : void</text></g><!--class Adapter--><g class="entity" data-entity="Adapter" data-source-line="19" data-uid="ent0005" id="entity_Adapter"><rect fill="#F1F1F1" height="96.8906" rx="3.5" ry="3.5" style="stroke:#181818;stroke-width:0.5;" width="222.6221" x="102.49" y="289.59"/><ellipse cx="181.657" cy="305.59" fill="#ADD1B2" rx="11" ry="11" style="stroke:#181818;stroke-width:1;"/><path d="M184.6257,311.2306 Q184.0476,311.5275 183.407,311.6681 Q182.7664,311.8244 182.0632,311.8244 Q179.5632,311.8244 178.2351,310.1838 Q176.9226,308.5275 176.9226,305.4025 Q176.9226,302.2775 178.2351,300.6213 Q179.5632,298.965 182.0632,298.965 Q182.7664,298.965 183.407,299.1213 Q184.0632,299.2775 184.6257,299.5744 L184.6257,302.2931 Q184.0007,301.715 183.407,301.4494 Q182.8132,301.1681 182.1882,301.1681 Q180.8445,301.1681 180.157,302.2463 Q179.4695,303.3088 179.4695,305.4025 Q179.4695,307.4963 180.157,308.5744 Q180.8445,309.6369 182.1882,309.6369 Q182.8132,309.6369 183.407,309.3713 Q184.0007,309.09 184.6257,308.5119 L184.6257,311.2306 Z " fill="#000000"/><text fill="#000000" font-family="sans-serif" font-size="14" lengthAdjust="spacing" textLength="55.7881" x="202.157" y="310.4367">Adapter</text><line style="stroke:#181818;stroke-width:0.5;" x1="103.49" x2="324.1121" y1="321.59" y2="321.59"/><rect fill="none" height="6" style="stroke:#C82930;stroke-width:1;" width="6" x="110.49" y="332.2384"/><text fill="#000000" font-family="sans-serif" font-size="14" lengthAdjust="spacing" textLength="129.9102" x="122.49" y="338.5851">adaptee : Adaptee</text><line style="stroke:#181818;stroke-width:0.5;" x1="103.49" x2="324.1121" y1="345.8869" y2="345.8869"/><ellipse cx="113.49" cy="359.5353" fill="#84BE84" rx="3" ry="3" style="stroke:#038048;stroke-width:1;"/><text fill="#000000" font-family="sans-serif" font-size="14" lengthAdjust="spacing" textLength="196.6221" x="122.49" y="362.882">Adapter(adaptee : Adaptee)</text><ellipse cx="113.49" cy="375.8322" fill="#84BE84" rx="3" ry="3" style="stroke:#038048;stroke-width:1;"/><text fill="#000000" font-family="sans-serif" font-size="14" lengthAdjust="spacing" textLength="107.6934" x="122.49" y="379.1789">request() : void</text></g><g class="entity" data-entity="GMN9" data-source-line="31" data-uid="ent0010" id="entity_GMN9"><path d="M315.3,171.38 L315.3,176.44 L281.07,180.44 L315.3,184.44 L315.3,189.5128 A3.5,3.5 0 0 0 318.8,193.0128 L436.8001,193.0128 A3.5,3.5 0 0 0 440.3001,189.5128 L440.3001,177.88 L430.3001,167.88 L318.8,167.88 A3.5,3.5 0 0 0 315.3,171.38" fill="#E5E5E5" style="stroke:#191919;stroke-width:1.5;"/><path d="M430.3001,167.88 L430.3001,176.13 A1.75,1.75 0 0 0 432.0501,177.88 L440.3001,177.88 L430.3001,167.88" fill="#E5E5E5" style="stroke:#191919;stroke-width:1.5;"/><text fill="#191919" font-family="sans-serif" font-size="13" lengthAdjust="spacing" textLength="104.0001" x="321.3" y="184.9469">&#23458;&#25143;&#31471;&#26399;&#26395;&#30340;&#25509;&#21475;</text></g><g class="entity" data-entity="GMN12" data-source-line="32" data-uid="ent0013" id="entity_GMN12"><path d="M343.8,463 L343.8,475.63 L309.42,479.63 L343.8,483.63 L343.8,496.2656 A3.5,3.5 0 0 0 347.3,499.7656 L426.3001,499.7656 A3.5,3.5 0 0 0 429.8001,496.2656 L429.8001,469.5 L419.8001,459.5 L347.3,459.5 A3.5,3.5 0 0 0 343.8,463" fill="#E5E5E5" style="stroke:#191919;stroke-width:1.5;"/><path d="M419.8001,459.5 L419.8001,467.75 A1.75,1.75 0 0 0 421.5501,469.5 L429.8001,469.5 L419.8001,459.5" fill="#E5E5E5" style="stroke:#191919;stroke-width:1.5;"/><text fill="#191919" font-family="sans-serif" font-size="13" lengthAdjust="spacing" textLength="65.0001" x="349.8" y="476.5669">&#29616;&#26377;&#30340;&#25509;&#21475;</text><text fill="#191919" font-family="sans-serif" font-size="13" lengthAdjust="spacing" textLength="65.0001" x="349.8" y="491.6997">&#38656;&#35201;&#34987;&#36866;&#37197;</text></g><g class="entity" data-entity="GMN15" data-source-line="33" data-uid="ent0016" id="entity_GMN15"><path d="M359.8,313.84 L359.8,334.04 L325.45,338.04 L359.8,342.04 L359.8,362.2384 A3.5,3.5 0 0 0 363.3,365.7384 L468.3001,365.7384 A3.5,3.5 0 0 0 471.8001,362.2384 L471.8001,320.34 L461.8001,310.34 L363.3,310.34 A3.5,3.5 0 0 0 359.8,313.84" fill="#E5E5E5" style="stroke:#191919;stroke-width:1.5;"/><path d="M461.8001,310.34 L461.8001,318.59 A1.75,1.75 0 0 0 463.5501,320.34 L471.8001,320.34 L461.8001,310.34" fill="#E5E5E5" style="stroke:#191919;stroke-width:1.5;"/><text fill="#191919" font-family="sans-serif" font-size="13" lengthAdjust="spacing" textLength="52.0001" x="365.8" y="327.4069">&#36866;&#37197;&#22120;&#31867;</text><text fill="#191919" font-family="sans-serif" font-size="13" lengthAdjust="spacing" textLength="91.0001" x="365.8" y="342.5397">&#36716;&#25442;&#23458;&#25143;&#31471;&#35831;&#27714;</text><text fill="#191919" font-family="sans-serif" font-size="13" lengthAdjust="spacing" textLength="91.0001" x="365.8" y="357.6725">&#35843;&#29992;&#36866;&#37197;&#32773;&#26041;&#27861;</text></g><g class="entity" data-entity="GMN18" data-source-line="34" data-uid="ent0019" id="entity_GMN18"><path d="M6,22.51 L6,55.7756 A3.5,3.5 0 0 0 9.5,59.2756 L118.0992,59.2756 A3.5,3.5 0 0 0 121.5992,55.7756 L121.5992,43.15 L155.95,39.15 L121.5992,35.15 L121.5992,29.01 L111.5992,19.01 L9.5,19.01 A3.5,3.5 0 0 0 6,22.51" fill="#E5E5E5" style="stroke:#191919;stroke-width:1.5;"/><path d="M111.5992,19.01 L111.5992,27.26 A1.75,1.75 0 0 0 113.3492,29.01 L121.5992,29.01 L111.5992,19.01" fill="#E5E5E5" style="stroke:#191919;stroke-width:1.5;"/><text fill="#191919" font-family="sans-serif" font-size="13" lengthAdjust="spacing" textLength="39" x="12" y="36.0769">&#23458;&#25143;&#31471;</text><text fill="#191919" font-family="sans-serif" font-size="13" lengthAdjust="spacing" textLength="94.5992" x="12" y="51.2097">&#20351;&#29992;Target&#25509;&#21475;</text></g><!--link Client to Target--><g class="link" data-entity-1="Client" data-entity-2="Target" data-source-line="26" data-uid="lnk6" id="link_Client_Target"><path codeLine="26" d="M213.8,71.76 C213.8,94.55 213.8,119.19 213.8,141.96" fill="none" id="Client-to-Target" style="stroke:#191919;stroke-width:1;"/><polygon fill="#191919" points="213.8,147.96,217.8,138.96,213.8,142.96,209.8,138.96,213.8,147.96" style="stroke:#191919;stroke-width:1;"/><text fill="#000000" font-family="sans-serif" font-size="13" lengthAdjust="spacing" textLength="29.7832" x="214.8" y="114.3669">uses</text></g><!--reverse link Target to Adapter--><g class="link" data-entity-1="Target" data-entity-2="Adapter" data-source-line="27" data-uid="lnk7" id="link_Target_Adapter"><path codeLine="27" d="M213.8,230.93 C213.8,252.86 213.8,264.52 213.8,289.34" fill="none" id="Target-backto-Adapter" style="stroke:#191919;stroke-width:1;"/><polygon fill="none" points="213.8,212.93,207.8,230.93,219.8,230.93,213.8,212.93" style="stroke:#191919;stroke-width:1;"/><text fill="#000000" font-family="sans-serif" font-size="13" lengthAdjust="spacing" textLength="76.9082" x="214.8" y="255.6569">implements</text></g><!--link Adapter to Adaptee--><g class="link" data-entity-1="Adapter" data-entity-2="Adaptee" data-source-line="28" data-uid="lnk8" id="link_Adapter_Adaptee"><path codeLine="28" d="M213.8,386.69 C213.8,406.75 213.8,423.53 213.8,441.4" fill="none" id="Adapter-to-Adaptee" style="stroke:#191919;stroke-width:1;"/><polygon fill="#191919" points="213.8,447.4,217.8,438.4,213.8,442.4,209.8,438.4,213.8,447.4" style="stroke:#191919;stroke-width:1;"/></g><!--SRC=[XP7VIW915CRlvoccgvJO5rWYaDuWklHcMaSTs5rjP-oc0hF45BIR2jA5p2W4mp_iXOX8B-FExBv5k-uVnGGlvypvVkSxtpbWUQnXg2630d08xM5xEQlRmnv_d8h1I4pcG54HfV1K9LXdy1f0UAGXeYUIK8PN1P81jskTw0nvjyOR2sVouKlH1MK6KXWC6EV8oE6GOU3B4gPi9yOjLzngqobNr-DJ6LHa60TQMiGAoHBbR2_3VkjlCumLGq8XK8xGFZZiIFpxJEwpR5SjOSr1c98adKJBoh14CGNXw_X6ac8VCYHQKVNIrna5KT6NHeuyEf_ExKQNMtstrW1wWM5ea5oUmK9sFI2-5ZVVkTaHxGVU-hAVFhVwK_5IeZNcPZtkI-kkMNQ-xvpU84Xjfz3tknbgMdSMFxpPYwSxeocVLBpo-5uyz-CRyjSPjru2f8gpAs8OquRrjBvS_7goOAd0rny0]--></g></svg>