<svg xmlns="http://www.w3.org/2000/svg" xmlns:xlink="http://www.w3.org/1999/xlink" contentStyleType="text/css" data-diagram-type="CLASS" height="518px" preserveAspectRatio="none" style="width:447px;height:518px;background:#F9F9F9;" version="1.1" viewBox="0 0 447 518" width="447px" zoomAndPan="magnify"><defs/><g><rect fill="#F9F9F9" height="518" style="stroke:none;stroke-width:1;" width="447" x="0" y="0"/><!--class Client--><g class="entity" data-entity="Client" data-source-line="4" data-uid="ent0002" id="entity_Client"><rect fill="#F1F1F1" height="64.2969" rx="3.5" ry="3.5" style="stroke:#181818;stroke-width:0.5;" width="115.1475" x="156.23" y="7"/><ellipse cx="190.4077" cy="23" fill="#ADD1B2" rx="11" ry="11" style="stroke:#181818;stroke-width:1;"/><path d="M193.3765,28.6406 Q192.7984,28.9375 192.1577,29.0781 Q191.5171,29.2344 190.814,29.2344 Q188.314,29.2344 186.9859,27.5938 Q185.6734,25.9375 185.6734,22.8125 Q185.6734,19.6875 186.9859,18.0313 Q188.314,16.375 190.814,16.375 Q191.5171,16.375 192.1577,16.5313 Q192.814,16.6875 193.3765,16.9844 L193.3765,19.7031 Q192.7515,19.125 192.1577,18.8594 Q191.564,18.5781 190.939,18.5781 Q189.5952,18.5781 188.9077,19.6563 Q188.2202,20.7188 188.2202,22.8125 Q188.2202,24.9063 188.9077,25.9844 Q189.5952,27.0469 190.939,27.0469 Q191.564,27.0469 192.1577,26.7813 Q192.7515,26.5 193.3765,25.9219 L193.3765,28.6406 Z " fill="#000000"/><text fill="#000000" font-family="sans-serif" font-size="14" lengthAdjust="spacing" textLength="40.5303" x="208.6695" y="27.8467">Client</text><line style="stroke:#181818;stroke-width:0.5;" x1="157.23" x2="270.3775" y1="39" y2="39"/><line style="stroke:#181818;stroke-width:0.5;" x1="157.23" x2="270.3775" y1="47" y2="47"/><ellipse cx="167.23" cy="60.6484" fill="#84BE84" rx="3" ry="3" style="stroke:#038048;stroke-width:1;"/><text fill="#000000" font-family="sans-serif" font-size="14" lengthAdjust="spacing" textLength="89.1475" x="176.23" y="63.9951">main() : void</text></g><!--class Target--><g class="entity" data-entity="Target" data-source-line="9" data-uid="ent0003" id="entity_Target"><rect fill="#F1F1F1" height="64.2969" rx="3.5" ry="3.5" style="stroke:#181818;stroke-width:0.5;" width="133.6934" x="146.95" y="148.29"/><ellipse cx="187.0678" cy="164.29" fill="#B4A7E5" rx="11" ry="11" style="stroke:#181818;stroke-width:1;"/><path d="M182.9897,160.0556 L182.9897,157.8994 L190.3803,157.8994 L190.3803,160.0556 L187.9116,160.0556 L187.9116,168.1338 L190.3803,168.1338 L190.3803,170.29 L182.9897,170.29 L182.9897,168.1338 L185.4584,168.1338 L185.4584,160.0556 L182.9897,160.0556 Z " fill="#000000"/><text fill="#000000" font-family="sans-serif" font-size="14" font-style="italic" lengthAdjust="spacing" textLength="45.876" x="206.6496" y="169.1367">Target</text><line style="stroke:#181818;stroke-width:0.5;" x1="147.95" x2="279.6434" y1="180.29" y2="180.29"/><line style="stroke:#181818;stroke-width:0.5;" x1="147.95" x2="279.6434" y1="188.29" y2="188.29"/><ellipse cx="157.95" cy="201.9384" fill="#84BE84" rx="3" ry="3" style="stroke:#038048;stroke-width:1;"/><text fill="#000000" font-family="sans-serif" font-size="14" lengthAdjust="spacing" textLength="107.6934" x="166.95" y="205.2851">request() : void</text></g><!--class Adaptee--><g class="entity" data-entity="Adaptee" data-source-line="14" data-uid="ent0004" id="entity_Adaptee"><rect fill="#F1F1F1" height="64.2969" rx="3.5" ry="3.5" style="stroke:#181818;stroke-width:0.5;" width="190.5615" x="118.52" y="447.18"/><ellipse cx="180.228" cy="463.18" fill="#ADD1B2" rx="11" ry="11" style="stroke:#181818;stroke-width:1;"/><path d="M183.1968,468.8206 Q182.6186,469.1175 181.978,469.2581 Q181.3374,469.4144 180.6343,469.4144 Q178.1343,469.4144 176.8061,467.7738 Q175.4936,466.1175 175.4936,462.9925 Q175.4936,459.8675 176.8061,458.2113 Q178.1343,456.555 180.6343,456.555 Q181.3374,456.555 181.978,456.7113 Q182.6343,456.8675 183.1968,457.1644 L183.1968,459.8831 Q182.5718,459.305 181.978,459.0394 Q181.3843,458.7581 180.7593,458.7581 Q179.4155,458.7581 178.728,459.8363 Q178.0405,460.8988 178.0405,462.9925 Q178.0405,465.0863 178.728,466.1644 Q179.4155,467.2269 180.7593,467.2269 Q181.3843,467.2269 181.978,466.9613 Q182.5718,466.68 183.1968,466.1019 L183.1968,468.8206 Z " fill="#000000"/><text fill="#000000" font-family="sans-serif" font-size="14" lengthAdjust="spacing" textLength="58.6455" x="200.728" y="468.0267">Adaptee</text><line style="stroke:#181818;stroke-width:0.5;" x1="119.52" x2="308.0815" y1="479.18" y2="479.18"/><line style="stroke:#181818;stroke-width:0.5;" x1="119.52" x2="308.0815" y1="487.18" y2="487.18"/><ellipse cx="129.52" cy="500.8284" fill="#84BE84" rx="3" ry="3" style="stroke:#038048;stroke-width:1;"/><text fill="#000000" font-family="sans-serif" font-size="14" lengthAdjust="spacing" textLength="164.5615" x="138.52" y="504.1751">specificRequest() : void</text></g><!--class Adapter--><g class="entity" data-entity="Adapter" data-source-line="19" data-uid="ent0005" id="entity_Adapter"><rect fill="#F1F1F1" height="80.5938" rx="3.5" ry="3.5" style="stroke:#181818;stroke-width:0.5;" width="133.6934" x="146.95" y="289.59"/><ellipse cx="182.6074" cy="305.59" fill="#ADD1B2" rx="11" ry="11" style="stroke:#181818;stroke-width:1;"/><path d="M185.5761,311.2306 Q184.998,311.5275 184.3574,311.6681 Q183.7167,311.8244 183.0136,311.8244 Q180.5136,311.8244 179.1855,310.1838 Q177.873,308.5275 177.873,305.4025 Q177.873,302.2775 179.1855,300.6213 Q180.5136,298.965 183.0136,298.965 Q183.7167,298.965 184.3574,299.1213 Q185.0136,299.2775 185.5761,299.5744 L185.5761,302.2931 Q184.9511,301.715 184.3574,301.4494 Q183.7636,301.1681 183.1386,301.1681 Q181.7949,301.1681 181.1074,302.2463 Q180.4199,303.3088 180.4199,305.4025 Q180.4199,307.4963 181.1074,308.5744 Q181.7949,309.6369 183.1386,309.6369 Q183.7636,309.6369 184.3574,309.3713 Q184.9511,309.09 185.5761,308.5119 L185.5761,311.2306 Z " fill="#000000"/><text fill="#000000" font-family="sans-serif" font-size="14" lengthAdjust="spacing" textLength="55.7881" x="201.1979" y="310.4367">Adapter</text><line style="stroke:#181818;stroke-width:0.5;" x1="147.95" x2="279.6434" y1="321.59" y2="321.59"/><line style="stroke:#181818;stroke-width:0.5;" x1="147.95" x2="279.6434" y1="329.59" y2="329.59"/><ellipse cx="157.95" cy="343.2384" fill="#84BE84" rx="3" ry="3" style="stroke:#038048;stroke-width:1;"/><text fill="#000000" font-family="sans-serif" font-size="14" lengthAdjust="spacing" textLength="66.7119" x="166.95" y="346.5851">Adapter()</text><ellipse cx="157.95" cy="359.5353" fill="#84BE84" rx="3" ry="3" style="stroke:#038048;stroke-width:1;"/><text fill="#000000" font-family="sans-serif" font-size="14" lengthAdjust="spacing" textLength="107.6934" x="166.95" y="362.882">request() : void</text></g><g class="entity" data-entity="GMN9" data-source-line="30" data-uid="ent0010" id="entity_GMN9"><path d="M315.3,171.37 L315.3,176.44 L281.07,180.44 L315.3,184.44 L315.3,189.5028 A3.5,3.5 0 0 0 318.8,193.0028 L436.8001,193.0028 A3.5,3.5 0 0 0 440.3001,189.5028 L440.3001,177.87 L430.3001,167.87 L318.8,167.87 A3.5,3.5 0 0 0 315.3,171.37" fill="#E5E5E5" style="stroke:#191919;stroke-width:1.5;"/><path d="M430.3001,167.87 L430.3001,176.12 A1.75,1.75 0 0 0 432.0501,177.87 L440.3001,177.87 L430.3001,167.87" fill="#E5E5E5" style="stroke:#191919;stroke-width:1.5;"/><text fill="#191919" font-family="sans-serif" font-size="13" lengthAdjust="spacing" textLength="104.0001" x="321.3" y="184.9369">&#23458;&#25143;&#31471;&#26399;&#26395;&#30340;&#25509;&#21475;</text></g><g class="entity" data-entity="GMN12" data-source-line="31" data-uid="ent0013" id="entity_GMN12"><path d="M343.8,462.7 L343.8,475.33 L309.42,479.33 L343.8,483.33 L343.8,495.9656 A3.5,3.5 0 0 0 347.3,499.4656 L426.3001,499.4656 A3.5,3.5 0 0 0 429.8001,495.9656 L429.8001,469.2 L419.8001,459.2 L347.3,459.2 A3.5,3.5 0 0 0 343.8,462.7" fill="#E5E5E5" style="stroke:#191919;stroke-width:1.5;"/><path d="M419.8001,459.2 L419.8001,467.45 A1.75,1.75 0 0 0 421.5501,469.2 L429.8001,469.2 L419.8001,459.2" fill="#E5E5E5" style="stroke:#191919;stroke-width:1.5;"/><text fill="#191919" font-family="sans-serif" font-size="13" lengthAdjust="spacing" textLength="65.0001" x="349.8" y="476.2669">&#29616;&#26377;&#30340;&#25509;&#21475;</text><text fill="#191919" font-family="sans-serif" font-size="13" lengthAdjust="spacing" textLength="65.0001" x="349.8" y="491.3997">&#38656;&#35201;&#34987;&#36866;&#37197;</text></g><g class="entity" data-entity="GMN15" data-source-line="32" data-uid="ent0016" id="entity_GMN15"><path d="M315.8,305.69 L315.8,325.89 L281.07,329.89 L315.8,333.89 L315.8,354.0884 A3.5,3.5 0 0 0 319.3,357.5884 L424.3001,357.5884 A3.5,3.5 0 0 0 427.8001,354.0884 L427.8001,312.19 L417.8001,302.19 L319.3,302.19 A3.5,3.5 0 0 0 315.8,305.69" fill="#E5E5E5" style="stroke:#191919;stroke-width:1.5;"/><path d="M417.8001,302.19 L417.8001,310.44 A1.75,1.75 0 0 0 419.5501,312.19 L427.8001,312.19 L417.8001,302.19" fill="#E5E5E5" style="stroke:#191919;stroke-width:1.5;"/><text fill="#191919" font-family="sans-serif" font-size="13" lengthAdjust="spacing" textLength="52.0001" x="321.8" y="319.2569">&#36866;&#37197;&#22120;&#31867;</text><text fill="#191919" font-family="sans-serif" font-size="13" lengthAdjust="spacing" textLength="91.0001" x="321.8" y="334.3897">&#36716;&#25442;&#23458;&#25143;&#31471;&#35831;&#27714;</text><text fill="#191919" font-family="sans-serif" font-size="13" lengthAdjust="spacing" textLength="91.0001" x="321.8" y="349.5225">&#35843;&#29992;&#36866;&#37197;&#32773;&#26041;&#27861;</text></g><g class="entity" data-entity="GMN18" data-source-line="33" data-uid="ent0019" id="entity_GMN18"><path d="M6,22.51 L6,55.7756 A3.5,3.5 0 0 0 9.5,59.2756 L118.0992,59.2756 A3.5,3.5 0 0 0 121.5992,55.7756 L121.5992,43.14 L155.95,39.14 L121.5992,35.14 L121.5992,29.01 L111.5992,19.01 L9.5,19.01 A3.5,3.5 0 0 0 6,22.51" fill="#E5E5E5" style="stroke:#191919;stroke-width:1.5;"/><path d="M111.5992,19.01 L111.5992,27.26 A1.75,1.75 0 0 0 113.3492,29.01 L121.5992,29.01 L111.5992,19.01" fill="#E5E5E5" style="stroke:#191919;stroke-width:1.5;"/><text fill="#191919" font-family="sans-serif" font-size="13" lengthAdjust="spacing" textLength="39" x="12" y="36.0769">&#23458;&#25143;&#31471;</text><text fill="#191919" font-family="sans-serif" font-size="13" lengthAdjust="spacing" textLength="94.5992" x="12" y="51.2097">&#20351;&#29992;Target&#25509;&#21475;</text></g><!--link Client to Target--><g class="link" data-entity-1="Client" data-entity-2="Target" data-source-line="25" data-uid="lnk6" id="link_Client_Target"><path codeLine="25" d="M213.8,71.75 C213.8,94.55 213.8,119.19 213.8,141.96" fill="none" id="Client-to-Target" style="stroke:#191919;stroke-width:1;"/><polygon fill="#191919" points="213.8,147.96,217.8,138.96,213.8,142.96,209.8,138.96,213.8,147.96" style="stroke:#191919;stroke-width:1;"/><text fill="#000000" font-family="sans-serif" font-size="13" lengthAdjust="spacing" textLength="29.7832" x="214.8" y="114.3569">uses</text></g><!--reverse link Target to Adapter--><g class="link" data-entity-1="Target" data-entity-2="Adapter" data-source-line="26" data-uid="lnk7" id="link_Target_Adapter"><path codeLine="26" d="M213.8,231.07 C213.8,253.33 213.8,265.28 213.8,289.14" fill="none" id="Target-backto-Adapter" style="stroke:#191919;stroke-width:1;stroke-dasharray:7.0,7.0;"/><polygon fill="none" points="213.8,213.07,207.8,231.07,219.8,231.07,213.8,213.07" style="stroke:#191919;stroke-width:1;"/><text fill="#000000" font-family="sans-serif" font-size="13" lengthAdjust="spacing" textLength="76.9082" x="214.8" y="255.6569">implements</text></g><!--link Adapter to Adaptee--><g class="link" data-entity-1="Adapter" data-entity-2="Adaptee" data-source-line="27" data-uid="lnk8" id="link_Adapter_Adaptee"><path codeLine="27" d="M213.8,370.4 C213.8,394.45 213.8,406.75 213.8,429.12" fill="none" id="Adapter-to-Adaptee" style="stroke:#191919;stroke-width:1;"/><polygon fill="none" points="213.8,447.12,219.8,429.12,207.8,429.12,213.8,447.12" style="stroke:#191919;stroke-width:1;"/><text fill="#000000" font-family="sans-serif" font-size="13" lengthAdjust="spacing" textLength="52.0508" x="214.8" y="413.2469">extends</text></g><!--SRC=[XL7VIi9G6By_Jt6wIedv02E4w0sYIs_6_AO7jgDjnmWoC4jCGRkf81raHY4O_c4N8YAzZ3lRtY9rSnCHlFm-lj_VxuXbGGEiIRg1q36s1wt5j6OFklnfulI7pdY6P5Ko37ok4g0CtoACJpI9q5WSY_WwHzBeBi8vxG7lL7bzxeu_Lr126UYA90E-bFGC170ThWfWiBqCNgdiLHfkgH8fdwMbF0FmiKOUPA8G-U8WX_tUs-NGVOvWYCKFcR4hbcFDK11T49AR628k662WO3ej9XAXWeY9bbUNbL9ceCrI48h9C8U8uOO1JQ_xvfEPNUzmg-TLwuZc662TPB8CvvH8A_m6Dp-usNPQZxpvRJz_xTn7_4vpnCrQU9UYdbboV-xTRj-lPYzmPNsxkHHrvx-yqGtLtU64ZylBzUZ1UUc5Z-9lKswz-fGgA6l6eB4jwocwcFyjONuetzS_]--></g></svg>