
<svg xmlns="http://www.w3.org/2000/svg" xmlns:xlink="http://www.w3.org/1999/xlink" contentStyleType="text/css" data-diagram-type="CLASS" height="616px" preserveAspectRatio="none" style="width:954px;height:616px;background:#F9F9F9;" version="1.1" viewBox="0 0 954 616" width="954px" zoomAndPan="magnify"><defs/><g><rect fill="#F9F9F9" height="616" style="stroke:none;stroke-width:1;" width="954" x="0" y="0"/><!--class FrontendClient--><g class="entity" data-entity="FrontendClient" data-source-line="4" data-uid="ent0002" id="entity_FrontendClient"><rect fill="#F1F1F1" height="80.5938" rx="3.5" ry="3.5" style="stroke:#181818;stroke-width:0.5;" width="165.0635" x="153.01" y="7"/><ellipse cx="181.2507" cy="23" fill="#ADD1B2" rx="11" ry="11" style="stroke:#181818;stroke-width:1;"/><path d="M184.2195,28.6406 Q183.6413,28.9375 183.0007,29.0781 Q182.3601,29.2344 181.657,29.2344 Q179.157,29.2344 177.8288,27.5938 Q176.5163,25.9375 176.5163,22.8125 Q176.5163,19.6875 177.8288,18.0313 Q179.157,16.375 181.657,16.375 Q182.3601,16.375 183.0007,16.5313 Q183.657,16.6875 184.2195,16.9844 L184.2195,19.7031 Q183.5945,19.125 183.0007,18.8594 Q182.407,18.5781 181.782,18.5781 Q180.4382,18.5781 179.7507,19.6563 Q179.0632,20.7188 179.0632,22.8125 Q179.0632,24.9063 179.7507,25.9844 Q180.4382,27.0469 181.782,27.0469 Q182.407,27.0469 183.0007,26.7813 Q183.5945,26.5 184.2195,25.9219 L184.2195,28.6406 Z " fill="#000000"/><text fill="#000000" font-family="sans-serif" font-size="14" lengthAdjust="spacing" textLength="103.6396" x="198.1931" y="27.8467">FrontendClient</text><line style="stroke:#181818;stroke-width:0.5;" x1="154.01" x2="317.0735" y1="39" y2="39"/><line style="stroke:#181818;stroke-width:0.5;" x1="154.01" x2="317.0735" y1="47" y2="47"/><ellipse cx="164.01" cy="60.6484" fill="#84BE84" rx="3" ry="3" style="stroke:#038048;stroke-width:1;"/><text fill="#000000" font-family="sans-serif" font-size="14" lengthAdjust="spacing" textLength="121.2627" x="173.01" y="63.9951">sendData() : void</text><ellipse cx="164.01" cy="76.9453" fill="#84BE84" rx="3" ry="3" style="stroke:#038048;stroke-width:1;"/><text fill="#000000" font-family="sans-serif" font-size="14" lengthAdjust="spacing" textLength="139.0635" x="173.01" y="80.292">receiveData() : void</text></g><!--class BackendClient--><g class="entity" data-entity="BackendClient" data-source-line="10" data-uid="ent0003" id="entity_BackendClient"><rect fill="#F1F1F1" height="80.5938" rx="3.5" ry="3.5" style="stroke:#181818;stroke-width:0.5;" width="177.4912" x="634.8" y="7"/><ellipse cx="669.8698" cy="23" fill="#ADD1B2" rx="11" ry="11" style="stroke:#181818;stroke-width:1;"/><path d="M672.8386,28.6406 Q672.2604,28.9375 671.6198,29.0781 Q670.9792,29.2344 670.2761,29.2344 Q667.7761,29.2344 666.4479,27.5938 Q665.1354,25.9375 665.1354,22.8125 Q665.1354,19.6875 666.4479,18.0313 Q667.7761,16.375 670.2761,16.375 Q670.9792,16.375 671.6198,16.5313 Q672.2761,16.6875 672.8386,16.9844 L672.8386,19.7031 Q672.2136,19.125 671.6198,18.8594 Q671.0261,18.5781 670.4011,18.5781 Q669.0573,18.5781 668.3698,19.6563 Q667.6823,20.7188 667.6823,22.8125 Q667.6823,24.9063 668.3698,25.9844 Q669.0573,27.0469 670.4011,27.0469 Q671.0261,27.0469 671.6198,26.7813 Q672.2136,26.5 672.8386,25.9219 L672.8386,28.6406 Z " fill="#000000"/><text fill="#000000" font-family="sans-serif" font-size="14" lengthAdjust="spacing" textLength="100.8916" x="688.3298" y="27.8467">BackendClient</text><line style="stroke:#181818;stroke-width:0.5;" x1="635.8" x2="811.2912" y1="39" y2="39"/><line style="stroke:#181818;stroke-width:0.5;" x1="635.8" x2="811.2912" y1="47" y2="47"/><ellipse cx="645.8" cy="60.6484" fill="#84BE84" rx="3" ry="3" style="stroke:#038048;stroke-width:1;"/><text fill="#000000" font-family="sans-serif" font-size="14" lengthAdjust="spacing" textLength="141.7021" x="654.8" y="63.9951">processData() : void</text><ellipse cx="645.8" cy="76.9453" fill="#84BE84" rx="3" ry="3" style="stroke:#038048;stroke-width:1;"/><text fill="#000000" font-family="sans-serif" font-size="14" lengthAdjust="spacing" textLength="151.4912" x="654.8" y="80.292">responseData() : void</text></g><!--class FrontendInterface--><g class="entity" data-entity="FrontendInterface" data-source-line="16" data-uid="ent0004" id="entity_FrontendInterface"><rect fill="#F1F1F1" height="64.2969" rx="3.5" ry="3.5" style="stroke:#181818;stroke-width:0.5;" width="457.0879" x="7" y="164.6"/><ellipse cx="168.3999" cy="180.6" fill="#B4A7E5" rx="11" ry="11" style="stroke:#181818;stroke-width:1;"/><path d="M164.3218,176.3656 L164.3218,174.2094 L171.7124,174.2094 L171.7124,176.3656 L169.2437,176.3656 L169.2437,184.4437 L171.7124,184.4437 L171.7124,186.6 L164.3218,186.6 L164.3218,184.4437 L166.7905,184.4437 L166.7905,176.3656 L164.3218,176.3656 Z " fill="#000000"/><text fill="#000000" font-family="sans-serif" font-size="14" font-style="italic" lengthAdjust="spacing" textLength="125.7881" x="188.8999" y="185.4467">FrontendInterface</text><line style="stroke:#181818;stroke-width:0.5;" x1="8" x2="463.0879" y1="196.6" y2="196.6"/><line style="stroke:#181818;stroke-width:0.5;" x1="8" x2="463.0879" y1="204.6" y2="204.6"/><ellipse cx="18" cy="218.2484" fill="#84BE84" rx="3" ry="3" style="stroke:#038048;stroke-width:1;"/><text fill="#000000" font-family="sans-serif" font-size="14" lengthAdjust="spacing" textLength="431.0879" x="27" y="221.5951">handleFrontendRequest(data : FrontendData) : FrontendData</text></g><!--class BackendInterface--><g class="entity" data-entity="BackendInterface" data-source-line="21" data-uid="ent0005" id="entity_BackendInterface"><rect fill="#F1F1F1" height="64.2969" rx="3.5" ry="3.5" style="stroke:#181818;stroke-width:0.5;" width="448.8438" x="499.12" y="164.6"/><ellipse cx="657.7719" cy="180.6" fill="#B4A7E5" rx="11" ry="11" style="stroke:#181818;stroke-width:1;"/><path d="M653.6937,176.3656 L653.6937,174.2094 L661.0844,174.2094 L661.0844,176.3656 L658.6156,176.3656 L658.6156,184.4437 L661.0844,184.4437 L661.0844,186.6 L653.6937,186.6 L653.6937,184.4437 L656.1625,184.4437 L656.1625,176.3656 L653.6937,176.3656 Z " fill="#000000"/><text fill="#000000" font-family="sans-serif" font-size="14" font-style="italic" lengthAdjust="spacing" textLength="123.04" x="678.2719" y="185.4467">BackendInterface</text><line style="stroke:#181818;stroke-width:0.5;" x1="500.12" x2="946.9638" y1="196.6" y2="196.6"/><line style="stroke:#181818;stroke-width:0.5;" x1="500.12" x2="946.9638" y1="204.6" y2="204.6"/><ellipse cx="510.12" cy="218.2484" fill="#84BE84" rx="3" ry="3" style="stroke:#038048;stroke-width:1;"/><text fill="#000000" font-family="sans-serif" font-size="14" lengthAdjust="spacing" textLength="422.8438" x="519.12" y="221.5951">handleBackendRequest(data : BackendData) : BackendData</text></g><!--class BidirectionalAdapter--><g class="entity" data-entity="BidirectionalAdapter" data-source-line="26" data-uid="ent0006" id="entity_BidirectionalAdapter"><rect fill="#F1F1F1" height="162.0781" rx="3.5" ry="3.5" style="stroke:#181818;stroke-width:0.5;" width="563.0518" x="198.02" y="305.9"/><ellipse cx="403.5903" cy="321.9" fill="#ADD1B2" rx="11" ry="11" style="stroke:#181818;stroke-width:1;"/><path d="M406.5591,327.5406 Q405.9809,327.8375 405.3403,327.9781 Q404.6997,328.1344 403.9966,328.1344 Q401.4966,328.1344 400.1684,326.4938 Q398.8559,324.8375 398.8559,321.7125 Q398.8559,318.5875 400.1684,316.9313 Q401.4966,315.275 403.9966,315.275 Q404.6997,315.275 405.3403,315.4313 Q405.9966,315.5875 406.5591,315.8844 L406.5591,318.6031 Q405.9341,318.025 405.3403,317.7594 Q404.7466,317.4781 404.1216,317.4781 Q402.7778,317.4781 402.0903,318.5563 Q401.4028,319.6188 401.4028,321.7125 Q401.4028,323.8063 402.0903,324.8844 Q402.7778,325.9469 404.1216,325.9469 Q404.7466,325.9469 405.3403,325.6813 Q405.9341,325.4 406.5591,324.8219 L406.5591,327.5406 Z " fill="#000000"/><text fill="#000000" font-family="sans-serif" font-size="14" lengthAdjust="spacing" textLength="143.4111" x="424.0903" y="326.7467">BidirectionalAdapter</text><line style="stroke:#181818;stroke-width:0.5;" x1="199.02" x2="760.0718" y1="337.9" y2="337.9"/><rect fill="none" height="6" style="stroke:#C82930;stroke-width:1;" width="6" x="206.02" y="348.5484"/><text fill="#000000" font-family="sans-serif" font-size="14" lengthAdjust="spacing" textLength="240.1943" x="218.02" y="354.8951">frontendService : FrontendService</text><rect fill="none" height="6" style="stroke:#C82930;stroke-width:1;" width="6" x="206.02" y="364.8453"/><text fill="#000000" font-family="sans-serif" font-size="14" lengthAdjust="spacing" textLength="237.1045" x="218.02" y="371.192">backendService : BackendService</text><line style="stroke:#181818;stroke-width:0.5;" x1="199.02" x2="760.0718" y1="378.4938" y2="378.4938"/><ellipse cx="209.02" cy="392.1422" fill="#84BE84" rx="3" ry="3" style="stroke:#038048;stroke-width:1;"/><text fill="#000000" font-family="sans-serif" font-size="14" lengthAdjust="spacing" textLength="537.0518" x="218.02" y="395.4889">BidirectionalAdapter(frontend : FrontendService, backend : BackendService)</text><ellipse cx="209.02" cy="408.4391" fill="#84BE84" rx="3" ry="3" style="stroke:#038048;stroke-width:1;"/><text fill="#000000" font-family="sans-serif" font-size="14" lengthAdjust="spacing" textLength="431.0879" x="218.02" y="411.7857">handleFrontendRequest(data : FrontendData) : FrontendData</text><ellipse cx="209.02" cy="424.7359" fill="#84BE84" rx="3" ry="3" style="stroke:#038048;stroke-width:1;"/><text fill="#000000" font-family="sans-serif" font-size="14" lengthAdjust="spacing" textLength="422.8438" x="218.02" y="428.0826">handleBackendRequest(data : BackendData) : BackendData</text><rect fill="#F24D5C" height="6" style="stroke:#C82930;stroke-width:1;" width="6" x="206.02" y="438.0328"/><text fill="#000000" font-family="sans-serif" font-size="14" lengthAdjust="spacing" textLength="453.8857" x="218.02" y="444.3795">convertFrontendToBackend(data : FrontendData) : BackendData</text><rect fill="#F24D5C" height="6" style="stroke:#C82930;stroke-width:1;" width="6" x="206.02" y="454.3297"/><text fill="#000000" font-family="sans-serif" font-size="14" lengthAdjust="spacing" textLength="453.8857" x="218.02" y="460.6764">convertBackendToFrontend(data : BackendData) : FrontendData</text></g><!--class FrontendService--><g class="entity" data-entity="FrontendService" data-source-line="37" data-uid="ent0007" id="entity_FrontendService"><rect fill="#F1F1F1" height="64.2969" rx="3.5" ry="3.5" style="stroke:#181818;stroke-width:0.5;" width="439.4102" x="24.84" y="544.97"/><ellipse cx="182.8698" cy="560.97" fill="#ADD1B2" rx="11" ry="11" style="stroke:#181818;stroke-width:1;"/><path d="M185.8385,566.6106 Q185.2604,566.9075 184.6198,567.0481 Q183.9792,567.2044 183.276,567.2044 Q180.776,567.2044 179.4479,565.5638 Q178.1354,563.9075 178.1354,560.7825 Q178.1354,557.6575 179.4479,556.0013 Q180.776,554.345 183.276,554.345 Q183.9792,554.345 184.6198,554.5013 Q185.276,554.6575 185.8385,554.9544 L185.8385,557.6731 Q185.2135,557.095 184.6198,556.8294 Q184.026,556.5481 183.401,556.5481 Q182.0573,556.5481 181.3698,557.6263 Q180.6823,558.6888 180.6823,560.7825 Q180.6823,562.8763 181.3698,563.9544 Q182.0573,565.0169 183.401,565.0169 Q184.026,565.0169 184.6198,564.7513 Q185.2135,564.47 185.8385,563.8919 L185.8385,566.6106 Z " fill="#000000"/><text fill="#000000" font-family="sans-serif" font-size="14" lengthAdjust="spacing" textLength="114.8506" x="203.3698" y="565.8167">FrontendService</text><line style="stroke:#181818;stroke-width:0.5;" x1="25.84" x2="463.2502" y1="576.97" y2="576.97"/><line style="stroke:#181818;stroke-width:0.5;" x1="25.84" x2="463.2502" y1="584.97" y2="584.97"/><ellipse cx="35.84" cy="598.6184" fill="#84BE84" rx="3" ry="3" style="stroke:#038048;stroke-width:1;"/><text fill="#000000" font-family="sans-serif" font-size="14" lengthAdjust="spacing" textLength="413.4102" x="44.84" y="601.9651">processFrontendData(data : FrontendData) : FrontendData</text></g><!--class BackendService--><g class="entity" data-entity="BackendService" data-source-line="42" data-uid="ent0008" id="entity_BackendService"><rect fill="#F1F1F1" height="64.2969" rx="3.5" ry="3.5" style="stroke:#181818;stroke-width:0.5;" width="431.166" x="498.96" y="544.97"/><ellipse cx="654.2417" cy="560.97" fill="#ADD1B2" rx="11" ry="11" style="stroke:#181818;stroke-width:1;"/><path d="M657.2105,566.6106 Q656.6324,566.9075 655.9917,567.0481 Q655.3511,567.2044 654.648,567.2044 Q652.148,567.2044 650.8199,565.5638 Q649.5074,563.9075 649.5074,560.7825 Q649.5074,557.6575 650.8199,556.0013 Q652.148,554.345 654.648,554.345 Q655.3511,554.345 655.9917,554.5013 Q656.648,554.6575 657.2105,554.9544 L657.2105,557.6731 Q656.5855,557.095 655.9917,556.8294 Q655.398,556.5481 654.773,556.5481 Q653.4292,556.5481 652.7417,557.6263 Q652.0542,558.6888 652.0542,560.7825 Q652.0542,562.8763 652.7417,563.9544 Q653.4292,565.0169 654.773,565.0169 Q655.398,565.0169 655.9917,564.7513 Q656.5855,564.47 657.2105,563.8919 L657.2105,566.6106 Z " fill="#000000"/><text fill="#000000" font-family="sans-serif" font-size="14" lengthAdjust="spacing" textLength="112.1025" x="674.7417" y="565.8167">BackendService</text><line style="stroke:#181818;stroke-width:0.5;" x1="499.96" x2="929.126" y1="576.97" y2="576.97"/><line style="stroke:#181818;stroke-width:0.5;" x1="499.96" x2="929.126" y1="584.97" y2="584.97"/><ellipse cx="509.96" cy="598.6184" fill="#84BE84" rx="3" ry="3" style="stroke:#038048;stroke-width:1;"/><text fill="#000000" font-family="sans-serif" font-size="14" lengthAdjust="spacing" textLength="405.166" x="518.96" y="601.9651">processBackendData(data : BackendData) : BackendData</text></g><g class="entity" data-entity="GMN15" data-source-line="57" data-uid="ent0016" id="entity_GMN15"><path d="M796.04,362.73 L796.04,382.93 L761.2,386.93 L796.04,390.93 L796.04,411.1284 A3.5,3.5 0 0 0 799.54,414.6284 L917.5401,414.6284 A3.5,3.5 0 0 0 921.0401,411.1284 L921.0401,369.23 L911.0401,359.23 L799.54,359.23 A3.5,3.5 0 0 0 796.04,362.73" fill="#E5E5E5" style="stroke:#191919;stroke-width:1.5;"/><path d="M911.0401,359.23 L911.0401,367.48 A1.75,1.75 0 0 0 912.7901,369.23 L921.0401,369.23 L911.0401,359.23" fill="#E5E5E5" style="stroke:#191919;stroke-width:1.5;"/><text fill="#191919" font-family="sans-serif" font-size="13" lengthAdjust="spacing" textLength="65.0001" x="802.04" y="376.2969">&#21452;&#21521;&#36866;&#37197;&#22120;</text><text fill="#191919" font-family="sans-serif" font-size="13" lengthAdjust="spacing" textLength="104.0001" x="802.04" y="391.4297">&#21516;&#26102;&#23454;&#29616;&#20004;&#20010;&#25509;&#21475;</text><text fill="#191919" font-family="sans-serif" font-size="13" lengthAdjust="spacing" textLength="104.0001" x="802.04" y="406.5625">&#25552;&#20379;&#21452;&#21521;&#25968;&#25454;&#36716;&#25442;</text></g><!--link FrontendClient to FrontendInterface--><g class="link" data-entity-1="FrontendClient" data-entity-2="FrontendInterface" data-source-line="47" data-uid="lnk9" id="link_FrontendClient_FrontendInterface"><path codeLine="47" d="M235.54,87.81 C235.54,111.87 235.54,136.17 235.54,158.54" fill="none" id="FrontendClient-to-FrontendInterface" style="stroke:#191919;stroke-width:1;"/><polygon fill="#191919" points="235.54,164.54,239.54,155.54,235.54,159.54,231.54,155.54,235.54,164.54" style="stroke:#191919;stroke-width:1;"/><text fill="#000000" font-family="sans-serif" font-size="13" lengthAdjust="spacing" textLength="29.7832" x="236.54" y="130.6669">uses</text></g><!--link BackendClient to BackendInterface--><g class="link" data-entity-1="BackendClient" data-entity-2="BackendInterface" data-source-line="48" data-uid="lnk10" id="link_BackendClient_BackendInterface"><path codeLine="48" d="M723.54,87.81 C723.54,111.87 723.54,136.17 723.54,158.54" fill="none" id="BackendClient-to-BackendInterface" style="stroke:#191919;stroke-width:1;"/><polygon fill="#191919" points="723.54,164.54,727.54,155.54,723.54,159.54,719.54,155.54,723.54,164.54" style="stroke:#191919;stroke-width:1;"/><text fill="#000000" font-family="sans-serif" font-size="13" lengthAdjust="spacing" textLength="29.7832" x="724.54" y="130.6669">uses</text></g><!--reverse link FrontendInterface to BidirectionalAdapter--><g class="link" data-entity-1="FrontendInterface" data-entity-2="BidirectionalAdapter" data-source-line="50" data-uid="lnk11" id="link_FrontendInterface_BidirectionalAdapter"><path codeLine="50" d="M290.6327,240.2336 C317.7027,261.1136 340.27,278.52 375.13,305.4" fill="none" id="FrontendInterface-backto-BidirectionalAdapter" style="stroke:#191919;stroke-width:1;stroke-dasharray:7.0,7.0;"/><polygon fill="none" points="276.38,229.24,286.9682,244.9845,294.2973,235.4827,276.38,229.24" style="stroke:#191919;stroke-width:1;"/><text fill="#000000" font-family="sans-serif" font-size="13" lengthAdjust="spacing" textLength="76.9082" x="337.54" y="271.9669">implements</text></g><!--reverse link BackendInterface to BidirectionalAdapter--><g class="link" data-entity-1="BackendInterface" data-entity-2="BidirectionalAdapter" data-source-line="51" data-uid="lnk12" id="link_BackendInterface_BidirectionalAdapter"><path codeLine="51" d="M668.4492,240.2362 C641.3892,261.1162 618.82,278.52 583.96,305.4" fill="none" id="BackendInterface-backto-BidirectionalAdapter" style="stroke:#191919;stroke-width:1;stroke-dasharray:7.0,7.0;"/><polygon fill="none" points="682.7,229.24,664.7838,235.4859,672.1146,244.9864,682.7,229.24" style="stroke:#191919;stroke-width:1;"/><text fill="#000000" font-family="sans-serif" font-size="13" lengthAdjust="spacing" textLength="76.9082" x="639.54" y="271.9669">implements</text></g><!--link BidirectionalAdapter to FrontendService--><g class="link" data-entity-1="BidirectionalAdapter" data-entity-2="FrontendService" data-source-line="53" data-uid="lnk13" id="link_BidirectionalAdapter_FrontendService"><path codeLine="53" d="M379.2,468.29 C345.52,495.26 314.5929,520.019 288.4629,540.949" fill="none" id="BidirectionalAdapter-to-FrontendService" style="stroke:#191919;stroke-width:1;"/><polygon fill="#191919" points="283.78,544.7,293.3051,542.1954,287.6824,541.5742,288.3037,535.9515,283.78,544.7" style="stroke:#191919;stroke-width:1;"/><text fill="#000000" font-family="sans-serif" font-size="13" lengthAdjust="spacing" textLength="35.6357" x="342.54" y="511.0369">has-a</text></g><!--link BidirectionalAdapter to BackendService--><g class="link" data-entity-1="BidirectionalAdapter" data-entity-2="BackendService" data-source-line="54" data-uid="lnk14" id="link_BidirectionalAdapter_BackendService"><path codeLine="54" d="M579.89,468.29 C613.57,495.26 644.4864,520.0199 670.6264,540.9499" fill="none" id="BidirectionalAdapter-to-BackendService" style="stroke:#191919;stroke-width:1;"/><polygon fill="#191919" points="675.31,544.7,670.7846,535.9524,671.407,541.5749,665.7845,542.1972,675.31,544.7" style="stroke:#191919;stroke-width:1;"/><text fill="#000000" font-family="sans-serif" font-size="13" lengthAdjust="spacing" textLength="35.6357" x="633.54" y="511.0369">has-a</text></g><!--SRC=[fPJDJXin4CVlVWhtr4GbF41KLMgAAlLQE79nTvt6OcE7jScbhOGgHIKHcwI7gYeWLA2LK5i5f4W51EtJn0uvyGhrPht9VY91R_Pu_F_DZ3tpGDHm7SCwSZa03w4Sx8mkshBjZN-UoC6XsZhJ2s0vY7Fut6LKO6e_SmYc0hu143xYUh-412eKOHas6R5zeuijJ9euRdyNaUztC-Gho5fBg3TSPc7ECm2ymIY_XJ1DG7M_ozuH83fgjueiFClWnSmonTGGjHqS7hx4wnkOYuAjnRLqQFPPnSG-dLGAQRBA99gp1D1OGrva6yFrjcN_usJp_QJboI_7OGs9JNJr1M4KEKzjrD3KAR5KDM4lOxT9T1ZpH8p5TteLiEO-bPZ1ZpoBK0Z5qweBq6Ycn8h_L_dx5r7dQJ7QnAu81LUOESyZPrytrXKMkkV0StzCy4dtFDavkBdQ2jxoUhDrSzLET5pu8D6cYAhUyw_UGew_LGmSoUwENxOr70ylGMACb4fFClgo33SuvY0-4tpNL3yPJv3MUFnsSJ6x8ygGr1kEddjKp1XtlWSoNQBfpFkeXdW9vL-e9FikyDULKsUNilDL3Oyd7pg0Ce6XIrxN16JLl0WJWs6Lolws-lnR3lR7tTFH-RVH-OzWIArIrUkF_ku65zIdK-KDhl_yKjxXFm00]--></g></svg>