
<svg xmlns="http://www.w3.org/2000/svg" xmlns:xlink="http://www.w3.org/1999/xlink" contentStyleType="text/css" data-diagram-type="CLASS" height="822px" preserveAspectRatio="none" style="width:676px;height:822px;background:#F9F9F9;" version="1.1" viewBox="0 0 676 822" width="676px" zoomAndPan="magnify"><defs/><g><rect fill="#F9F9F9" height="822" style="stroke:none;stroke-width:1;" width="676" x="0" y="0"/><!--class Client--><g class="entity" data-entity="Client" data-source-line="4" data-uid="ent0002" id="entity_Client"><rect fill="#F1F1F1" height="64.2969" rx="3.5" ry="3.5" style="stroke:#181818;stroke-width:0.5;" width="115.1475" x="396.71" y="7"/><ellipse cx="430.8877" cy="23" fill="#ADD1B2" rx="11" ry="11" style="stroke:#181818;stroke-width:1;"/><path d="M433.8565,28.6406 Q433.2784,28.9375 432.6377,29.0781 Q431.9971,29.2344 431.294,29.2344 Q428.794,29.2344 427.4659,27.5938 Q426.1534,25.9375 426.1534,22.8125 Q426.1534,19.6875 427.4659,18.0313 Q428.794,16.375 431.294,16.375 Q431.9971,16.375 432.6377,16.5313 Q433.294,16.6875 433.8565,16.9844 L433.8565,19.7031 Q433.2315,19.125 432.6377,18.8594 Q432.044,18.5781 431.419,18.5781 Q430.0752,18.5781 429.3877,19.6563 Q428.7002,20.7188 428.7002,22.8125 Q428.7002,24.9063 429.3877,25.9844 Q430.0752,27.0469 431.419,27.0469 Q432.044,27.0469 432.6377,26.7813 Q433.2315,26.5 433.8565,25.9219 L433.8565,28.6406 Z " fill="#000000"/><text fill="#000000" font-family="sans-serif" font-size="14" lengthAdjust="spacing" textLength="40.5303" x="449.1495" y="27.8467">Client</text><line style="stroke:#181818;stroke-width:0.5;" x1="397.71" x2="510.8575" y1="39" y2="39"/><line style="stroke:#181818;stroke-width:0.5;" x1="397.71" x2="510.8575" y1="47" y2="47"/><ellipse cx="407.71" cy="60.6484" fill="#84BE84" rx="3" ry="3" style="stroke:#038048;stroke-width:1;"/><text fill="#000000" font-family="sans-serif" font-size="14" lengthAdjust="spacing" textLength="89.1475" x="416.71" y="63.9951">main() : void</text></g><!--class Target--><g class="entity" data-entity="Target" data-source-line="9" data-uid="ent0003" id="entity_Target"><rect fill="#F1F1F1" height="129.4844" rx="3.5" ry="3.5" style="stroke:#181818;stroke-width:0.5;" width="143.1406" x="382.71" y="148.3"/><ellipse cx="427.0923" cy="164.3" fill="#B4A7E5" rx="11" ry="11" style="stroke:#181818;stroke-width:1;"/><path d="M423.0142,160.0656 L423.0142,157.9094 L430.4048,157.9094 L430.4048,160.0656 L427.9361,160.0656 L427.9361,168.1437 L430.4048,168.1437 L430.4048,170.3 L423.0142,170.3 L423.0142,168.1437 L425.4829,168.1437 L425.4829,160.0656 L423.0142,160.0656 Z " fill="#000000"/><text fill="#000000" font-family="sans-serif" font-size="14" font-style="italic" lengthAdjust="spacing" textLength="45.876" x="447.5923" y="169.1467">Target</text><line style="stroke:#181818;stroke-width:0.5;" x1="383.71" x2="524.8506" y1="180.3" y2="180.3"/><line style="stroke:#181818;stroke-width:0.5;" x1="383.71" x2="524.8506" y1="188.3" y2="188.3"/><ellipse cx="393.71" cy="201.9484" fill="#84BE84" rx="3" ry="3" style="stroke:#038048;stroke-width:1;"/><text fill="#000000" font-family="sans-serif" font-size="14" lengthAdjust="spacing" textLength="117.1406" x="402.71" y="205.2951">method1() : void</text><ellipse cx="393.71" cy="218.2453" fill="#84BE84" rx="3" ry="3" style="stroke:#038048;stroke-width:1;"/><text fill="#000000" font-family="sans-serif" font-size="14" lengthAdjust="spacing" textLength="117.1406" x="402.71" y="221.592">method2() : void</text><ellipse cx="393.71" cy="234.5422" fill="#84BE84" rx="3" ry="3" style="stroke:#038048;stroke-width:1;"/><text fill="#000000" font-family="sans-serif" font-size="14" lengthAdjust="spacing" textLength="117.1406" x="402.71" y="237.8889">method3() : void</text><ellipse cx="393.71" cy="250.8391" fill="#84BE84" rx="3" ry="3" style="stroke:#038048;stroke-width:1;"/><text fill="#000000" font-family="sans-serif" font-size="14" lengthAdjust="spacing" textLength="117.1406" x="402.71" y="254.1857">method4() : void</text><ellipse cx="393.71" cy="267.1359" fill="#84BE84" rx="3" ry="3" style="stroke:#038048;stroke-width:1;"/><text fill="#000000" font-family="sans-serif" font-size="14" lengthAdjust="spacing" textLength="117.1406" x="402.71" y="270.4826">method5() : void</text></g><!--class DefaultAdapter--><g class="entity" data-entity="DefaultAdapter" data-source-line="18" data-uid="ent0004" id="entity_DefaultAdapter"><rect fill="#F1F1F1" height="129.4844" rx="3.5" ry="3.5" style="stroke:#181818;stroke-width:0.5;" width="143.1406" x="382.71" y="354.78"/><ellipse cx="399.5996" cy="370.78" fill="#A9DCDF" rx="11" ry="11" style="stroke:#181818;stroke-width:1;"/><path d="M399.709,366.1238 L398.5528,371.2019 L400.8809,371.2019 L399.709,366.1238 Z M398.2246,363.8894 L401.209,363.8894 L404.5684,376.28 L402.1153,376.28 L401.3496,373.2175 L398.0684,373.2175 L397.3184,376.28 L394.8809,376.28 L398.2246,363.8894 Z " fill="#000000"/><text fill="#000000" font-family="sans-serif" font-size="14" font-style="italic" lengthAdjust="spacing" textLength="106.9414" x="414.0196" y="375.6267">DefaultAdapter</text><line style="stroke:#181818;stroke-width:0.5;" x1="383.71" x2="524.8506" y1="386.78" y2="386.78"/><line style="stroke:#181818;stroke-width:0.5;" x1="383.71" x2="524.8506" y1="394.78" y2="394.78"/><ellipse cx="393.71" cy="408.4284" fill="#84BE84" rx="3" ry="3" style="stroke:#038048;stroke-width:1;"/><text fill="#000000" font-family="sans-serif" font-size="14" lengthAdjust="spacing" textLength="117.1406" x="402.71" y="411.7751">method1() : void</text><ellipse cx="393.71" cy="424.7253" fill="#84BE84" rx="3" ry="3" style="stroke:#038048;stroke-width:1;"/><text fill="#000000" font-family="sans-serif" font-size="14" lengthAdjust="spacing" textLength="117.1406" x="402.71" y="428.072">method2() : void</text><ellipse cx="393.71" cy="441.0222" fill="#84BE84" rx="3" ry="3" style="stroke:#038048;stroke-width:1;"/><text fill="#000000" font-family="sans-serif" font-size="14" lengthAdjust="spacing" textLength="117.1406" x="402.71" y="444.3689">method3() : void</text><ellipse cx="393.71" cy="457.3191" fill="#84BE84" rx="3" ry="3" style="stroke:#038048;stroke-width:1;"/><text fill="#000000" font-family="sans-serif" font-size="14" lengthAdjust="spacing" textLength="117.1406" x="402.71" y="460.6657">method4() : void</text><ellipse cx="393.71" cy="473.6159" fill="#84BE84" rx="3" ry="3" style="stroke:#038048;stroke-width:1;"/><text fill="#000000" font-family="sans-serif" font-size="14" lengthAdjust="spacing" textLength="117.1406" x="402.71" y="476.9626">method5() : void</text></g><!--class Adaptee--><g class="entity" data-entity="Adaptee" data-source-line="27" data-uid="ent0005" id="entity_Adaptee"><rect fill="#F1F1F1" height="64.2969" rx="3.5" ry="3.5" style="stroke:#181818;stroke-width:0.5;" width="190.5615" x="7" y="751.45"/><ellipse cx="68.708" cy="767.45" fill="#ADD1B2" rx="11" ry="11" style="stroke:#181818;stroke-width:1;"/><path d="M71.6768,773.0906 Q71.0986,773.3875 70.458,773.5281 Q69.8174,773.6844 69.1143,773.6844 Q66.6143,773.6844 65.2861,772.0438 Q63.9736,770.3875 63.9736,767.2625 Q63.9736,764.1375 65.2861,762.4813 Q66.6143,760.825 69.1143,760.825 Q69.8174,760.825 70.458,760.9813 Q71.1143,761.1375 71.6768,761.4344 L71.6768,764.1531 Q71.0518,763.575 70.458,763.3094 Q69.8643,763.0281 69.2393,763.0281 Q67.8955,763.0281 67.208,764.1063 Q66.5205,765.1688 66.5205,767.2625 Q66.5205,769.3563 67.208,770.4344 Q67.8955,771.4969 69.2393,771.4969 Q69.8643,771.4969 70.458,771.2313 Q71.0518,770.95 71.6768,770.3719 L71.6768,773.0906 Z " fill="#000000"/><text fill="#000000" font-family="sans-serif" font-size="14" lengthAdjust="spacing" textLength="58.6455" x="89.208" y="772.2967">Adaptee</text><line style="stroke:#181818;stroke-width:0.5;" x1="8" x2="196.5615" y1="783.45" y2="783.45"/><line style="stroke:#181818;stroke-width:0.5;" x1="8" x2="196.5615" y1="791.45" y2="791.45"/><ellipse cx="18" cy="805.0984" fill="#84BE84" rx="3" ry="3" style="stroke:#038048;stroke-width:1;"/><text fill="#000000" font-family="sans-serif" font-size="14" lengthAdjust="spacing" textLength="164.5615" x="27" y="808.4451">specificRequest() : void</text></g><!--class ConcreteAdapter--><g class="entity" data-entity="ConcreteAdapter" data-source-line="32" data-uid="ent0006" id="entity_ConcreteAdapter"><rect fill="#F1F1F1" height="113.1875" rx="3.5" ry="3.5" style="stroke:#181818;stroke-width:0.5;" width="286.0049" x="76.28" y="561.27"/><ellipse cx="155.447" cy="577.27" fill="#ADD1B2" rx="11" ry="11" style="stroke:#181818;stroke-width:1;"/><path d="M158.4157,582.9106 Q157.8376,583.2075 157.197,583.3481 Q156.5564,583.5044 155.8532,583.5044 Q153.3532,583.5044 152.0251,581.8638 Q150.7126,580.2075 150.7126,577.0825 Q150.7126,573.9575 152.0251,572.3013 Q153.3532,570.645 155.8532,570.645 Q156.5564,570.645 157.197,570.8013 Q157.8532,570.9575 158.4157,571.2544 L158.4157,573.9731 Q157.7907,573.395 157.197,573.1294 Q156.6032,572.8481 155.9782,572.8481 Q154.6345,572.8481 153.947,573.9263 Q153.2595,574.9888 153.2595,577.0825 Q153.2595,579.1763 153.947,580.2544 Q154.6345,581.3169 155.9782,581.3169 Q156.6032,581.3169 157.197,581.0513 Q157.7907,580.77 158.4157,580.1919 L158.4157,582.9106 Z " fill="#000000"/><text fill="#000000" font-family="sans-serif" font-size="14" lengthAdjust="spacing" textLength="119.1709" x="175.947" y="582.1167">ConcreteAdapter</text><line style="stroke:#181818;stroke-width:0.5;" x1="77.28" x2="361.2849" y1="593.27" y2="593.27"/><rect fill="none" height="6" style="stroke:#C82930;stroke-width:1;" width="6" x="84.28" y="603.9184"/><text fill="#000000" font-family="sans-serif" font-size="14" lengthAdjust="spacing" textLength="129.9102" x="96.28" y="610.2651">adaptee : Adaptee</text><line style="stroke:#181818;stroke-width:0.5;" x1="77.28" x2="361.2849" y1="617.5669" y2="617.5669"/><ellipse cx="87.28" cy="631.2153" fill="#84BE84" rx="3" ry="3" style="stroke:#038048;stroke-width:1;"/><text fill="#000000" font-family="sans-serif" font-size="14" lengthAdjust="spacing" textLength="260.0049" x="96.28" y="634.562">ConcreteAdapter(adaptee : Adaptee)</text><ellipse cx="87.28" cy="647.5122" fill="#84BE84" rx="3" ry="3" style="stroke:#038048;stroke-width:1;"/><text fill="#000000" font-family="sans-serif" font-size="14" lengthAdjust="spacing" textLength="117.1406" x="96.28" y="650.8589">method1() : void</text><ellipse cx="87.28" cy="663.8091" fill="#84BE84" rx="3" ry="3" style="stroke:#038048;stroke-width:1;"/><text fill="#000000" font-family="sans-serif" font-size="14" lengthAdjust="spacing" textLength="117.1406" x="96.28" y="667.1557">method3() : void</text></g><g class="entity" data-entity="GMN11" data-source-line="46" data-uid="ent0012" id="entity_GMN11"><path d="M396.87,601.23 L396.87,634.4956 A3.5,3.5 0 0 0 400.37,637.9956 L666.1879,637.9956 A3.5,3.5 0 0 0 669.6879,634.4956 L669.6879,607.73 L659.6879,597.73 L529.4,597.73 L480.04,484.54 L521.4,597.73 L400.37,597.73 A3.5,3.5 0 0 0 396.87,601.23" fill="#E5E5E5" style="stroke:#191919;stroke-width:1.5;"/><path d="M659.6879,597.73 L659.6879,605.98 A1.75,1.75 0 0 0 661.4379,607.73 L669.6879,607.73 L659.6879,597.73" fill="#E5E5E5" style="stroke:#191919;stroke-width:1.5;"/><text fill="#191919" font-family="sans-serif" font-size="13" lengthAdjust="spacing" textLength="117.0001" x="402.87" y="614.7969">&#25152;&#26377;&#26041;&#27861;&#25552;&#20379;&#31354;&#23454;&#29616;</text><text fill="#191919" font-family="sans-serif" font-size="13" lengthAdjust="spacing" textLength="251.8179" x="402.87" y="629.9297">&#25110;&#25243;&#20986;UnsupportedOperationException</text></g><g class="entity" data-entity="GMN14" data-source-line="47" data-uid="ent0015" id="entity_GMN14"><path d="M232.16,766.97 L232.16,800.2356 A3.5,3.5 0 0 0 235.66,803.7356 L438.8964,803.7356 A3.5,3.5 0 0 0 442.3964,800.2356 L442.3964,773.47 L432.3964,763.47 L327.15,763.47 L259.56,674.75 L319.15,763.47 L235.66,763.47 A3.5,3.5 0 0 0 232.16,766.97" fill="#E5E5E5" style="stroke:#191919;stroke-width:1.5;"/><path d="M432.3964,763.47 L432.3964,771.72 A1.75,1.75 0 0 0 434.1464,773.47 L442.3964,773.47 L432.3964,763.47" fill="#E5E5E5" style="stroke:#191919;stroke-width:1.5;"/><text fill="#191919" font-family="sans-serif" font-size="13" lengthAdjust="spacing" textLength="189.2364" x="238.16" y="780.5369">&#21482;&#37325;&#20889;method1()&#21644;method3()</text><text fill="#191919" font-family="sans-serif" font-size="13" lengthAdjust="spacing" textLength="130.0002" x="238.16" y="795.6697">&#20854;&#20182;&#26041;&#27861;&#20351;&#29992;&#40664;&#35748;&#23454;&#29616;</text></g><!--link Client to Target--><g class="link" data-entity-1="Client" data-entity-2="Target" data-source-line="40" data-uid="lnk7" id="link_Client_Target"><path codeLine="40" d="M454.28,71.68 C454.28,93 454.28,115.91 454.28,141.96" fill="none" id="Client-to-Target" style="stroke:#191919;stroke-width:1;"/><polygon fill="#191919" points="454.28,147.96,458.28,138.96,454.28,142.96,450.28,138.96,454.28,147.96" style="stroke:#191919;stroke-width:1;"/><text fill="#000000" font-family="sans-serif" font-size="13" lengthAdjust="spacing" textLength="29.7832" x="455.28" y="114.3669">uses</text></g><!--reverse link Target to DefaultAdapter--><g class="link" data-entity-1="Target" data-entity-2="DefaultAdapter" data-source-line="41" data-uid="lnk8" id="link_Target_DefaultAdapter"><path codeLine="41" d="M454.28,296.18 C454.28,320.54 454.28,330.27 454.28,354.61" fill="none" id="Target-backto-DefaultAdapter" style="stroke:#191919;stroke-width:1;stroke-dasharray:7.0,7.0;"/><polygon fill="none" points="454.28,278.18,448.28,296.18,460.28,296.18,454.28,278.18" style="stroke:#191919;stroke-width:1;"/><text fill="#000000" font-family="sans-serif" font-size="13" lengthAdjust="spacing" textLength="76.9082" x="455.28" y="320.8469">implements</text></g><!--reverse link DefaultAdapter to ConcreteAdapter--><g class="link" data-entity-1="DefaultAdapter" data-entity-2="ConcreteAdapter" data-source-line="42" data-uid="lnk9" id="link_DefaultAdapter_ConcreteAdapter"><path codeLine="42" d="M368.6868,492.041 C338.0468,517.641 316.3,535.8 286.21,560.94" fill="none" id="DefaultAdapter-backto-ConcreteAdapter" style="stroke:#191919;stroke-width:1;"/><polygon fill="none" points="382.5,480.5,364.8398,487.4367,372.5338,496.6454,382.5,480.5" style="stroke:#191919;stroke-width:1;"/><text fill="#000000" font-family="sans-serif" font-size="13" lengthAdjust="spacing" textLength="52.0508" x="338.28" y="527.3369">extends</text></g><!--link ConcreteAdapter to Adaptee--><g class="link" data-entity-1="ConcreteAdapter" data-entity-2="Adaptee" data-source-line="43" data-uid="lnk10" id="link_ConcreteAdapter_Adaptee"><path codeLine="43" d="M179.34,674.75 C161.07,700.32 143.5985,724.7784 128.1485,746.3984" fill="none" id="ConcreteAdapter-to-Adaptee" style="stroke:#191919;stroke-width:1;"/><polygon fill="#191919" points="124.66,751.28,133.1472,746.2832,127.5671,747.212,126.6383,741.6319,124.66,751.28" style="stroke:#191919;stroke-width:1;"/><text fill="#000000" font-family="sans-serif" font-size="13" lengthAdjust="spacing" textLength="35.6357" x="158.28" y="717.5169">has-a</text></g><!--SRC=[nPDDRzD048Rl-okM4wsGAq7XObL85N16Gd3hPMjFYALuRRmRL8aYHI0t7sgJYe-eRIfKe4YXbLog84Bh1lwCTnsV-XU8SU8Wnt3bjZkxE_EyyyvUuKKm0Pl4OGXTnSBR2yxgmliWQ_tm-2GyzP5M8epXEoK3ACVF4CRNJ6BGkNciugUMeQFdqtTXnvC7LTdy95eVBozgOjCLsyVYS2_uVYJRPxBtzlAYZWpAmIaG3V13uZo6IKxWHKk_FasRncxan1PpOZTpOhToCID_P-WTHfKNaRibThkoCHYUle-babN67Q9nd6Y-2mLIBl5bdTWZvF_0-PjmM76dDYGiaB0m6pIZO6WFu4aP6C_D8Tn-C7YTQXrbYerf7KNx5U6z2vjVefTTKTkOsZEsswAQ0np-rAwGSN5rWX53P6xEpLoQ_tVR5l-2tGjxFXfFdQBSdWoBYiiC61hlbjON5h8sgTWmxT9eg2bdA7EsjAueCzfK36iSgCvGzYIkkvpgAHAca1XHzdtHE4XQbZHnUF9LxZGHjJZWLOjpoyHMOHPCrYjolvuybAtju4Sd_7oUP5YXijQMZOwedZ-Yh6pRbiD1ls-3GxXXqNjh6jZn8bjZLaniRdLBREocFHUlDjDUhr3XVWlyTW8H37w6Rxh9VqWuVW40]--></g></svg>