
<svg xmlns="http://www.w3.org/2000/svg" xmlns:xlink="http://www.w3.org/1999/xlink" contentStyleType="text/css" data-diagram-type="CLASS" height="402px" preserveAspectRatio="none" style="width:1692px;height:402px;background:#F9F9F9;" version="1.1" viewBox="0 0 1692 402" width="1692px" zoomAndPan="magnify"><defs/><g><rect fill="#F9F9F9" height="402" style="stroke:none;stroke-width:1;" width="1692" x="0" y="0"/><!--class OperatingSystemVersion--><g class="entity" data-entity="OperatingSystemVersion" data-source-line="5" data-uid="ent0002" id="entity_OperatingSystemVersion"><rect fill="#F1F1F1" height="105.1563" rx="3.5" ry="3.5" style="stroke:#181818;stroke-width:0.5;" width="247.1836" x="1071.22" y="7"/><ellipse cx="1104.4072" cy="27.1328" fill="#A9DCDF" rx="11" ry="11" style="stroke:#181818;stroke-width:1;"/><path d="M1104.5166,22.4766 L1103.3603,27.5547 L1105.6885,27.5547 L1104.5166,22.4766 Z M1103.0322,20.2422 L1106.0166,20.2422 L1109.376,32.6328 L1106.9228,32.6328 L1106.1572,29.5703 L1102.876,29.5703 L1102.126,32.6328 L1099.6885,32.6328 L1103.0322,20.2422 Z " fill="#000000"/><text fill="#000000" font-family="sans-serif" font-size="12" font-style="italic" lengthAdjust="spacing" textLength="83.3379" x="1168.1637" y="23.1387">&#171;Abstraction&#187;</text><text fill="#000000" font-family="sans-serif" font-size="14" font-style="italic" lengthAdjust="spacing" textLength="174.7676" x="1122.4488" y="38.9639">OperatingSystemVersion</text><line style="stroke:#181818;stroke-width:0.5;" x1="1072.22" x2="1317.4036" y1="47.2656" y2="47.2656"/><polygon fill="none" points="1082.22,55.9141,1086.22,59.9141,1082.22,63.9141,1078.22,59.9141" style="stroke:#B38D22;stroke-width:1;"/><text fill="#000000" font-family="sans-serif" font-size="14" lengthAdjust="spacing" textLength="90.8086" x="1091.22" y="64.2607">vf : VideoFile</text><line style="stroke:#181818;stroke-width:0.5;" x1="1072.22" x2="1317.4036" y1="71.5625" y2="71.5625"/><ellipse cx="1082.22" cy="85.2109" fill="#84BE84" rx="3" ry="3" style="stroke:#038048;stroke-width:1;"/><text fill="#000000" font-family="sans-serif" font-size="14" lengthAdjust="spacing" textLength="221.1836" x="1091.22" y="88.5576">setVideoFile(VideoFile vf) : void</text><ellipse cx="1082.22" cy="101.5078" fill="#84BE84" rx="3" ry="3" style="stroke:#038048;stroke-width:1;"/><text fill="#000000" font-family="sans-serif" font-size="14" font-style="italic" lengthAdjust="spacing" textLength="192.6641" x="1091.22" y="104.8545">play(String fileName) : void</text></g><!--class VideoFile--><g class="entity" data-entity="VideoFile" data-source-line="12" data-uid="ent0003" id="entity_VideoFile"><rect fill="#F1F1F1" height="72.5625" rx="3.5" ry="3.5" style="stroke:#181818;stroke-width:0.5;" width="345.6143" x="578" y="189.15"/><ellipse cx="702.605" cy="209.2828" fill="#B4A7E5" rx="11" ry="11" style="stroke:#181818;stroke-width:1;"/><path d="M698.5269,205.0484 L698.5269,202.8922 L705.9175,202.8922 L705.9175,205.0484 L703.4487,205.0484 L703.4487,213.1266 L705.9175,213.1266 L705.9175,215.2828 L698.5269,215.2828 L698.5269,213.1266 L700.9956,213.1266 L700.9956,205.0484 L698.5269,205.0484 Z " fill="#000000"/><text fill="#000000" font-family="sans-serif" font-size="12" font-style="italic" lengthAdjust="spacing" textLength="91.9043" x="721.105" y="205.2887">&#171;Implementor&#187;</text><text fill="#000000" font-family="sans-serif" font-size="14" font-style="italic" lengthAdjust="spacing" textLength="63.9775" x="735.0684" y="221.1139">VideoFile</text><line style="stroke:#181818;stroke-width:0.5;" x1="579" x2="922.6143" y1="229.4156" y2="229.4156"/><line style="stroke:#181818;stroke-width:0.5;" x1="579" x2="922.6143" y1="237.4156" y2="237.4156"/><ellipse cx="589" cy="251.0641" fill="#84BE84" rx="3" ry="3" style="stroke:#038048;stroke-width:1;"/><text fill="#000000" font-family="sans-serif" font-size="14" lengthAdjust="spacing" textLength="319.6143" x="598" y="254.4107">decode(String osType, String fileName) : void</text></g><!--class WindowsVersion--><g class="entity" data-entity="WindowsVersion" data-source-line="17" data-uid="ent0004" id="entity_WindowsVersion"><rect fill="#F1F1F1" height="72.5625" rx="3.5" ry="3.5" style="stroke:#181818;stroke-width:0.5;" width="218.6641" x="958.48" y="189.15"/><ellipse cx="1001.1286" cy="209.2828" fill="#ADD1B2" rx="11" ry="11" style="stroke:#181818;stroke-width:1;"/><path d="M1004.0974,214.9234 Q1003.5193,215.2203 1002.8786,215.3609 Q1002.238,215.5172 1001.5349,215.5172 Q999.0349,215.5172 997.7068,213.8766 Q996.3943,212.2203 996.3943,209.0953 Q996.3943,205.9703 997.7068,204.3141 Q999.0349,202.6578 1001.5349,202.6578 Q1002.238,202.6578 1002.8786,202.8141 Q1003.5349,202.9703 1004.0974,203.2672 L1004.0974,205.9859 Q1003.4724,205.4078 1002.8786,205.1422 Q1002.2849,204.8609 1001.6599,204.8609 Q1000.3161,204.8609 999.6286,205.9391 Q998.9411,207.0016 998.9411,209.0953 Q998.9411,211.1891 999.6286,212.2672 Q1000.3161,213.3297 1001.6599,213.3297 Q1002.2849,213.3297 1002.8786,213.0641 Q1003.4724,212.7828 1004.0974,212.2047 L1004.0974,214.9234 Z " fill="#000000"/><text fill="#000000" font-family="sans-serif" font-size="12" font-style="italic" lengthAdjust="spacing" textLength="129.2227" x="1019.2728" y="205.2887">&#171;RefinedAbstraction&#187;</text><text fill="#000000" font-family="sans-serif" font-size="14" lengthAdjust="spacing" textLength="115.3701" x="1026.199" y="221.1139">WindowsVersion</text><line style="stroke:#181818;stroke-width:0.5;" x1="959.48" x2="1176.1441" y1="229.4156" y2="229.4156"/><line style="stroke:#181818;stroke-width:0.5;" x1="959.48" x2="1176.1441" y1="237.4156" y2="237.4156"/><ellipse cx="969.48" cy="251.0641" fill="#84BE84" rx="3" ry="3" style="stroke:#038048;stroke-width:1;"/><text fill="#000000" font-family="sans-serif" font-size="14" lengthAdjust="spacing" textLength="192.6641" x="978.48" y="254.4107">play(String fileName) : void</text></g><!--class UnixVersion--><g class="entity" data-entity="UnixVersion" data-source-line="21" data-uid="ent0006" id="entity_UnixVersion"><rect fill="#F1F1F1" height="72.5625" rx="3.5" ry="3.5" style="stroke:#181818;stroke-width:0.5;" width="218.6641" x="1212.48" y="189.15"/><ellipse cx="1255.1286" cy="209.2828" fill="#ADD1B2" rx="11" ry="11" style="stroke:#181818;stroke-width:1;"/><path d="M1258.0974,214.9234 Q1257.5193,215.2203 1256.8786,215.3609 Q1256.238,215.5172 1255.5349,215.5172 Q1253.0349,215.5172 1251.7068,213.8766 Q1250.3943,212.2203 1250.3943,209.0953 Q1250.3943,205.9703 1251.7068,204.3141 Q1253.0349,202.6578 1255.5349,202.6578 Q1256.238,202.6578 1256.8786,202.8141 Q1257.5349,202.9703 1258.0974,203.2672 L1258.0974,205.9859 Q1257.4724,205.4078 1256.8786,205.1422 Q1256.2849,204.8609 1255.6599,204.8609 Q1254.3161,204.8609 1253.6286,205.9391 Q1252.9411,207.0016 1252.9411,209.0953 Q1252.9411,211.1891 1253.6286,212.2672 Q1254.3161,213.3297 1255.6599,213.3297 Q1256.2849,213.3297 1256.8786,213.0641 Q1257.4724,212.7828 1258.0974,212.2047 L1258.0974,214.9234 Z " fill="#000000"/><text fill="#000000" font-family="sans-serif" font-size="12" font-style="italic" lengthAdjust="spacing" textLength="129.2227" x="1273.2728" y="205.2887">&#171;RefinedAbstraction&#187;</text><text fill="#000000" font-family="sans-serif" font-size="14" lengthAdjust="spacing" textLength="83.8633" x="1295.9525" y="221.1139">UnixVersion</text><line style="stroke:#181818;stroke-width:0.5;" x1="1213.48" x2="1430.1441" y1="229.4156" y2="229.4156"/><line style="stroke:#181818;stroke-width:0.5;" x1="1213.48" x2="1430.1441" y1="237.4156" y2="237.4156"/><ellipse cx="1223.48" cy="251.0641" fill="#84BE84" rx="3" ry="3" style="stroke:#038048;stroke-width:1;"/><text fill="#000000" font-family="sans-serif" font-size="14" lengthAdjust="spacing" textLength="192.6641" x="1232.48" y="254.4107">play(String fileName) : void</text></g><!--class LinuxVersion--><g class="entity" data-entity="LinuxVersion" data-source-line="25" data-uid="ent0008" id="entity_LinuxVersion"><rect fill="#F1F1F1" height="72.5625" rx="3.5" ry="3.5" style="stroke:#181818;stroke-width:0.5;" width="218.6641" x="1466.48" y="189.15"/><ellipse cx="1509.1286" cy="209.2828" fill="#ADD1B2" rx="11" ry="11" style="stroke:#181818;stroke-width:1;"/><path d="M1512.0974,214.9234 Q1511.5193,215.2203 1510.8786,215.3609 Q1510.238,215.5172 1509.5349,215.5172 Q1507.0349,215.5172 1505.7068,213.8766 Q1504.3943,212.2203 1504.3943,209.0953 Q1504.3943,205.9703 1505.7068,204.3141 Q1507.0349,202.6578 1509.5349,202.6578 Q1510.238,202.6578 1510.8786,202.8141 Q1511.5349,202.9703 1512.0974,203.2672 L1512.0974,205.9859 Q1511.4724,205.4078 1510.8786,205.1422 Q1510.2849,204.8609 1509.6599,204.8609 Q1508.3161,204.8609 1507.6286,205.9391 Q1506.9411,207.0016 1506.9411,209.0953 Q1506.9411,211.1891 1507.6286,212.2672 Q1508.3161,213.3297 1509.6599,213.3297 Q1510.2849,213.3297 1510.8786,213.0641 Q1511.4724,212.7828 1512.0974,212.2047 L1512.0974,214.9234 Z " fill="#000000"/><text fill="#000000" font-family="sans-serif" font-size="12" font-style="italic" lengthAdjust="spacing" textLength="129.2227" x="1527.2728" y="205.2887">&#171;RefinedAbstraction&#187;</text><text fill="#000000" font-family="sans-serif" font-size="14" lengthAdjust="spacing" textLength="90.2891" x="1546.7396" y="221.1139">LinuxVersion</text><line style="stroke:#181818;stroke-width:0.5;" x1="1467.48" x2="1684.1441" y1="229.4156" y2="229.4156"/><line style="stroke:#181818;stroke-width:0.5;" x1="1467.48" x2="1684.1441" y1="237.4156" y2="237.4156"/><ellipse cx="1477.48" cy="251.0641" fill="#84BE84" rx="3" ry="3" style="stroke:#038048;stroke-width:1;"/><text fill="#000000" font-family="sans-serif" font-size="14" lengthAdjust="spacing" textLength="192.6641" x="1486.48" y="254.4107">play(String fileName) : void</text></g><!--class MPEGFile--><g class="entity" data-entity="MPEGFile" data-source-line="30" data-uid="ent0010" id="entity_MPEGFile"><rect fill="#F1F1F1" height="72.5625" rx="3.5" ry="3.5" style="stroke:#181818;stroke-width:0.5;" width="345.6143" x="7" y="322.72"/><ellipse cx="104.4409" cy="342.8528" fill="#ADD1B2" rx="11" ry="11" style="stroke:#181818;stroke-width:1;"/><path d="M107.4097,348.4934 Q106.8315,348.7903 106.1909,348.9309 Q105.5503,349.0872 104.8472,349.0872 Q102.3472,349.0872 101.019,347.4466 Q99.7065,345.7903 99.7065,342.6653 Q99.7065,339.5403 101.019,337.8841 Q102.3472,336.2278 104.8472,336.2278 Q105.5503,336.2278 106.1909,336.3841 Q106.8472,336.5403 107.4097,336.8372 L107.4097,339.5559 Q106.7847,338.9778 106.1909,338.7122 Q105.5972,338.4309 104.9722,338.4309 Q103.6284,338.4309 102.9409,339.5091 Q102.2534,340.5716 102.2534,342.6653 Q102.2534,344.7591 102.9409,345.8372 Q103.6284,346.8997 104.9722,346.8997 Q105.5972,346.8997 106.1909,346.6341 Q106.7847,346.3528 107.4097,345.7747 L107.4097,348.4934 Z " fill="#000000"/><text fill="#000000" font-family="sans-serif" font-size="12" font-style="italic" lengthAdjust="spacing" textLength="146.2324" x="122.9409" y="338.8587">&#171;ConcreteImplementor&#187;</text><text fill="#000000" font-family="sans-serif" font-size="14" lengthAdjust="spacing" textLength="64.6611" x="163.7266" y="354.6839">MPEGFile</text><line style="stroke:#181818;stroke-width:0.5;" x1="8" x2="351.6143" y1="362.9856" y2="362.9856"/><line style="stroke:#181818;stroke-width:0.5;" x1="8" x2="351.6143" y1="370.9856" y2="370.9856"/><ellipse cx="18" cy="384.6341" fill="#84BE84" rx="3" ry="3" style="stroke:#038048;stroke-width:1;"/><text fill="#000000" font-family="sans-serif" font-size="14" lengthAdjust="spacing" textLength="319.6143" x="27" y="387.9807">decode(String osType, String fileName) : void</text></g><!--class AVIFile--><g class="entity" data-entity="AVIFile" data-source-line="34" data-uid="ent0012" id="entity_AVIFile"><rect fill="#F1F1F1" height="72.5625" rx="3.5" ry="3.5" style="stroke:#181818;stroke-width:0.5;" width="345.6143" x="388" y="322.72"/><ellipse cx="485.4409" cy="342.8528" fill="#ADD1B2" rx="11" ry="11" style="stroke:#181818;stroke-width:1;"/><path d="M488.4097,348.4934 Q487.8315,348.7903 487.1909,348.9309 Q486.5503,349.0872 485.8472,349.0872 Q483.3472,349.0872 482.019,347.4466 Q480.7065,345.7903 480.7065,342.6653 Q480.7065,339.5403 482.019,337.8841 Q483.3472,336.2278 485.8472,336.2278 Q486.5503,336.2278 487.1909,336.3841 Q487.8472,336.5403 488.4097,336.8372 L488.4097,339.5559 Q487.7847,338.9778 487.1909,338.7122 Q486.5972,338.4309 485.9722,338.4309 Q484.6284,338.4309 483.9409,339.5091 Q483.2534,340.5716 483.2534,342.6653 Q483.2534,344.7591 483.9409,345.8372 Q484.6284,346.8997 485.9722,346.8997 Q486.5972,346.8997 487.1909,346.6341 Q487.7847,346.3528 488.4097,345.7747 L488.4097,348.4934 Z " fill="#000000"/><text fill="#000000" font-family="sans-serif" font-size="12" font-style="italic" lengthAdjust="spacing" textLength="146.2324" x="503.9409" y="338.8587">&#171;ConcreteImplementor&#187;</text><text fill="#000000" font-family="sans-serif" font-size="14" lengthAdjust="spacing" textLength="47.7285" x="553.1929" y="354.6839">AVIFile</text><line style="stroke:#181818;stroke-width:0.5;" x1="389" x2="732.6143" y1="362.9856" y2="362.9856"/><line style="stroke:#181818;stroke-width:0.5;" x1="389" x2="732.6143" y1="370.9856" y2="370.9856"/><ellipse cx="399" cy="384.6341" fill="#84BE84" rx="3" ry="3" style="stroke:#038048;stroke-width:1;"/><text fill="#000000" font-family="sans-serif" font-size="14" lengthAdjust="spacing" textLength="319.6143" x="408" y="387.9807">decode(String osType, String fileName) : void</text></g><!--class RMVBFile--><g class="entity" data-entity="RMVBFile" data-source-line="38" data-uid="ent0014" id="entity_RMVBFile"><rect fill="#F1F1F1" height="72.5625" rx="3.5" ry="3.5" style="stroke:#181818;stroke-width:0.5;" width="345.6143" x="769" y="322.72"/><ellipse cx="866.4409" cy="342.8528" fill="#ADD1B2" rx="11" ry="11" style="stroke:#181818;stroke-width:1;"/><path d="M869.4097,348.4934 Q868.8315,348.7903 868.1909,348.9309 Q867.5503,349.0872 866.8472,349.0872 Q864.3472,349.0872 863.019,347.4466 Q861.7065,345.7903 861.7065,342.6653 Q861.7065,339.5403 863.019,337.8841 Q864.3472,336.2278 866.8472,336.2278 Q867.5503,336.2278 868.1909,336.3841 Q868.8472,336.5403 869.4097,336.8372 L869.4097,339.5559 Q868.7847,338.9778 868.1909,338.7122 Q867.5972,338.4309 866.9722,338.4309 Q865.6284,338.4309 864.9409,339.5091 Q864.2534,340.5716 864.2534,342.6653 Q864.2534,344.7591 864.9409,345.8372 Q865.6284,346.8997 866.9722,346.8997 Q867.5972,346.8997 868.1909,346.6341 Q868.7847,346.3528 869.4097,345.7747 L869.4097,348.4934 Z " fill="#000000"/><text fill="#000000" font-family="sans-serif" font-size="12" font-style="italic" lengthAdjust="spacing" textLength="146.2324" x="884.9409" y="338.8587">&#171;ConcreteImplementor&#187;</text><text fill="#000000" font-family="sans-serif" font-size="14" lengthAdjust="spacing" textLength="65.4336" x="925.3403" y="354.6839">RMVBFile</text><line style="stroke:#181818;stroke-width:0.5;" x1="770" x2="1113.6143" y1="362.9856" y2="362.9856"/><line style="stroke:#181818;stroke-width:0.5;" x1="770" x2="1113.6143" y1="370.9856" y2="370.9856"/><ellipse cx="780" cy="384.6341" fill="#84BE84" rx="3" ry="3" style="stroke:#038048;stroke-width:1;"/><text fill="#000000" font-family="sans-serif" font-size="14" lengthAdjust="spacing" textLength="319.6143" x="789" y="387.9807">decode(String osType, String fileName) : void</text></g><!--class WMVFile--><g class="entity" data-entity="WMVFile" data-source-line="42" data-uid="ent0016" id="entity_WMVFile"><rect fill="#F1F1F1" height="72.5625" rx="3.5" ry="3.5" style="stroke:#181818;stroke-width:0.5;" width="345.6143" x="1150" y="322.72"/><ellipse cx="1247.4409" cy="342.8528" fill="#ADD1B2" rx="11" ry="11" style="stroke:#181818;stroke-width:1;"/><path d="M1250.4097,348.4934 Q1249.8315,348.7903 1249.1909,348.9309 Q1248.5503,349.0872 1247.8472,349.0872 Q1245.3472,349.0872 1244.019,347.4466 Q1242.7065,345.7903 1242.7065,342.6653 Q1242.7065,339.5403 1244.019,337.8841 Q1245.3472,336.2278 1247.8472,336.2278 Q1248.5503,336.2278 1249.1909,336.3841 Q1249.8472,336.5403 1250.4097,336.8372 L1250.4097,339.5559 Q1249.7847,338.9778 1249.1909,338.7122 Q1248.5972,338.4309 1247.9722,338.4309 Q1246.6284,338.4309 1245.9409,339.5091 Q1245.2534,340.5716 1245.2534,342.6653 Q1245.2534,344.7591 1245.9409,345.8372 Q1246.6284,346.8997 1247.9722,346.8997 Q1248.5972,346.8997 1249.1909,346.6341 Q1249.7847,346.3528 1250.4097,345.7747 L1250.4097,348.4934 Z " fill="#000000"/><text fill="#000000" font-family="sans-serif" font-size="12" font-style="italic" lengthAdjust="spacing" textLength="146.2324" x="1265.9409" y="338.8587">&#171;ConcreteImplementor&#187;</text><text fill="#000000" font-family="sans-serif" font-size="14" lengthAdjust="spacing" textLength="59.9443" x="1309.085" y="354.6839">WMVFile</text><line style="stroke:#181818;stroke-width:0.5;" x1="1151" x2="1494.6143" y1="362.9856" y2="362.9856"/><line style="stroke:#181818;stroke-width:0.5;" x1="1151" x2="1494.6143" y1="370.9856" y2="370.9856"/><ellipse cx="1161" cy="384.6341" fill="#84BE84" rx="3" ry="3" style="stroke:#038048;stroke-width:1;"/><text fill="#000000" font-family="sans-serif" font-size="14" lengthAdjust="spacing" textLength="319.6143" x="1170" y="387.9807">decode(String osType, String fileName) : void</text></g><!--reverse link OperatingSystemVersion to WindowsVersion--><g class="link" data-entity-1="OperatingSystemVersion" data-entity-2="WindowsVersion" data-source-line="18" data-uid="lnk5" id="link_OperatingSystemVersion_WindowsVersion"><path d="M1143.5968,126.6499 C1124.3468,151.4999 1112.79,166.4 1095.48,188.73" fill="none" id="OperatingSystemVersion-backto-WindowsVersion" style="stroke:#191919;stroke-width:1;"/><polygon fill="none" points="1154.62,112.42,1138.8535,122.9755,1148.3401,130.3243,1154.62,112.42" style="stroke:#191919;stroke-width:1;"/></g><!--reverse link OperatingSystemVersion to UnixVersion--><g class="link" data-entity-1="OperatingSystemVersion" data-entity-2="UnixVersion" data-source-line="22" data-uid="lnk7" id="link_OperatingSystemVersion_UnixVersion"><path d="M1246.0167,126.6471 C1265.2767,151.4971 1276.83,166.4 1294.13,188.73" fill="none" id="OperatingSystemVersion-backto-UnixVersion" style="stroke:#191919;stroke-width:1;"/><polygon fill="none" points="1234.99,112.42,1241.2744,130.3227,1250.7591,122.9715,1234.99,112.42" style="stroke:#191919;stroke-width:1;"/></g><!--reverse link OperatingSystemVersion to LinuxVersion--><g class="link" data-entity-1="OperatingSystemVersion" data-entity-2="LinuxVersion" data-source-line="26" data-uid="lnk9" id="link_OperatingSystemVersion_LinuxVersion"><path d="M1332.4161,119.7603 C1390.0461,144.5403 1440.97,166.45 1492.72,188.7" fill="none" id="OperatingSystemVersion-backto-LinuxVersion" style="stroke:#191919;stroke-width:1;"/><polygon fill="none" points="1315.88,112.65,1330.046,125.2723,1334.7862,114.2482,1315.88,112.65" style="stroke:#191919;stroke-width:1;"/></g><!--reverse link VideoFile to MPEGFile--><g class="link" data-entity-1="VideoFile" data-entity-2="MPEGFile" data-source-line="31" data-uid="lnk11" id="link_VideoFile_MPEGFile"><path d="M577.9895,266.251 C497.0795,284.891 415.96,303.59 335.05,322.23" fill="none" id="VideoFile-backto-MPEGFile" style="stroke:#191919;stroke-width:1;stroke-dasharray:7.0,7.0;"/><polygon fill="none" points="595.53,262.21,576.6425,260.4041,579.3365,272.0978,595.53,262.21" style="stroke:#191919;stroke-width:1;"/></g><!--reverse link VideoFile to AVIFile--><g class="link" data-entity-1="VideoFile" data-entity-2="AVIFile" data-source-line="35" data-uid="lnk13" id="link_VideoFile_AVIFile"><path d="M684.3413,272.4569 C657.4213,291.0969 639.39,303.59 612.46,322.23" fill="none" id="VideoFile-backto-AVIFile" style="stroke:#191919;stroke-width:1;stroke-dasharray:7.0,7.0;"/><polygon fill="none" points="699.14,262.21,680.9257,267.524,687.757,277.3898,699.14,262.21" style="stroke:#191919;stroke-width:1;"/></g><!--reverse link VideoFile to RMVBFile--><g class="link" data-entity-1="VideoFile" data-entity-2="RMVBFile" data-source-line="39" data-uid="lnk15" id="link_VideoFile_RMVBFile"><path d="M817.5735,272.421 C844.6335,291.061 862.82,303.59 889.88,322.23" fill="none" id="VideoFile-backto-RMVBFile" style="stroke:#191919;stroke-width:1;stroke-dasharray:7.0,7.0;"/><polygon fill="none" points="802.75,262.21,814.1698,277.3622,820.9771,267.4798,802.75,262.21" style="stroke:#191919;stroke-width:1;"/></g><!--reverse link VideoFile to WMVFile--><g class="link" data-entity-1="VideoFile" data-entity-2="WMVFile" data-source-line="43" data-uid="lnk17" id="link_VideoFile_WMVFile"><path d="M923.8921,266.2444 C1004.9421,284.8844 1086.25,303.59 1167.29,322.23" fill="none" id="VideoFile-backto-WMVFile" style="stroke:#191919;stroke-width:1;stroke-dasharray:7.0,7.0;"/><polygon fill="none" points="906.35,262.21,922.5473,272.0917,925.2368,260.397,906.35,262.21" style="stroke:#191919;stroke-width:1;"/></g><!--reverse link OperatingSystemVersion to VideoFile--><g class="link" data-entity-1="OperatingSystemVersion" data-entity-2="VideoFile" data-source-line="47" data-uid="lnk18" id="link_OperatingSystemVersion_VideoFile"><path codeLine="47" d="M1059.5724,110.4852 C989.0224,136.5252 913.19,164.51 847.68,188.68" fill="none" id="OperatingSystemVersion-backto-VideoFile" style="stroke:#191919;stroke-width:1;"/><polygon fill="none" points="1070.83,106.33,1063.8161,104.6551,1059.5724,110.4852,1066.5862,112.1601,1070.83,106.33" style="stroke:#191919;stroke-width:1;"/><text fill="#000000" font-family="sans-serif" font-size="13" lengthAdjust="spacing" textLength="12.27" x="973.81" y="155.2169">vf</text></g><!--SRC=[lPFBQi9058RtUOgHBcgnla0HmOeLGMrH6zTfSj8E93CXCxMAkEmLMYb2Lq9lb6ww4Q5THDz64_iM7I_nih25BfBLpEHFliDtpeJu2PY0JCLcKaW37HD0XLIobCYdioca6WfZahI9t9l-gFFiTHn9EMBSLbG-VOVsBR0LZibniSOuc3BO35E2Oh74B2TsyJYgIqWy6wYYenqaOmte7ZPWSXX13FZyA3nVYUoM25SercQvkizk8CjGQk4YjmKOwIASLqoOfnlZYaVl5zylz-x3vS3vTE_UXirN2HCEjgweiAX059enBKCe89pQyq8ZI0ELQk0ZA2lLBDX6lnA7vr-3VijjtGxwRQ_hUCwZTttbjZ_6rgQoofXez8mj91KcmhLLLr3bGBIrQlqA_r8mHHuIN0sIbyNaD22WRtobqq-zOQ-vC9uxIALdVKvIejh0ORNVsD-nfQ7uzn1CeGavC_bDeD12JjuDdbhEoK52notlYhibhHaT6eqkOSHt-Wy0]--></g></svg>