
<svg xmlns="http://www.w3.org/2000/svg" xmlns:xlink="http://www.w3.org/1999/xlink" contentStyleType="text/css" data-diagram-type="CLASS" height="540px" preserveAspectRatio="none" style="width:980px;height:540px;background:#F9F9F9;" version="1.1" viewBox="0 0 980 540" width="980px" zoomAndPan="magnify"><defs/><g><rect fill="#F9F9F9" height="540" style="stroke:none;stroke-width:1;" width="980" x="0" y="0"/><!--class Client--><g class="entity" data-entity="Client" data-source-line="4" data-uid="ent0002" id="entity_Client"><rect fill="#F1F1F1" height="64.2969" rx="3.5" ry="3.5" style="stroke:#181818;stroke-width:0.5;" width="115.1475" x="431.93" y="7"/><ellipse cx="466.1077" cy="23" fill="#ADD1B2" rx="11" ry="11" style="stroke:#181818;stroke-width:1;"/><path d="M469.0765,28.6406 Q468.4984,28.9375 467.8577,29.0781 Q467.2171,29.2344 466.514,29.2344 Q464.014,29.2344 462.6859,27.5938 Q461.3734,25.9375 461.3734,22.8125 Q461.3734,19.6875 462.6859,18.0313 Q464.014,16.375 466.514,16.375 Q467.2171,16.375 467.8577,16.5313 Q468.514,16.6875 469.0765,16.9844 L469.0765,19.7031 Q468.4515,19.125 467.8577,18.8594 Q467.264,18.5781 466.639,18.5781 Q465.2952,18.5781 464.6077,19.6563 Q463.9202,20.7188 463.9202,22.8125 Q463.9202,24.9063 464.6077,25.9844 Q465.2952,27.0469 466.639,27.0469 Q467.264,27.0469 467.8577,26.7813 Q468.4515,26.5 469.0765,25.9219 L469.0765,28.6406 Z " fill="#000000"/><text fill="#000000" font-family="sans-serif" font-size="14" lengthAdjust="spacing" textLength="40.5303" x="484.3695" y="27.8467">Client</text><line style="stroke:#181818;stroke-width:0.5;" x1="432.93" x2="546.0775" y1="39" y2="39"/><line style="stroke:#181818;stroke-width:0.5;" x1="432.93" x2="546.0775" y1="47" y2="47"/><ellipse cx="442.93" cy="60.6484" fill="#84BE84" rx="3" ry="3" style="stroke:#038048;stroke-width:1;"/><text fill="#000000" font-family="sans-serif" font-size="14" lengthAdjust="spacing" textLength="89.1475" x="451.93" y="63.9951">main() : void</text></g><!--class Component--><g class="entity" data-entity="Component" data-source-line="9" data-uid="ent0003" id="entity_Component"><rect fill="#F1F1F1" height="162.0781" rx="3.5" ry="3.5" style="stroke:#181818;stroke-width:0.5;" width="307.7363" x="335.63" y="148.3"/><ellipse cx="444.6085" cy="164.3" fill="#A9DCDF" rx="11" ry="11" style="stroke:#181818;stroke-width:1;"/><path d="M444.7179,159.6437 L443.5616,164.7219 L445.8898,164.7219 L444.7179,159.6437 Z M443.2335,157.4094 L446.2179,157.4094 L449.5773,169.8 L447.1241,169.8 L446.3585,166.7375 L443.0773,166.7375 L442.3273,169.8 L439.8898,169.8 L443.2335,157.4094 Z " fill="#000000"/><text fill="#000000" font-family="sans-serif" font-size="14" font-style="italic" lengthAdjust="spacing" textLength="81.2793" x="465.1085" y="169.1467">Component</text><line style="stroke:#181818;stroke-width:0.5;" x1="336.63" x2="642.3663" y1="180.3" y2="180.3"/><polygon fill="none" points="346.63,188.9484,350.63,192.9484,346.63,196.9484,342.63,192.9484" style="stroke:#B38D22;stroke-width:1;"/><text fill="#000000" font-family="sans-serif" font-size="14" lengthAdjust="spacing" textLength="95.1016" x="355.63" y="197.2951">name : String</text><line style="stroke:#181818;stroke-width:0.5;" x1="336.63" x2="642.3663" y1="204.5969" y2="204.5969"/><ellipse cx="346.63" cy="218.2453" fill="#84BE84" rx="3" ry="3" style="stroke:#038048;stroke-width:1;"/><text fill="#000000" font-family="sans-serif" font-size="14" lengthAdjust="spacing" textLength="187.3047" x="355.63" y="221.592">Component(name : String)</text><ellipse cx="346.63" cy="234.5422" fill="#84BE84" rx="3" ry="3" style="stroke:#038048;stroke-width:1;"/><text fill="#000000" font-family="sans-serif" font-size="14" lengthAdjust="spacing" textLength="130.6143" x="355.63" y="237.8889">getName() : String</text><ellipse cx="346.63" cy="250.8391" fill="#84BE84" rx="3" ry="3" style="stroke:#038048;stroke-width:1;"/><text fill="#000000" font-family="sans-serif" font-size="14" lengthAdjust="spacing" textLength="254.6182" x="355.63" y="254.1857">add(component : Component) : void</text><ellipse cx="346.63" cy="267.1359" fill="#84BE84" rx="3" ry="3" style="stroke:#038048;stroke-width:1;"/><text fill="#000000" font-family="sans-serif" font-size="14" lengthAdjust="spacing" textLength="281.7363" x="355.63" y="270.4826">remove(component : Component) : void</text><ellipse cx="346.63" cy="283.4328" fill="#84BE84" rx="3" ry="3" style="stroke:#038048;stroke-width:1;"/><text fill="#000000" font-family="sans-serif" font-size="14" lengthAdjust="spacing" textLength="234.541" x="355.63" y="286.7795">getChild(index : int) : Component</text><ellipse cx="346.63" cy="299.7297" fill="#84BE84" rx="3" ry="3" style="stroke:#038048;stroke-width:1;"/><text fill="#000000" font-family="sans-serif" font-size="14" lengthAdjust="spacing" textLength="121.3857" x="355.63" y="303.0764">operation() : void</text></g><!--class Leaf--><g class="entity" data-entity="Leaf" data-source-line="20" data-uid="ent0004" id="entity_Leaf"><rect fill="#F1F1F1" height="80.5938" rx="3.5" ry="3.5" style="stroke:#181818;stroke-width:0.5;" width="161.9463" x="560.53" y="419.97"/><ellipse cx="622.2927" cy="435.97" fill="#ADD1B2" rx="11" ry="11" style="stroke:#181818;stroke-width:1;"/><path d="M625.2614,441.6106 Q624.6833,441.9075 624.0427,442.0481 Q623.4021,442.2044 622.6989,442.2044 Q620.1989,442.2044 618.8708,440.5637 Q617.5583,438.9075 617.5583,435.7825 Q617.5583,432.6575 618.8708,431.0012 Q620.1989,429.345 622.6989,429.345 Q623.4021,429.345 624.0427,429.5012 Q624.6989,429.6575 625.2614,429.9544 L625.2614,432.6731 Q624.6364,432.095 624.0427,431.8294 Q623.4489,431.5481 622.8239,431.5481 Q621.4802,431.5481 620.7927,432.6262 Q620.1052,433.6887 620.1052,435.7825 Q620.1052,437.8762 620.7927,438.9544 Q621.4802,440.0169 622.8239,440.0169 Q623.4489,440.0169 624.0427,439.7512 Q624.6364,439.47 625.2614,438.8919 L625.2614,441.6106 Z " fill="#000000"/><text fill="#000000" font-family="sans-serif" font-size="14" lengthAdjust="spacing" textLength="29.9209" x="642.7927" y="440.8167">Leaf</text><line style="stroke:#181818;stroke-width:0.5;" x1="561.53" x2="721.4763" y1="451.97" y2="451.97"/><line style="stroke:#181818;stroke-width:0.5;" x1="561.53" x2="721.4763" y1="459.97" y2="459.97"/><ellipse cx="571.53" cy="473.6184" fill="#84BE84" rx="3" ry="3" style="stroke:#038048;stroke-width:1;"/><text fill="#000000" font-family="sans-serif" font-size="14" lengthAdjust="spacing" textLength="135.9463" x="580.53" y="476.9651">Leaf(name : String)</text><ellipse cx="571.53" cy="489.9153" fill="#84BE84" rx="3" ry="3" style="stroke:#038048;stroke-width:1;"/><text fill="#000000" font-family="sans-serif" font-size="14" lengthAdjust="spacing" textLength="121.3857" x="580.53" y="493.262">operation() : void</text></g><!--class Composite--><g class="entity" data-entity="Composite" data-source-line="26" data-uid="ent0005" id="entity_Composite"><rect fill="#F1F1F1" height="145.7813" rx="3.5" ry="3.5" style="stroke:#181818;stroke-width:0.5;" width="307.7363" x="217.63" y="387.38"/><ellipse cx="329.8898" cy="403.38" fill="#ADD1B2" rx="11" ry="11" style="stroke:#181818;stroke-width:1;"/><path d="M332.8585,409.0206 Q332.2804,409.3175 331.6398,409.4581 Q330.9991,409.6144 330.296,409.6144 Q327.796,409.6144 326.4679,407.9738 Q325.1554,406.3175 325.1554,403.1925 Q325.1554,400.0675 326.4679,398.4113 Q327.796,396.755 330.296,396.755 Q330.9991,396.755 331.6398,396.9113 Q332.296,397.0675 332.8585,397.3644 L332.8585,400.0831 Q332.2335,399.505 331.6398,399.2394 Q331.046,398.9581 330.421,398.9581 Q329.0773,398.9581 328.3898,400.0363 Q327.7023,401.0988 327.7023,403.1925 Q327.7023,405.2863 328.3898,406.3644 Q329.0773,407.4269 330.421,407.4269 Q331.046,407.4269 331.6398,407.1613 Q332.2335,406.88 332.8585,406.3019 L332.8585,409.0206 Z " fill="#000000"/><text fill="#000000" font-family="sans-serif" font-size="14" lengthAdjust="spacing" textLength="74.7168" x="350.3898" y="408.2267">Composite</text><line style="stroke:#181818;stroke-width:0.5;" x1="218.63" x2="524.3663" y1="419.38" y2="419.38"/><rect fill="none" height="6" style="stroke:#C82930;stroke-width:1;" width="6" x="225.63" y="430.0284"/><text fill="#000000" font-family="sans-serif" font-size="14" lengthAdjust="spacing" textLength="199.3086" x="237.63" y="436.3751">children : List&lt;Component&gt;</text><line style="stroke:#181818;stroke-width:0.5;" x1="218.63" x2="524.3663" y1="443.6769" y2="443.6769"/><ellipse cx="228.63" cy="457.3253" fill="#84BE84" rx="3" ry="3" style="stroke:#038048;stroke-width:1;"/><text fill="#000000" font-family="sans-serif" font-size="14" lengthAdjust="spacing" textLength="180.7422" x="237.63" y="460.672">Composite(name : String)</text><ellipse cx="228.63" cy="473.6222" fill="#84BE84" rx="3" ry="3" style="stroke:#038048;stroke-width:1;"/><text fill="#000000" font-family="sans-serif" font-size="14" lengthAdjust="spacing" textLength="254.6182" x="237.63" y="476.9689">add(component : Component) : void</text><ellipse cx="228.63" cy="489.9191" fill="#84BE84" rx="3" ry="3" style="stroke:#038048;stroke-width:1;"/><text fill="#000000" font-family="sans-serif" font-size="14" lengthAdjust="spacing" textLength="281.7363" x="237.63" y="493.2657">remove(component : Component) : void</text><ellipse cx="228.63" cy="506.2159" fill="#84BE84" rx="3" ry="3" style="stroke:#038048;stroke-width:1;"/><text fill="#000000" font-family="sans-serif" font-size="14" lengthAdjust="spacing" textLength="234.541" x="237.63" y="509.5626">getChild(index : int) : Component</text><ellipse cx="228.63" cy="522.5128" fill="#84BE84" rx="3" ry="3" style="stroke:#038048;stroke-width:1;"/><text fill="#000000" font-family="sans-serif" font-size="14" lengthAdjust="spacing" textLength="121.3857" x="237.63" y="525.8595">operation() : void</text></g><g class="entity" data-entity="GMN10" data-source-line="43" data-uid="ent0011" id="entity_GMN10"><path d="M757.5,443.64 L757.5,456.27 L722.88,460.27 L757.5,464.27 L757.5,476.9056 A3.5,3.5 0 0 0 761,480.4056 L970.0002,480.4056 A3.5,3.5 0 0 0 973.5002,476.9056 L973.5002,450.14 L963.5002,440.14 L761,440.14 A3.5,3.5 0 0 0 757.5,443.64" fill="#E5E5E5" style="stroke:#191919;stroke-width:1.5;"/><path d="M963.5002,440.14 L963.5002,448.39 A1.75,1.75 0 0 0 965.2502,450.14 L973.5002,450.14 L963.5002,440.14" fill="#E5E5E5" style="stroke:#191919;stroke-width:1.5;"/><text fill="#191919" font-family="sans-serif" font-size="13" lengthAdjust="spacing" textLength="195.0002" x="763.5" y="457.2069">&#21494;&#23376;&#33410;&#28857;&#21487;&#19981;&#23454;&#29616;&#23376;&#33410;&#28857;&#30456;&#20851;&#26041;&#27861;</text><text fill="#191919" font-family="sans-serif" font-size="13" lengthAdjust="spacing" textLength="130.0002" x="763.5" y="472.3397">&#36890;&#24120;&#25243;&#20986;&#24322;&#24120;&#25110;&#31354;&#23454;&#29616;</text></g><g class="entity" data-entity="GMN13" data-source-line="48" data-uid="ent0014" id="entity_GMN13"><path d="M6,436.07 L6,484.4684 A3.5,3.5 0 0 0 9.5,487.9684 L179.5002,487.9684 A3.5,3.5 0 0 0 183.0002,484.4684 L183.0002,464.27 L217.28,460.27 L183.0002,456.27 L183.0002,442.57 L173.0002,432.57 L9.5,432.57 A3.5,3.5 0 0 0 6,436.07" fill="#E5E5E5" style="stroke:#191919;stroke-width:1.5;"/><path d="M173.0002,432.57 L173.0002,440.82 A1.75,1.75 0 0 0 174.7502,442.57 L183.0002,442.57 L173.0002,432.57" fill="#E5E5E5" style="stroke:#191919;stroke-width:1.5;"/><text fill="#191919" font-family="sans-serif" font-size="13" lengthAdjust="spacing" textLength="104.0001" x="12" y="449.6369">&#23481;&#22120;&#33410;&#28857;&#21487;&#20197;&#21253;&#21547;</text><text fill="#191919" font-family="sans-serif" font-size="13" lengthAdjust="spacing" textLength="156.0002" x="12" y="464.7697">&#22810;&#20010;&#23376;&#33410;&#28857;&#65288;&#21494;&#23376;&#25110;&#23481;&#22120;&#65289;</text><text fill="#191919" font-family="sans-serif" font-size="13" lengthAdjust="spacing" textLength="143.0002" x="12" y="479.9025">&#23454;&#29616;&#25152;&#26377;&#23376;&#33410;&#28857;&#30456;&#20851;&#26041;&#27861;</text></g><g class="entity" data-entity="GMN16" data-source-line="54" data-uid="ent0017" id="entity_GMN16"><path d="M678.5,212.71 L678.5,225.34 L643.7,229.34 L678.5,233.34 L678.5,245.9756 A3.5,3.5 0 0 0 682,249.4756 L813.0001,249.4756 A3.5,3.5 0 0 0 816.5001,245.9756 L816.5001,219.21 L806.5001,209.21 L682,209.21 A3.5,3.5 0 0 0 678.5,212.71" fill="#E5E5E5" style="stroke:#191919;stroke-width:1.5;"/><path d="M806.5001,209.21 L806.5001,217.46 A1.75,1.75 0 0 0 808.2501,219.21 L816.5001,219.21 L806.5001,209.21" fill="#E5E5E5" style="stroke:#191919;stroke-width:1.5;"/><text fill="#191919" font-family="sans-serif" font-size="13" lengthAdjust="spacing" textLength="104.0001" x="684.5" y="226.2769">&#23450;&#20041;&#21494;&#23376;&#21644;&#23481;&#22120;&#30340;</text><text fill="#191919" font-family="sans-serif" font-size="13" lengthAdjust="spacing" textLength="117.0001" x="684.5" y="241.4097">&#20849;&#21516;&#25509;&#21475;&#21644;&#40664;&#35748;&#34892;&#20026;</text></g><!--link Client to Component--><g class="link" data-entity-1="Client" data-entity-2="Component" data-source-line="36" data-uid="lnk6" id="link_Client_Component"><path codeLine="36" d="M489.5,71.65 C489.5,92.58 489.5,115.06 489.5,142.01" fill="none" id="Client-to-Component" style="stroke:#191919;stroke-width:1;"/><polygon fill="#191919" points="489.5,148.01,493.5,139.01,489.5,143.01,485.5,139.01,489.5,148.01" style="stroke:#191919;stroke-width:1;"/><text fill="#000000" font-family="sans-serif" font-size="13" lengthAdjust="spacing" textLength="29.7832" x="490.5" y="114.3669">uses</text></g><!--reverse link Component to Leaf--><g class="link" data-entity-1="Component" data-entity-2="Leaf" data-source-line="37" data-uid="lnk7" id="link_Component_Leaf"><path codeLine="37" d="M552.8345,325.7269 C577.2945,362.5769 595.25,389.61 615.12,419.53" fill="none" id="Component-backto-Leaf" style="stroke:#191919;stroke-width:1;"/><polygon fill="none" points="542.88,310.73,547.8356,329.0451,557.8335,322.4087,542.88,310.73" style="stroke:#191919;stroke-width:1;"/><text fill="#000000" font-family="sans-serif" font-size="13" lengthAdjust="spacing" textLength="76.9082" x="571.5" y="353.4469">implements</text></g><!--reverse link Component to Composite--><g class="link" data-entity-1="Component" data-entity-2="Composite" data-source-line="38" data-uid="lnk8" id="link_Component_Composite"><path codeLine="38" d="M375.5319,324.887 C368.3719,334.177 373.15,329.86 368.5,340.38 C362.11,354.82 359.81,371.25 359.72,387.19" fill="none" id="Component-backto-Composite" style="stroke:#191919;stroke-width:1;"/><polygon fill="none" points="386.52,310.63,370.7795,321.2242,380.2842,328.5497,386.52,310.63" style="stroke:#191919;stroke-width:1;"/><text fill="#000000" font-family="sans-serif" font-size="13" lengthAdjust="spacing" textLength="76.9082" x="369.5" y="353.4469">implements</text></g><!--link Composite to Component--><g class="link" data-entity-1="Composite" data-entity-2="Component" data-source-line="39" data-uid="lnk9" id="link_Composite_Component"><path codeLine="39" d="M439.2323,377.2142 C445.8723,367.5642 445.29,367.41 450.5,357.38 C458.05,342.84 462.5277,332.2871 467.7777,316.3971" fill="none" id="Composite-Component" style="stroke:#191919;stroke-width:1;"/><polygon fill="none" points="432.43,387.1,439.1264,384.4245,439.2323,377.2142,432.5359,379.8897,432.43,387.1" style="stroke:#191919;stroke-width:1;"/><polygon fill="#191919" points="469.66,310.7,463.0385,317.9908,468.0914,315.4476,470.6346,320.5005,469.66,310.7" style="stroke:#191919;stroke-width:1;"/><text fill="#000000" font-family="sans-serif" font-size="13" lengthAdjust="spacing" textLength="55.0278" x="459.5" y="353.4469">contains</text></g><!--SRC=[pPFVQjim5CRlzHGQkrZAy0k4qflUbjti2JnRIGIs56or3BP12GrDGjQ4mSAMZaAt5hgLkYk1plcpjx7avAglCCaoSf9ciClvoZxdEz_lwEZu2QiX7q7V3a80da4UVHMjN-drBN0yEmpXheSHOV0DWF9vBcMObBPW6HvGx89tga9qVi_lpiNPKJAz1_Qha0Msms1UJVqw9ON1KqXi2Il3bop0f9gR6bLf9RkLfwk8lP3n3BjIPxjkoJ64Sk5Z6jIw0Fdq0FsJLB9sQzXpIvYuwBNCOIqn-bn7woYm6QRhm-2zUtxJpuUXPx27x8gPd_hOVCg_EaPZ_lbgnJ5h9iGCvROMT5JF0IAoSW-7RDkqkxCyObMo6Vu_Jh8vIaTJ7WsJSHlaMsXPEqihLORx8Gf14TX-Qrbwt9BcrpsvruGz4XJJUwpAmdGTur32vDvd_uSONIsEEu1GAGnmjSOWhMHCUHnz-VDE8ssCUUysYT_pw2mz-Mc2wMaiZoK6Op7wAFMBmo6FOz4vvSSJFckezzOW_JxHLG0H5oeEq3GFLJAOQLGHi-KeYDDBtcto_hLANGoJ-8T1FynQ-Mws1hhgOTRE71HBj0_5b_RcFjVQC8TUlaXzJHh0FtGr81qUgLJpZlUxukIIzxx9r6BwQHvTpC-xIJmnrdy0]--></g></svg>