
<svg xmlns="http://www.w3.org/2000/svg" xmlns:xlink="http://www.w3.org/1999/xlink" contentStyleType="text/css" data-diagram-type="CLASS" height="410px" preserveAspectRatio="none" style="width:431px;height:410px;background:transparent;" version="1.1" viewBox="0 0 431 410" width="431px" zoomAndPan="magnify"><defs/><g><!--class ConcreteComponent--><g class="entity" data-entity="ConcreteComponent" data-source-line="2" data-uid="ent0002" id="entity_ConcreteComponent"><rect fill="#F1F1F1" height="64.2969" rx="2.5" ry="2.5" style="stroke:#181818;stroke-width:0.5;" width="176.6621" x="127.33" y="7"/><ellipse cx="142.33" cy="23" fill="#ADD1B2" rx="11" ry="11" style="stroke:#181818;stroke-width:1;"/><path d="M145.2987,28.6406 Q144.7206,28.9375 144.08,29.0781 Q143.4394,29.2344 142.7362,29.2344 Q140.2362,29.2344 138.9081,27.5938 Q137.5956,25.9375 137.5956,22.8125 Q137.5956,19.6875 138.9081,18.0313 Q140.2362,16.375 142.7362,16.375 Q143.4394,16.375 144.08,16.5313 Q144.7362,16.6875 145.2987,16.9844 L145.2987,19.7031 Q144.6737,19.125 144.08,18.8594 Q143.4862,18.5781 142.8612,18.5781 Q141.5175,18.5781 140.83,19.6563 Q140.1425,20.7188 140.1425,22.8125 Q140.1425,24.9063 140.83,25.9844 Q141.5175,27.0469 142.8612,27.0469 Q143.4862,27.0469 144.08,26.7813 Q144.6737,26.5 145.2987,25.9219 L145.2987,28.6406 Z " fill="#000000"/><text fill="#000000" font-family="sans-serif" font-size="14" lengthAdjust="spacing" textLength="144.6621" x="156.33" y="27.8467">ConcreteComponent</text><line style="stroke:#181818;stroke-width:0.5;" x1="128.33" x2="302.9921" y1="39" y2="39"/><line style="stroke:#181818;stroke-width:0.5;" x1="128.33" x2="302.9921" y1="47" y2="47"/><ellipse cx="138.33" cy="60.6484" fill="#84BE84" rx="3" ry="3" style="stroke:#038048;stroke-width:1;"/><text fill="#000000" font-family="sans-serif" font-size="14" lengthAdjust="spacing" textLength="116.9355" x="147.33" y="63.9951">operation(): void</text></g><!--class Decorator--><g class="entity" data-entity="Decorator" data-source-line="7" data-uid="ent0003" id="entity_Decorator"><rect fill="#F1F1F1" height="96.8906" rx="2.5" ry="2.5" style="stroke:#181818;stroke-width:0.5;" width="276.373" x="77.47" y="148.3"/><ellipse cx="176.5056" cy="164.3" fill="#A9DCDF" rx="11" ry="11" style="stroke:#181818;stroke-width:1;"/><path d="M176.615,159.6437 L175.4588,164.7219 L177.7869,164.7219 L176.615,159.6437 Z M175.1306,157.4094 L178.115,157.4094 L181.4744,169.8 L179.0213,169.8 L178.2556,166.7375 L174.9744,166.7375 L174.2244,169.8 L171.7869,169.8 L175.1306,157.4094 Z " fill="#000000"/><text fill="#000000" font-family="sans-serif" font-size="14" font-style="italic" lengthAdjust="spacing" textLength="69.8018" x="197.0056" y="169.1467">Decorator</text><line style="stroke:#181818;stroke-width:0.5;" x1="78.47" x2="352.843" y1="180.3" y2="180.3"/><rect fill="none" height="6" style="stroke:#C82930;stroke-width:1;" width="6" x="85.47" y="190.9484"/><text fill="#000000" font-family="sans-serif" font-size="14" lengthAdjust="spacing" textLength="169.6475" x="97.47" y="197.2951">component: Component</text><line style="stroke:#181818;stroke-width:0.5;" x1="78.47" x2="352.843" y1="204.5969" y2="204.5969"/><ellipse cx="88.47" cy="218.2453" fill="#84BE84" rx="3" ry="3" style="stroke:#038048;stroke-width:1;"/><text fill="#000000" font-family="sans-serif" font-size="14" lengthAdjust="spacing" textLength="250.373" x="97.47" y="221.592">Decorator(component: Component)</text><ellipse cx="88.47" cy="234.5422" fill="#84BE84" rx="3" ry="3" style="stroke:#038048;stroke-width:1;"/><text fill="#000000" font-family="sans-serif" font-size="14" lengthAdjust="spacing" textLength="116.9355" x="97.47" y="237.8889">operation(): void</text></g><!--class ConcreteDecoratorA--><g class="entity" data-entity="ConcreteDecoratorA" data-source-line="14" data-uid="ent0004" id="entity_ConcreteDecoratorA"><rect fill="#F1F1F1" height="96.8906" rx="2.5" ry="2.5" style="stroke:#181818;stroke-width:0.5;" width="191.3135" x="7" y="306.19"/><ellipse cx="29.4483" cy="322.19" fill="#ADD1B2" rx="11" ry="11" style="stroke:#181818;stroke-width:1;"/><path d="M32.417,327.8306 Q31.8389,328.1275 31.1983,328.2681 Q30.5577,328.4244 29.8545,328.4244 Q27.3545,328.4244 26.0264,326.7838 Q24.7139,325.1275 24.7139,322.0025 Q24.7139,318.8775 26.0264,317.2213 Q27.3545,315.565 29.8545,315.565 Q30.5577,315.565 31.1983,315.7213 Q31.8545,315.8775 32.417,316.1744 L32.417,318.8931 Q31.792,318.315 31.1983,318.0494 Q30.6045,317.7681 29.9795,317.7681 Q28.6358,317.7681 27.9483,318.8463 Q27.2608,319.9088 27.2608,322.0025 Q27.2608,324.0963 27.9483,325.1744 Q28.6358,326.2369 29.9795,326.2369 Q30.6045,326.2369 31.1983,325.9713 Q31.792,325.69 32.417,325.1119 L32.417,327.8306 Z " fill="#000000"/><text fill="#000000" font-family="sans-serif" font-size="14" lengthAdjust="spacing" textLength="142.7617" x="45.1035" y="327.0367">ConcreteDecoratorA</text><line style="stroke:#181818;stroke-width:0.5;" x1="8" x2="197.3135" y1="338.19" y2="338.19"/><ellipse cx="18" cy="351.8384" fill="none" rx="3" ry="3" style="stroke:#038048;stroke-width:1;"/><text fill="#000000" font-family="sans-serif" font-size="14" lengthAdjust="spacing" textLength="146.0498" x="27" y="355.1851">addedState: boolean</text><line style="stroke:#181818;stroke-width:0.5;" x1="8" x2="197.3135" y1="362.4869" y2="362.4869"/><ellipse cx="18" cy="376.1353" fill="#84BE84" rx="3" ry="3" style="stroke:#038048;stroke-width:1;"/><text fill="#000000" font-family="sans-serif" font-size="14" lengthAdjust="spacing" textLength="116.9355" x="27" y="379.482">operation(): void</text><rect fill="#F24D5C" height="6" style="stroke:#C82930;stroke-width:1;" width="6" x="15" y="389.4322"/><text fill="#000000" font-family="sans-serif" font-size="14" lengthAdjust="spacing" textLength="165.3135" x="27" y="395.7789">addedBehaviorA(): void</text></g><!--class ConcreteDecoratorB--><g class="entity" data-entity="ConcreteDecoratorB" data-source-line="21" data-uid="ent0005" id="entity_ConcreteDecoratorB"><rect fill="#F1F1F1" height="80.5938" rx="2.5" ry="2.5" style="stroke:#181818;stroke-width:0.5;" width="191.3408" x="232.99" y="314.34"/><ellipse cx="255.4383" cy="330.34" fill="#ADD1B2" rx="11" ry="11" style="stroke:#181818;stroke-width:1;"/><path d="M258.407,335.9806 Q257.8289,336.2775 257.1883,336.4181 Q256.5477,336.5744 255.8445,336.5744 Q253.3445,336.5744 252.0164,334.9338 Q250.7039,333.2775 250.7039,330.1525 Q250.7039,327.0275 252.0164,325.3713 Q253.3445,323.715 255.8445,323.715 Q256.5477,323.715 257.1883,323.8713 Q257.8445,324.0275 258.407,324.3244 L258.407,327.0431 Q257.782,326.465 257.1883,326.1994 Q256.5945,325.9181 255.9695,325.9181 Q254.6258,325.9181 253.9383,326.9963 Q253.2508,328.0588 253.2508,330.1525 Q253.2508,332.2463 253.9383,333.3244 Q254.6258,334.3869 255.9695,334.3869 Q256.5945,334.3869 257.1883,334.1213 Q257.782,333.84 258.407,333.2619 L258.407,335.9806 Z " fill="#000000"/><text fill="#000000" font-family="sans-serif" font-size="14" lengthAdjust="spacing" textLength="142.7891" x="271.0935" y="335.1867">ConcreteDecoratorB</text><line style="stroke:#181818;stroke-width:0.5;" x1="233.99" x2="423.3308" y1="346.34" y2="346.34"/><line style="stroke:#181818;stroke-width:0.5;" x1="233.99" x2="423.3308" y1="354.34" y2="354.34"/><ellipse cx="243.99" cy="367.9884" fill="#84BE84" rx="3" ry="3" style="stroke:#038048;stroke-width:1;"/><text fill="#000000" font-family="sans-serif" font-size="14" lengthAdjust="spacing" textLength="116.9355" x="252.99" y="371.3351">operation(): void</text><rect fill="#F24D5C" height="6" style="stroke:#C82930;stroke-width:1;" width="6" x="240.99" y="381.2853"/><text fill="#000000" font-family="sans-serif" font-size="14" lengthAdjust="spacing" textLength="165.3408" x="252.99" y="387.632">addedBehaviorB(): void</text></g><!--reverse link ConcreteComponent to Decorator--><g class="link" data-entity-1="ConcreteComponent" data-entity-2="Decorator" data-source-line="27" data-uid="lnk6" id="link_ConcreteComponent_Decorator"><path codeLine="27" d="M184.4755,87.3947 C179.2455,96.5147 183.36,91.13 180.66,101.3 C176.52,116.85 179.88,133.42 185.88,148.27" fill="none" id="ConcreteComponent-backto-Decorator" style="stroke:#181818;stroke-width:1;"/><polygon fill="none" points="193.43,71.78,179.2707,84.4098,189.6804,90.3795,193.43,71.78" style="stroke:#181818;stroke-width:1;"/><text fill="#000000" font-family="sans-serif" font-size="13" lengthAdjust="spacing" textLength="23.042" x="181.66" y="114.3669">is-a</text></g><!--link Decorator to ConcreteComponent--><g class="link" data-entity-1="Decorator" data-entity-2="ConcreteComponent" data-source-line="30" data-uid="lnk9" id="link_Decorator_ConcreteComponent"><path codeLine="30" d="M215.66,136.05 C215.66,111.22 215.66,99.57 215.66,77.64" fill="none" id="Decorator-ConcreteComponent" style="stroke:#181818;stroke-width:1;"/><polygon fill="none" points="215.66,148.05,219.66,142.05,215.66,136.05,211.66,142.05,215.66,148.05" style="stroke:#181818;stroke-width:1;"/><polygon fill="#181818" points="215.66,71.64,211.66,80.64,215.66,76.64,219.66,80.64,215.66,71.64" style="stroke:#181818;stroke-width:1;"/><text fill="#000000" font-family="sans-serif" font-size="13" lengthAdjust="spacing" textLength="73.8994" x="216.66" y="114.3669">aggregates</text></g><!--reverse link Decorator to ConcreteDecoratorA--><g class="link" data-entity-1="Decorator" data-entity-2="ConcreteDecoratorA" data-source-line="28" data-uid="lnk7" id="link_Decorator_ConcreteDecoratorA"><path codeLine="28" d="M170.5787,259.936 C156.6887,279.106 151.26,286.58 137.35,305.77" fill="none" id="Decorator-backto-ConcreteDecoratorA" style="stroke:#181818;stroke-width:1;"/><polygon fill="none" points="181.14,245.36,165.72,256.4155,175.4374,263.4564,181.14,245.36" style="stroke:#181818;stroke-width:1;"/></g><!--reverse link Decorator to ConcreteDecoratorB--><g class="link" data-entity-1="Decorator" data-entity-2="ConcreteDecoratorB" data-source-line="29" data-uid="lnk8" id="link_Decorator_ConcreteDecoratorB"><path codeLine="29" d="M260.7369,259.9319 C276.6469,281.8719 284.73,293.04 299.86,313.91" fill="none" id="Decorator-backto-ConcreteDecoratorB" style="stroke:#181818;stroke-width:1;"/><polygon fill="none" points="250.17,245.36,255.8796,263.4542,265.5942,256.4096,250.17,245.36" style="stroke:#181818;stroke-width:1;"/></g><!--SRC=[KrTushhzoTx9p-QrFDczZIiv9x6uMC4vFo-vABKarJa_jo0_BpMlHA6QIm48j1No2rAB4aioy_CqDAqKol8pKxXgkRZK5LuiRdsvTCFJcIkUpj_rVEDkhiIaufAYnEGI1OXvBgd9-K1j-KLGStGLac4cMod0BO5Q0LUiWKsH9dw7G3m3TuuZceVWPZl2VPIOafAQ4boIM99gfP2Kdv-JcfY7qmg8sy4wd58p4iioWGRXjTy9b_rEU48KYorEoBPmOKQFJOskBb8eMoba5kicSY44mFAOWK1GXHEIYdnTNJiiASDA8J4zlIWr7HY0nG00]--></g></svg>