
<svg xmlns="http://www.w3.org/2000/svg" xmlns:xlink="http://www.w3.org/1999/xlink" contentStyleType="text/css" data-diagram-type="CLASS" height="410px" preserveAspectRatio="none" style="width:709px;height:410px;background:transparent;" version="1.1" viewBox="0 0 709 410" width="709px" zoomAndPan="magnify"><defs/><g><rect fill="transparent" height="410" style="stroke:none;stroke-width:1;" width="709" x="0" y="0"/><!--class Cipher--><g class="entity" data-entity="Cipher" data-source-line="4" data-uid="ent0002" id="entity_Cipher"><rect fill="#F1F1F1" height="64.2969" rx="3.5" ry="3.5" style="stroke:#181818;stroke-width:0.5;" width="257.2119" x="181" y="7"/><ellipse cx="282.459" cy="23" fill="#B4A7E5" rx="11" ry="11" style="stroke:#181818;stroke-width:1;"/><path d="M278.3809,18.7656 L278.3809,16.6094 L285.7715,16.6094 L285.7715,18.7656 L283.3027,18.7656 L283.3027,26.8438 L285.7715,26.8438 L285.7715,29 L278.3809,29 L278.3809,26.8438 L280.8496,26.8438 L280.8496,18.7656 L278.3809,18.7656 Z " fill="#000000"/><text fill="#000000" font-family="sans-serif" font-size="14" font-style="italic" lengthAdjust="spacing" textLength="45.7939" x="302.959" y="27.8467">Cipher</text><line style="stroke:#181818;stroke-width:0.5;" x1="182" x2="437.2119" y1="39" y2="39"/><line style="stroke:#181818;stroke-width:0.5;" x1="182" x2="437.2119" y1="47" y2="47"/><ellipse cx="192" cy="60.6484" fill="#84BE84" rx="3" ry="3" style="stroke:#038048;stroke-width:1;"/><text fill="#000000" font-family="sans-serif" font-size="14" lengthAdjust="spacing" textLength="231.2119" x="201" y="63.9951">encrypt(String plainText) : String</text></g><!--class SimpleCipher--><g class="entity" data-entity="SimpleCipher" data-source-line="9" data-uid="ent0003" id="entity_SimpleCipher"><rect fill="#F1F1F1" height="64.2969" rx="3.5" ry="3.5" style="stroke:#181818;stroke-width:0.5;" width="257.2119" x="7" y="164.6"/><ellipse cx="84.5571" cy="180.6" fill="#ADD1B2" rx="11" ry="11" style="stroke:#181818;stroke-width:1;"/><path d="M87.5259,186.2406 Q86.9478,186.5375 86.3071,186.6781 Q85.6665,186.8344 84.9634,186.8344 Q82.4634,186.8344 81.1353,185.1938 Q79.8228,183.5375 79.8228,180.4125 Q79.8228,177.2875 81.1353,175.6313 Q82.4634,173.975 84.9634,173.975 Q85.6665,173.975 86.3071,174.1313 Q86.9634,174.2875 87.5259,174.5844 L87.5259,177.3031 Q86.9009,176.725 86.3071,176.4594 Q85.7134,176.1781 85.0884,176.1781 Q83.7446,176.1781 83.0571,177.2563 Q82.3696,178.3188 82.3696,180.4125 Q82.3696,182.5063 83.0571,183.5844 Q83.7446,184.6469 85.0884,184.6469 Q85.7134,184.6469 86.3071,184.3813 Q86.9009,184.1 87.5259,183.5219 L87.5259,186.2406 Z " fill="#000000"/><text fill="#000000" font-family="sans-serif" font-size="14" lengthAdjust="spacing" textLength="93.5977" x="105.0571" y="185.4467">SimpleCipher</text><line style="stroke:#181818;stroke-width:0.5;" x1="8" x2="263.2119" y1="196.6" y2="196.6"/><line style="stroke:#181818;stroke-width:0.5;" x1="8" x2="263.2119" y1="204.6" y2="204.6"/><ellipse cx="18" cy="218.2484" fill="#84BE84" rx="3" ry="3" style="stroke:#038048;stroke-width:1;"/><text fill="#000000" font-family="sans-serif" font-size="14" lengthAdjust="spacing" textLength="231.2119" x="27" y="221.5951">encrypt(String plainText) : String</text></g><!--class CipherDecorator--><g class="entity" data-entity="CipherDecorator" data-source-line="14" data-uid="ent0004" id="entity_CipherDecorator"><rect fill="#F1F1F1" height="96.8906" rx="3.5" ry="3.5" style="stroke:#181818;stroke-width:0.5;" width="257.2119" x="299" y="148.3"/><ellipse cx="365.5581" cy="164.3" fill="#A9DCDF" rx="11" ry="11" style="stroke:#181818;stroke-width:1;"/><path d="M365.6675,159.6437 L364.5112,164.7219 L366.8394,164.7219 L365.6675,159.6437 Z M364.1831,157.4094 L367.1675,157.4094 L370.5269,169.8 L368.0737,169.8 L367.3081,166.7375 L364.0269,166.7375 L363.2769,169.8 L360.8394,169.8 L364.1831,157.4094 Z " fill="#000000"/><text fill="#000000" font-family="sans-serif" font-size="14" font-style="italic" lengthAdjust="spacing" textLength="115.5957" x="386.0581" y="169.1467">CipherDecorator</text><line style="stroke:#181818;stroke-width:0.5;" x1="300" x2="555.2119" y1="180.3" y2="180.3"/><rect fill="none" height="6" style="stroke:#C82930;stroke-width:1;" width="6" x="307" y="190.9484"/><text fill="#000000" font-family="sans-serif" font-size="14" lengthAdjust="spacing" textLength="103.127" x="319" y="197.2951">cipher : Cipher</text><line style="stroke:#181818;stroke-width:0.5;" x1="300" x2="555.2119" y1="204.5969" y2="204.5969"/><ellipse cx="310" cy="218.2453" fill="#84BE84" rx="3" ry="3" style="stroke:#038048;stroke-width:1;"/><text fill="#000000" font-family="sans-serif" font-size="14" lengthAdjust="spacing" textLength="220.4795" x="319" y="221.592">CipherDecorator(Cipher cipher)</text><ellipse cx="310" cy="234.5422" fill="#84BE84" rx="3" ry="3" style="stroke:#038048;stroke-width:1;"/><text fill="#000000" font-family="sans-serif" font-size="14" lengthAdjust="spacing" textLength="231.2119" x="319" y="237.8889">encrypt(String plainText) : String</text></g><!--class ComplexCipher--><g class="entity" data-entity="ComplexCipher" data-source-line="21" data-uid="ent0005" id="entity_ComplexCipher"><rect fill="#F1F1F1" height="96.8906" rx="3.5" ry="3.5" style="stroke:#181818;stroke-width:0.5;" width="257.2119" x="153" y="306.19"/><ellipse cx="223.6323" cy="322.19" fill="#ADD1B2" rx="11" ry="11" style="stroke:#181818;stroke-width:1;"/><path d="M226.6011,327.8306 Q226.0229,328.1275 225.3823,328.2681 Q224.7417,328.4244 224.0386,328.4244 Q221.5386,328.4244 220.2104,326.7838 Q218.8979,325.1275 218.8979,322.0025 Q218.8979,318.8775 220.2104,317.2213 Q221.5386,315.565 224.0386,315.565 Q224.7417,315.565 225.3823,315.7213 Q226.0386,315.8775 226.6011,316.1744 L226.6011,318.8931 Q225.9761,318.315 225.3823,318.0494 Q224.7886,317.7681 224.1636,317.7681 Q222.8198,317.7681 222.1323,318.8463 Q221.4448,319.9088 221.4448,322.0025 Q221.4448,324.0963 222.1323,325.1744 Q222.8198,326.2369 224.1636,326.2369 Q224.7886,326.2369 225.3823,325.9713 Q225.9761,325.69 226.6011,325.1119 L226.6011,327.8306 Z " fill="#000000"/><text fill="#000000" font-family="sans-serif" font-size="14" lengthAdjust="spacing" textLength="107.4473" x="244.1323" y="327.0367">ComplexCipher</text><line style="stroke:#181818;stroke-width:0.5;" x1="154" x2="409.2119" y1="338.19" y2="338.19"/><line style="stroke:#181818;stroke-width:0.5;" x1="154" x2="409.2119" y1="346.19" y2="346.19"/><ellipse cx="164" cy="359.8384" fill="#84BE84" rx="3" ry="3" style="stroke:#038048;stroke-width:1;"/><text fill="#000000" font-family="sans-serif" font-size="14" lengthAdjust="spacing" textLength="212.3311" x="173" y="363.1851">ComplexCipher(Cipher cipher)</text><ellipse cx="164" cy="376.1353" fill="#84BE84" rx="3" ry="3" style="stroke:#038048;stroke-width:1;"/><text fill="#000000" font-family="sans-serif" font-size="14" lengthAdjust="spacing" textLength="231.2119" x="173" y="379.482">encrypt(String plainText) : String</text><ellipse cx="164" cy="392.4322" fill="#84BE84" rx="3" ry="3" style="stroke:#038048;stroke-width:1;"/><text fill="#000000" font-family="sans-serif" font-size="14" lengthAdjust="spacing" textLength="193.3613" x="173" y="395.7789">reverse(String text) : String</text></g><!--class AdvancedCipher--><g class="entity" data-entity="AdvancedCipher" data-source-line="28" data-uid="ent0006" id="entity_AdvancedCipher"><rect fill="#F1F1F1" height="96.8906" rx="3.5" ry="3.5" style="stroke:#181818;stroke-width:0.5;" width="257.2119" x="445" y="306.19"/><ellipse cx="511.7598" cy="322.19" fill="#ADD1B2" rx="11" ry="11" style="stroke:#181818;stroke-width:1;"/><path d="M514.7285,327.8306 Q514.1504,328.1275 513.5098,328.2681 Q512.8691,328.4244 512.166,328.4244 Q509.666,328.4244 508.3379,326.7838 Q507.0254,325.1275 507.0254,322.0025 Q507.0254,318.8775 508.3379,317.2213 Q509.666,315.565 512.166,315.565 Q512.8691,315.565 513.5098,315.7213 Q514.166,315.8775 514.7285,316.1744 L514.7285,318.8931 Q514.1035,318.315 513.5098,318.0494 Q512.916,317.7681 512.291,317.7681 Q510.9473,317.7681 510.2598,318.8463 Q509.5723,319.9088 509.5723,322.0025 Q509.5723,324.0963 510.2598,325.1744 Q510.9473,326.2369 512.291,326.2369 Q512.916,326.2369 513.5098,325.9713 Q514.1035,325.69 514.7285,325.1119 L514.7285,327.8306 Z " fill="#000000"/><text fill="#000000" font-family="sans-serif" font-size="14" lengthAdjust="spacing" textLength="115.1924" x="532.2598" y="327.0367">AdvancedCipher</text><line style="stroke:#181818;stroke-width:0.5;" x1="446" x2="701.2119" y1="338.19" y2="338.19"/><line style="stroke:#181818;stroke-width:0.5;" x1="446" x2="701.2119" y1="346.19" y2="346.19"/><ellipse cx="456" cy="359.8384" fill="#84BE84" rx="3" ry="3" style="stroke:#038048;stroke-width:1;"/><text fill="#000000" font-family="sans-serif" font-size="14" lengthAdjust="spacing" textLength="220.0762" x="465" y="363.1851">AdvancedCipher(Cipher cipher)</text><ellipse cx="456" cy="376.1353" fill="#84BE84" rx="3" ry="3" style="stroke:#038048;stroke-width:1;"/><text fill="#000000" font-family="sans-serif" font-size="14" lengthAdjust="spacing" textLength="231.2119" x="465" y="379.482">encrypt(String plainText) : String</text><ellipse cx="456" cy="392.4322" fill="#84BE84" rx="3" ry="3" style="stroke:#038048;stroke-width:1;"/><text fill="#000000" font-family="sans-serif" font-size="14" lengthAdjust="spacing" textLength="171.5205" x="465" y="395.7789">mod(String text) : String</text></g><!--reverse link Cipher to SimpleCipher--><g class="link" data-entity-1="Cipher" data-entity-2="SimpleCipher" data-source-line="35" data-uid="lnk7" id="link_Cipher_SimpleCipher"><path codeLine="35" d="M260.9727,83.6391 C230.7927,110.6291 200.94,137.32 170.77,164.3" fill="none" id="Cipher-backto-SimpleCipher" style="stroke:#191919;stroke-width:1;stroke-dasharray:7.0,7.0;"/><polygon fill="none" points="274.39,71.64,256.9731,79.1666,264.9724,88.1115,274.39,71.64" style="stroke:#191919;stroke-width:1;"/></g><!--reverse link Cipher to CipherDecorator--><g class="link" data-entity-1="Cipher" data-entity-2="CipherDecorator" data-source-line="36" data-uid="lnk8" id="link_Cipher_CipherDecorator"><path codeLine="36" d="M298.5251,89.3356 C296.2451,104.3356 298.91,104.24 306.61,118.3 C312.77,129.57 321.35,139.44 331.13,148.01" fill="none" id="Cipher-backto-CipherDecorator" style="stroke:#191919;stroke-width:1;stroke-dasharray:7.0,7.0;"/><polygon fill="none" points="301.23,71.54,292.5932,88.434,304.4569,90.2372,301.23,71.54" style="stroke:#191919;stroke-width:1;"/><text fill="#000000" font-family="sans-serif" font-size="13" lengthAdjust="spacing" textLength="76.9082" x="307.61" y="114.3669">implements</text></g><!--link CipherDecorator to Cipher--><g class="link" data-entity-1="CipherDecorator" data-entity-2="Cipher" data-source-line="39" data-uid="lnk11" id="link_CipherDecorator_Cipher"><path codeLine="39" d="M409.1189,136.8211 C403.0289,121.0011 399.15,115.12 388.61,101.3 C380.19,90.27 374.0252,83.883 363.0552,75.203" fill="none" id="CipherDecorator-Cipher" style="stroke:#191919;stroke-width:1;"/><polygon fill="none" points="413.43,148.02,415.0074,140.9835,409.1189,136.8211,407.5415,143.8576,413.43,148.02" style="stroke:#191919;stroke-width:1;"/><polygon fill="#191919" points="358.35,71.48,362.9258,80.2013,362.271,74.5825,367.8899,73.9277,358.35,71.48" style="stroke:#191919;stroke-width:1;"/><text fill="#000000" font-family="sans-serif" font-size="13" lengthAdjust="spacing" textLength="40.5933" x="400.61" y="114.3669">cipher</text></g><!--reverse link CipherDecorator to ComplexCipher--><g class="link" data-entity-1="CipherDecorator" data-entity-2="ComplexCipher" data-source-line="37" data-uid="lnk9" id="link_CipherDecorator_ComplexCipher"><path codeLine="37" d="M370.707,258.4991 C352.757,277.6691 344.4,286.58 326.43,305.77" fill="none" id="CipherDecorator-backto-ComplexCipher" style="stroke:#191919;stroke-width:1;"/><polygon fill="none" points="383.01,245.36,366.3273,254.3982,375.0868,262.6001,383.01,245.36" style="stroke:#191919;stroke-width:1;"/></g><!--reverse link CipherDecorator to AdvancedCipher--><g class="link" data-entity-1="CipherDecorator" data-entity-2="AdvancedCipher" data-source-line="38" data-uid="lnk10" id="link_CipherDecorator_AdvancedCipher"><path codeLine="38" d="M484.503,258.4991 C502.453,277.6691 510.81,286.58 528.78,305.77" fill="none" id="CipherDecorator-backto-AdvancedCipher" style="stroke:#191919;stroke-width:1;"/><polygon fill="none" points="472.2,245.36,480.1232,262.6001,488.8827,254.3982,472.2,245.36" style="stroke:#191919;stroke-width:1;"/></g><!--SRC=[fPF1IWCn48RlUOhnP8ka3x0KGVGDwWl4x6WNThDB4ah5UhC7lNhIWo8YU19BGT6bRxFRrhVGDTd5116jEVxpC_FDdsHDzp51I9XKXAp3_6osdDpChqwA_0aeR4TP7oM9X4QvppXQ0Ou8V9mDGC7bOQPRFIqZSG1Pp2AnYqFTXW2CHewhjkNukPYTDsrxKPB5Q9lpc2dbI7zklxmTlzqzbXVtvVNhOf8tu3l8KybqAWdRKreohi5Cyyfs80LkvWVruWR3SxSifJ6tLugY8QvOqshreHE7epLvEEhA6COeSO1IOMtKlqBT2WTCS0mTLbTiO5tvdxH96lvCEbrCy_BXidWv9NPITzJfk2_jQy5_0G5yEXCKMX6_s1rH_vg-jNZn-9wKqitw1mKsYNS0]--></g></svg>