
<svg xmlns="http://www.w3.org/2000/svg" xmlns:xlink="http://www.w3.org/1999/xlink" contentStyleType="text/css" data-diagram-type="CLASS" height="410px" preserveAspectRatio="none" style="width:974px;height:410px;background:transparent;" version="1.1" viewBox="0 0 974 410" width="974px" zoomAndPan="magnify"><defs/><g><!--class Component--><g class="entity" data-entity="Component" data-source-line="2" data-uid="ent0002" id="entity_Component"><rect fill="#F1F1F1" height="64.2969" rx="2.5" ry="2.5" style="stroke:#181818;stroke-width:0.5;" width="142.9355" x="398.77" y="7"/><ellipse cx="427.1153" cy="23" fill="#A9DCDF" rx="11" ry="11" style="stroke:#181818;stroke-width:1;"/><path d="M427.2247,18.3438 L426.0684,23.4219 L428.3966,23.4219 L427.2247,18.3438 Z M425.7403,16.1094 L428.7247,16.1094 L432.0841,28.5 L429.6309,28.5 L428.8653,25.4375 L425.5841,25.4375 L424.8341,28.5 L422.3966,28.5 L425.7403,16.1094 Z " fill="#000000"/><text fill="#000000" font-family="sans-serif" font-size="14" font-style="italic" lengthAdjust="spacing" textLength="81.2793" x="444.0809" y="27.8467">Component</text><line style="stroke:#181818;stroke-width:0.5;" x1="399.77" x2="540.7055" y1="39" y2="39"/><line style="stroke:#181818;stroke-width:0.5;" x1="399.77" x2="540.7055" y1="47" y2="47"/><ellipse cx="409.77" cy="60.6484" fill="#84BE84" rx="3" ry="3" style="stroke:#038048;stroke-width:1;"/><text fill="#000000" font-family="sans-serif" font-size="14" lengthAdjust="spacing" textLength="116.9355" x="418.77" y="63.9951">operation(): void</text></g><!--class ConcreteComponent--><g class="entity" data-entity="ConcreteComponent" data-source-line="7" data-uid="ent0003" id="entity_ConcreteComponent"><rect fill="#F1F1F1" height="64.2969" rx="2.5" ry="2.5" style="stroke:#181818;stroke-width:0.5;" width="176.6621" x="578.91" y="164.6"/><ellipse cx="593.91" cy="180.6" fill="#ADD1B2" rx="11" ry="11" style="stroke:#181818;stroke-width:1;"/><path d="M596.8788,186.2406 Q596.3006,186.5375 595.66,186.6781 Q595.0194,186.8344 594.3163,186.8344 Q591.8163,186.8344 590.4881,185.1938 Q589.1756,183.5375 589.1756,180.4125 Q589.1756,177.2875 590.4881,175.6313 Q591.8163,173.975 594.3163,173.975 Q595.0194,173.975 595.66,174.1313 Q596.3163,174.2875 596.8788,174.5844 L596.8788,177.3031 Q596.2538,176.725 595.66,176.4594 Q595.0663,176.1781 594.4413,176.1781 Q593.0975,176.1781 592.41,177.2563 Q591.7225,178.3188 591.7225,180.4125 Q591.7225,182.5063 592.41,183.5844 Q593.0975,184.6469 594.4413,184.6469 Q595.0663,184.6469 595.66,184.3813 Q596.2538,184.1 596.8788,183.5219 L596.8788,186.2406 Z " fill="#000000"/><text fill="#000000" font-family="sans-serif" font-size="14" lengthAdjust="spacing" textLength="144.6621" x="607.91" y="185.4467">ConcreteComponent</text><line style="stroke:#181818;stroke-width:0.5;" x1="579.91" x2="754.5721" y1="196.6" y2="196.6"/><line style="stroke:#181818;stroke-width:0.5;" x1="579.91" x2="754.5721" y1="204.6" y2="204.6"/><ellipse cx="589.91" cy="218.2484" fill="#84BE84" rx="3" ry="3" style="stroke:#038048;stroke-width:1;"/><text fill="#000000" font-family="sans-serif" font-size="14" lengthAdjust="spacing" textLength="116.9355" x="598.91" y="221.5951">operation(): void</text></g><!--class Decorator--><g class="entity" data-entity="Decorator" data-source-line="12" data-uid="ent0004" id="entity_Decorator"><rect fill="#F1F1F1" height="96.8906" rx="2.5" ry="2.5" style="stroke:#181818;stroke-width:0.5;" width="276.373" x="267.05" y="148.3"/><ellipse cx="366.0856" cy="164.3" fill="#A9DCDF" rx="11" ry="11" style="stroke:#181818;stroke-width:1;"/><path d="M366.195,159.6437 L365.0388,164.7219 L367.3669,164.7219 L366.195,159.6437 Z M364.7106,157.4094 L367.695,157.4094 L371.0544,169.8 L368.6013,169.8 L367.8356,166.7375 L364.5544,166.7375 L363.8044,169.8 L361.3669,169.8 L364.7106,157.4094 Z " fill="#000000"/><text fill="#000000" font-family="sans-serif" font-size="14" font-style="italic" lengthAdjust="spacing" textLength="69.8018" x="386.5856" y="169.1467">Decorator</text><line style="stroke:#181818;stroke-width:0.5;" x1="268.05" x2="542.423" y1="180.3" y2="180.3"/><rect fill="none" height="6" style="stroke:#C82930;stroke-width:1;" width="6" x="275.05" y="190.9484"/><text fill="#000000" font-family="sans-serif" font-size="14" lengthAdjust="spacing" textLength="169.6475" x="287.05" y="197.2951">component: Component</text><line style="stroke:#181818;stroke-width:0.5;" x1="268.05" x2="542.423" y1="204.5969" y2="204.5969"/><ellipse cx="278.05" cy="218.2453" fill="#84BE84" rx="3" ry="3" style="stroke:#038048;stroke-width:1;"/><text fill="#000000" font-family="sans-serif" font-size="14" lengthAdjust="spacing" textLength="250.373" x="287.05" y="221.592">Decorator(component: Component)</text><ellipse cx="278.05" cy="234.5422" fill="#84BE84" rx="3" ry="3" style="stroke:#038048;stroke-width:1;"/><text fill="#000000" font-family="sans-serif" font-size="14" lengthAdjust="spacing" textLength="116.9355" x="287.05" y="237.8889">operation(): void</text></g><!--class ConcreteDecoratorA--><g class="entity" data-entity="ConcreteDecoratorA" data-source-line="19" data-uid="ent0005" id="entity_ConcreteDecoratorA"><rect fill="#F1F1F1" height="96.8906" rx="2.5" ry="2.5" style="stroke:#181818;stroke-width:0.5;" width="191.3135" x="196.58" y="306.19"/><ellipse cx="219.0283" cy="322.19" fill="#ADD1B2" rx="11" ry="11" style="stroke:#181818;stroke-width:1;"/><path d="M221.997,327.8306 Q221.4189,328.1275 220.7783,328.2681 Q220.1377,328.4244 219.4345,328.4244 Q216.9345,328.4244 215.6064,326.7838 Q214.2939,325.1275 214.2939,322.0025 Q214.2939,318.8775 215.6064,317.2213 Q216.9345,315.565 219.4345,315.565 Q220.1377,315.565 220.7783,315.7213 Q221.4345,315.8775 221.997,316.1744 L221.997,318.8931 Q221.372,318.315 220.7783,318.0494 Q220.1845,317.7681 219.5595,317.7681 Q218.2158,317.7681 217.5283,318.8463 Q216.8408,319.9088 216.8408,322.0025 Q216.8408,324.0963 217.5283,325.1744 Q218.2158,326.2369 219.5595,326.2369 Q220.1845,326.2369 220.7783,325.9713 Q221.372,325.69 221.997,325.1119 L221.997,327.8306 Z " fill="#000000"/><text fill="#000000" font-family="sans-serif" font-size="14" lengthAdjust="spacing" textLength="142.7617" x="234.6835" y="327.0367">ConcreteDecoratorA</text><line style="stroke:#181818;stroke-width:0.5;" x1="197.58" x2="386.8935" y1="338.19" y2="338.19"/><ellipse cx="207.58" cy="351.8384" fill="none" rx="3" ry="3" style="stroke:#038048;stroke-width:1;"/><text fill="#000000" font-family="sans-serif" font-size="14" lengthAdjust="spacing" textLength="146.0498" x="216.58" y="355.1851">addedState: boolean</text><line style="stroke:#181818;stroke-width:0.5;" x1="197.58" x2="386.8935" y1="362.4869" y2="362.4869"/><ellipse cx="207.58" cy="376.1353" fill="#84BE84" rx="3" ry="3" style="stroke:#038048;stroke-width:1;"/><text fill="#000000" font-family="sans-serif" font-size="14" lengthAdjust="spacing" textLength="116.9355" x="216.58" y="379.482">operation(): void</text><rect fill="#F24D5C" height="6" style="stroke:#C82930;stroke-width:1;" width="6" x="204.58" y="389.4322"/><text fill="#000000" font-family="sans-serif" font-size="14" lengthAdjust="spacing" textLength="165.3135" x="216.58" y="395.7789">addedBehaviorA(): void</text></g><!--class ConcreteDecoratorB--><g class="entity" data-entity="ConcreteDecoratorB" data-source-line="26" data-uid="ent0006" id="entity_ConcreteDecoratorB"><rect fill="#F1F1F1" height="80.5938" rx="2.5" ry="2.5" style="stroke:#181818;stroke-width:0.5;" width="191.3408" x="422.57" y="314.34"/><ellipse cx="445.0183" cy="330.34" fill="#ADD1B2" rx="11" ry="11" style="stroke:#181818;stroke-width:1;"/><path d="M447.987,335.9806 Q447.4089,336.2775 446.7683,336.4181 Q446.1277,336.5744 445.4245,336.5744 Q442.9245,336.5744 441.5964,334.9338 Q440.2839,333.2775 440.2839,330.1525 Q440.2839,327.0275 441.5964,325.3713 Q442.9245,323.715 445.4245,323.715 Q446.1277,323.715 446.7683,323.8713 Q447.4245,324.0275 447.987,324.3244 L447.987,327.0431 Q447.362,326.465 446.7683,326.1994 Q446.1745,325.9181 445.5495,325.9181 Q444.2058,325.9181 443.5183,326.9963 Q442.8308,328.0588 442.8308,330.1525 Q442.8308,332.2463 443.5183,333.3244 Q444.2058,334.3869 445.5495,334.3869 Q446.1745,334.3869 446.7683,334.1213 Q447.362,333.84 447.987,333.2619 L447.987,335.9806 Z " fill="#000000"/><text fill="#000000" font-family="sans-serif" font-size="14" lengthAdjust="spacing" textLength="142.7891" x="460.6735" y="335.1867">ConcreteDecoratorB</text><line style="stroke:#181818;stroke-width:0.5;" x1="423.57" x2="612.9108" y1="346.34" y2="346.34"/><line style="stroke:#181818;stroke-width:0.5;" x1="423.57" x2="612.9108" y1="354.34" y2="354.34"/><ellipse cx="433.57" cy="367.9884" fill="#84BE84" rx="3" ry="3" style="stroke:#038048;stroke-width:1;"/><text fill="#000000" font-family="sans-serif" font-size="14" lengthAdjust="spacing" textLength="116.9355" x="442.57" y="371.3351">operation(): void</text><rect fill="#F24D5C" height="6" style="stroke:#C82930;stroke-width:1;" width="6" x="430.57" y="381.2853"/><text fill="#000000" font-family="sans-serif" font-size="14" lengthAdjust="spacing" textLength="165.3408" x="442.57" y="387.632">addedBehaviorB(): void</text></g><g class="entity" data-entity="GMN12" data-source-line="40" data-uid="ent0013" id="entity_GMN12"><path d="M790.74,176.61 L790.74,192.74 L755.85,196.74 L790.74,200.74 L790.74,216.8756 A0,0 0 0 0 790.74,216.8756 L967.7402,216.8756 A0,0 0 0 0 967.7402,216.8756 L967.7402,186.61 L957.7402,176.61 L790.74,176.61 A0,0 0 0 0 790.74,176.61" fill="#FEFFDD" style="stroke:#181818;stroke-width:0.5;"/><path d="M957.7402,176.61 L957.7402,186.61 L967.7402,186.61 L957.7402,176.61" fill="#FEFFDD" style="stroke:#181818;stroke-width:0.5;"/><text fill="#000000" font-family="sans-serif" font-size="13" lengthAdjust="spacing" textLength="156.0002" x="796.74" y="193.6769">&#23450;&#20041;&#19968;&#20010;&#23545;&#35937;&#65292;&#21487;&#20197;&#32473;&#36825;&#20010;</text><text fill="#000000" font-family="sans-serif" font-size="13" lengthAdjust="spacing" textLength="104.0001" x="796.74" y="208.8097">&#23545;&#35937;&#28155;&#21152;&#19968;&#20123;&#32844;&#36131;</text></g><g class="entity" data-entity="GMN15" data-source-line="45" data-uid="ent0016" id="entity_GMN15"><path d="M6,169.04 L6,224.4384 A0,0 0 0 0 6,224.4384 L232.4738,224.4384 A0,0 0 0 0 232.4738,224.4384 L232.4738,200.74 L266.57,196.74 L232.4738,192.74 L232.4738,179.04 L222.4738,169.04 L6,169.04 A0,0 0 0 0 6,169.04" fill="#FEFFDD" style="stroke:#181818;stroke-width:0.5;"/><path d="M222.4738,169.04 L222.4738,179.04 L232.4738,179.04 L222.4738,169.04" fill="#FEFFDD" style="stroke:#181818;stroke-width:0.5;"/><text fill="#000000" font-family="sans-serif" font-size="13" lengthAdjust="spacing" textLength="205.4738" x="12" y="186.1069">&#25345;&#26377;&#19968;&#20010;Component&#23545;&#35937;&#30340;&#23454;&#20363;&#65292;</text><text fill="#000000" font-family="sans-serif" font-size="13" lengthAdjust="spacing" textLength="179.4738" x="12" y="201.2397">&#24182;&#23450;&#20041;&#19968;&#20010;&#19982;Component&#25509;&#21475;</text><text fill="#000000" font-family="sans-serif" font-size="13" lengthAdjust="spacing" textLength="65.0001" x="12" y="216.3725">&#19968;&#33268;&#30340;&#25509;&#21475;</text></g><!--reverse link Component to ConcreteComponent--><g class="link" data-entity-1="Component" data-entity-2="ConcreteComponent" data-source-line="32" data-uid="lnk7" id="link_Component_ConcreteComponent"><path codeLine="32" d="M524.2267,82.7951 C558.4067,109.7851 593.27,137.32 627.43,164.3" fill="none" id="Component-backto-ConcreteComponent" style="stroke:#181818;stroke-width:1;"/><polygon fill="none" points="510.1,71.64,520.5084,87.504,527.9451,78.0862,510.1,71.64" style="stroke:#181818;stroke-width:1;"/></g><!--reverse link Component to Decorator--><g class="link" data-entity-1="Component" data-entity-2="Decorator" data-source-line="33" data-uid="lnk8" id="link_Component_Decorator"><path codeLine="33" d="M411.2451,84.0529 C402.3051,92.5529 407.21,90.13 402.24,101.3 C395.83,115.68 394.65,132.56 395.67,148.04" fill="none" id="Component-backto-Decorator" style="stroke:#181818;stroke-width:1;"/><polygon fill="none" points="424.29,71.65,407.1108,79.7046,415.3794,88.4012,424.29,71.65" style="stroke:#181818;stroke-width:1;"/><text fill="#000000" font-family="sans-serif" font-size="13" lengthAdjust="spacing" textLength="23.042" x="403.24" y="114.3669">is-a</text></g><!--link Decorator to Component--><g class="link" data-entity-1="Decorator" data-entity-2="Component" data-source-line="36" data-uid="lnk11" id="link_Decorator_Component"><path codeLine="36" d="M429.7846,136.9769 C440.1546,112.1469 445.6075,99.1064 454.7675,77.1764" fill="none" id="Decorator-Component" style="stroke:#181818;stroke-width:1;"/><polygon fill="none" points="425.16,148.05,431.1633,144.055,429.7846,136.9769,423.7813,140.9719,425.16,148.05" style="stroke:#181818;stroke-width:1;"/><polygon fill="#181818" points="457.08,71.64,449.9202,78.403,455.1529,76.2537,457.3022,81.4864,457.08,71.64" style="stroke:#181818;stroke-width:1;"/><text fill="#000000" font-family="sans-serif" font-size="13" lengthAdjust="spacing" textLength="73.8994" x="445.24" y="114.3669">aggregates</text></g><!--reverse link Decorator to ConcreteDecoratorA--><g class="link" data-entity-1="Decorator" data-entity-2="ConcreteDecoratorA" data-source-line="34" data-uid="lnk9" id="link_Decorator_ConcreteDecoratorA"><path codeLine="34" d="M360.1587,259.936 C346.2687,279.106 340.84,286.58 326.93,305.77" fill="none" id="Decorator-backto-ConcreteDecoratorA" style="stroke:#181818;stroke-width:1;"/><polygon fill="none" points="370.72,245.36,355.3,256.4155,365.0174,263.4564,370.72,245.36" style="stroke:#181818;stroke-width:1;"/></g><!--reverse link Decorator to ConcreteDecoratorB--><g class="link" data-entity-1="Decorator" data-entity-2="ConcreteDecoratorB" data-source-line="35" data-uid="lnk10" id="link_Decorator_ConcreteDecoratorB"><path codeLine="35" d="M450.3169,259.9319 C466.2269,281.8719 474.31,293.04 489.44,313.91" fill="none" id="Decorator-backto-ConcreteDecoratorB" style="stroke:#181818;stroke-width:1;"/><polygon fill="none" points="439.75,245.36,445.4596,263.4542,455.1742,256.4096,439.75,245.36" style="stroke:#181818;stroke-width:1;"/></g><!--SRC=[ZP91Ji9058RtSugtKsDwWSQOMBs19nZQiJJ1ZcadRjH44eaHYInSeGOrXCIuK0a4WOfUPgOjAw_Wb9OM4PLPplpl__xttYo1Nnw6hNk_ViAzBi8vbpbOPw0NiEl29jtTepQn6HmWa6SLw1vnCBEelRoYmZwr37I4q1A8qYiVNYOcarfRTmWZ2tk4ZTAe-I9g3-9s4BIysInRHAUoZ3g9ZmBwn5dDWYQ8LBmyJxIoI3Dfd8sPXbBlZRGZR1Z4s6QO4HLob1O8jdz5nDd75Hh9utrB6lt9rtxZQtzCT0v5cwMqWxOddgvu_mnbIrexL9IVkviLPCjGmN8LZBABRmRPhFvLQ5CAgYZhKvzF1MoQ3Z7bVDqekl_gYVATttuOdPQHJHa1npBp3EZEdEG0SO-yTynxZ-AvBt_xvrj5L9-vrmoyMlXHa_UHRFmKUqVYmNLOh8IT1YAs0H45nQm2sHcZqhYorgyK_Pi4aQ9Zm-3gH3pL-VkvX4QKVdSw3-zTf7h_eYcg3QcHJ-5fHnOcDvC0Nm00]--></g></svg>