
<svg xmlns="http://www.w3.org/2000/svg" xmlns:xlink="http://www.w3.org/1999/xlink" contentStyleType="text/css" data-diagram-type="CLASS" height="426px" preserveAspectRatio="none" style="width:546px;height:426px;background:#FFFFFF;" version="1.1" viewBox="0 0 546 426" width="546px" zoomAndPan="magnify"><defs/><g><rect fill="#FFFFFF" height="426" style="stroke:none;stroke-width:1;" width="546" x="0" y="0"/><!--class Client--><g class="entity" data-entity="Client" data-source-line="5" data-uid="ent0002" id="entity_Client"><rect fill="#F1F1F1" height="64.2969" rx="3.5" ry="3.5" style="stroke:#181818;stroke-width:0.5;" width="72.5303" x="230.86" y="7"/><ellipse cx="245.86" cy="23" fill="#ADD1B2" rx="11" ry="11" style="stroke:#181818;stroke-width:1;"/><path d="M248.8288,28.6406 Q248.2506,28.9375 247.61,29.0781 Q246.9694,29.2344 246.2663,29.2344 Q243.7663,29.2344 242.4381,27.5938 Q241.1256,25.9375 241.1256,22.8125 Q241.1256,19.6875 242.4381,18.0313 Q243.7663,16.375 246.2663,16.375 Q246.9694,16.375 247.61,16.5313 Q248.2663,16.6875 248.8288,16.9844 L248.8288,19.7031 Q248.2038,19.125 247.61,18.8594 Q247.0163,18.5781 246.3913,18.5781 Q245.0475,18.5781 244.36,19.6563 Q243.6725,20.7188 243.6725,22.8125 Q243.6725,24.9063 244.36,25.9844 Q245.0475,27.0469 246.3913,27.0469 Q247.0163,27.0469 247.61,26.7813 Q248.2038,26.5 248.8288,25.9219 L248.8288,28.6406 Z " fill="#000000"/><text fill="#000000" font-family="sans-serif" font-size="14" lengthAdjust="spacing" textLength="40.5303" x="259.86" y="27.8467">Client</text><line style="stroke:#181818;stroke-width:0.5;" x1="231.86" x2="302.3903" y1="39" y2="39"/><line style="stroke:#181818;stroke-width:0.5;" x1="231.86" x2="302.3903" y1="47" y2="47"/><text fill="#000000" font-family="sans-serif" font-size="14" lengthAdjust="spacing" textLength="57.6338" x="236.86" y="63.9951">+main()</text></g><!--class Facade--><g class="entity" data-entity="Facade" data-source-line="10" data-uid="ent0003" id="entity_Facade"><rect fill="#F1F1F1" height="129.4844" rx="3.5" ry="3.5" style="stroke:#181818;stroke-width:0.5;" width="198.6963" x="167.77" y="148.3"/><ellipse cx="237.664" cy="164.3" fill="#ADD1B2" rx="11" ry="11" style="stroke:#181818;stroke-width:1;"/><path d="M240.6328,169.9406 Q240.0547,170.2375 239.414,170.3781 Q238.7734,170.5344 238.0703,170.5344 Q235.5703,170.5344 234.2422,168.8938 Q232.9297,167.2375 232.9297,164.1125 Q232.9297,160.9875 234.2422,159.3313 Q235.5703,157.675 238.0703,157.675 Q238.7734,157.675 239.414,157.8313 Q240.0703,157.9875 240.6328,158.2844 L240.6328,161.0031 Q240.0078,160.425 239.414,160.1594 Q238.8203,159.8781 238.1953,159.8781 Q236.8515,159.8781 236.164,160.9563 Q235.4765,162.0188 235.4765,164.1125 Q235.4765,166.2063 236.164,167.2844 Q236.8515,168.3469 238.1953,168.3469 Q238.8203,168.3469 239.414,168.0813 Q240.0078,167.8 240.6328,167.2219 L240.6328,169.9406 Z " fill="#000000"/><text fill="#000000" font-family="sans-serif" font-size="14" lengthAdjust="spacing" textLength="50.4082" x="258.164" y="169.1467">Facade</text><line style="stroke:#181818;stroke-width:0.5;" x1="168.77" x2="365.4663" y1="180.3" y2="180.3"/><text fill="#000000" font-family="sans-serif" font-size="14" lengthAdjust="spacing" textLength="186.2998" x="173.77" y="197.2951">-subsystemA: SubsystemA</text><text fill="#000000" font-family="sans-serif" font-size="14" lengthAdjust="spacing" textLength="186.3545" x="173.77" y="213.592">-subsystemB: SubsystemB</text><text fill="#000000" font-family="sans-serif" font-size="14" lengthAdjust="spacing" textLength="186.6963" x="173.77" y="229.8889">-subsystemC: SubsystemC</text><line style="stroke:#181818;stroke-width:0.5;" x1="168.77" x2="365.4663" y1="237.1906" y2="237.1906"/><text fill="#000000" font-family="sans-serif" font-size="14" lengthAdjust="spacing" textLength="175.0068" x="173.77" y="254.1857">+mainOperation1(): void</text><text fill="#000000" font-family="sans-serif" font-size="14" lengthAdjust="spacing" textLength="175.0068" x="173.77" y="270.4826">+mainOperation2(): void</text></g><!--class SubsystemA--><g class="entity" data-entity="SubsystemA" data-source-line="19" data-uid="ent0004" id="entity_SubsystemA"><rect fill="#F1F1F1" height="64.2969" rx="3.5" ry="3.5" style="stroke:#181818;stroke-width:0.5;" width="150.2432" x="7" y="354.78"/><ellipse cx="36.1328" cy="370.78" fill="#ADD1B2" rx="11" ry="11" style="stroke:#181818;stroke-width:1;"/><path d="M39.1016,376.4206 Q38.5234,376.7175 37.8828,376.8581 Q37.2422,377.0144 36.5391,377.0144 Q34.0391,377.0144 32.7109,375.3738 Q31.3984,373.7175 31.3984,370.5925 Q31.3984,367.4675 32.7109,365.8113 Q34.0391,364.155 36.5391,364.155 Q37.2422,364.155 37.8828,364.3113 Q38.5391,364.4675 39.1016,364.7644 L39.1016,367.4831 Q38.4766,366.905 37.8828,366.6394 Q37.2891,366.3581 36.6641,366.3581 Q35.3203,366.3581 34.6328,367.4363 Q33.9453,368.4988 33.9453,370.5925 Q33.9453,372.6863 34.6328,373.7644 Q35.3203,374.8269 36.6641,374.8269 Q37.2891,374.8269 37.8828,374.5613 Q38.4766,374.28 39.1016,373.7019 L39.1016,376.4206 Z " fill="#000000"/><text fill="#000000" font-family="sans-serif" font-size="14" lengthAdjust="spacing" textLength="86.8369" x="53.2734" y="375.6267">SubsystemA</text><line style="stroke:#181818;stroke-width:0.5;" x1="8" x2="156.2432" y1="386.78" y2="386.78"/><line style="stroke:#181818;stroke-width:0.5;" x1="8" x2="156.2432" y1="394.78" y2="394.78"/><text fill="#000000" font-family="sans-serif" font-size="14" lengthAdjust="spacing" textLength="138.2432" x="13" y="411.7751">+operationA(): void</text></g><!--class SubsystemB--><g class="entity" data-entity="SubsystemB" data-source-line="24" data-uid="ent0005" id="entity_SubsystemB"><rect fill="#F1F1F1" height="64.2969" rx="3.5" ry="3.5" style="stroke:#181818;stroke-width:0.5;" width="150.2705" x="191.99" y="354.78"/><ellipse cx="221.1228" cy="370.78" fill="#ADD1B2" rx="11" ry="11" style="stroke:#181818;stroke-width:1;"/><path d="M224.0916,376.4206 Q223.5134,376.7175 222.8728,376.8581 Q222.2322,377.0144 221.5291,377.0144 Q219.0291,377.0144 217.7009,375.3738 Q216.3884,373.7175 216.3884,370.5925 Q216.3884,367.4675 217.7009,365.8113 Q219.0291,364.155 221.5291,364.155 Q222.2322,364.155 222.8728,364.3113 Q223.5291,364.4675 224.0916,364.7644 L224.0916,367.4831 Q223.4666,366.905 222.8728,366.6394 Q222.2791,366.3581 221.6541,366.3581 Q220.3103,366.3581 219.6228,367.4363 Q218.9353,368.4988 218.9353,370.5925 Q218.9353,372.6863 219.6228,373.7644 Q220.3103,374.8269 221.6541,374.8269 Q222.2791,374.8269 222.8728,374.5613 Q223.4666,374.28 224.0916,373.7019 L224.0916,376.4206 Z " fill="#000000"/><text fill="#000000" font-family="sans-serif" font-size="14" lengthAdjust="spacing" textLength="86.8643" x="238.2634" y="375.6267">SubsystemB</text><line style="stroke:#181818;stroke-width:0.5;" x1="192.99" x2="341.2605" y1="386.78" y2="386.78"/><line style="stroke:#181818;stroke-width:0.5;" x1="192.99" x2="341.2605" y1="394.78" y2="394.78"/><text fill="#000000" font-family="sans-serif" font-size="14" lengthAdjust="spacing" textLength="138.2705" x="197.99" y="411.7751">+operationB(): void</text></g><!--class SubsystemC--><g class="entity" data-entity="SubsystemC" data-source-line="29" data-uid="ent0006" id="entity_SubsystemC"><rect fill="#F1F1F1" height="64.2969" rx="3.5" ry="3.5" style="stroke:#181818;stroke-width:0.5;" width="150.4414" x="376.9" y="354.78"/><ellipse cx="406.0328" cy="370.78" fill="#ADD1B2" rx="11" ry="11" style="stroke:#181818;stroke-width:1;"/><path d="M409.0016,376.4206 Q408.4234,376.7175 407.7828,376.8581 Q407.1422,377.0144 406.4391,377.0144 Q403.9391,377.0144 402.6109,375.3738 Q401.2984,373.7175 401.2984,370.5925 Q401.2984,367.4675 402.6109,365.8113 Q403.9391,364.155 406.4391,364.155 Q407.1422,364.155 407.7828,364.3113 Q408.4391,364.4675 409.0016,364.7644 L409.0016,367.4831 Q408.3766,366.905 407.7828,366.6394 Q407.1891,366.3581 406.5641,366.3581 Q405.2203,366.3581 404.5328,367.4363 Q403.8453,368.4988 403.8453,370.5925 Q403.8453,372.6863 404.5328,373.7644 Q405.2203,374.8269 406.5641,374.8269 Q407.1891,374.8269 407.7828,374.5613 Q408.3766,374.28 409.0016,373.7019 L409.0016,376.4206 Z " fill="#000000"/><text fill="#000000" font-family="sans-serif" font-size="14" lengthAdjust="spacing" textLength="87.0352" x="423.1734" y="375.6267">SubsystemC</text><line style="stroke:#181818;stroke-width:0.5;" x1="377.9" x2="526.3414" y1="386.78" y2="386.78"/><line style="stroke:#181818;stroke-width:0.5;" x1="377.9" x2="526.3414" y1="394.78" y2="394.78"/><text fill="#000000" font-family="sans-serif" font-size="14" lengthAdjust="spacing" textLength="138.4414" x="382.9" y="411.7751">+operationC(): void</text></g><g class="entity" data-entity="GMN11" data-source-line="39" data-uid="ent0012" id="entity_GMN11"><path d="M401.12,188.84 L401.12,209.04 L366.64,213.04 L401.12,217.04 L401.12,237.2384 A3.5,3.5 0 0 0 404.62,240.7384 L535.6201,240.7384 A3.5,3.5 0 0 0 539.1201,237.2384 L539.1201,195.34 L529.1201,185.34 L404.62,185.34 A3.5,3.5 0 0 0 401.12,188.84" fill="#E5E5E5" style="stroke:#191919;stroke-width:1.5;"/><path d="M529.1201,185.34 L529.1201,193.59 A1.75,1.75 0 0 0 530.8701,195.34 L539.1201,195.34 L529.1201,185.34" fill="#E5E5E5" style="stroke:#191919;stroke-width:1.5;"/><text fill="#191919" font-family="sans-serif" font-size="13" lengthAdjust="spacing" textLength="52.0001" x="407.12" y="202.4069">&#22806;&#35266;&#35282;&#33394;</text><text fill="#191919" font-family="sans-serif" font-size="13" lengthAdjust="spacing" textLength="78.0001" x="407.12" y="217.5397">&#25552;&#20379;&#32479;&#19968;&#25509;&#21475;</text><text fill="#191919" font-family="sans-serif" font-size="13" lengthAdjust="spacing" textLength="117.0001" x="407.12" y="232.6725">&#23553;&#35013;&#23376;&#31995;&#32479;&#30340;&#22797;&#26434;&#24615;</text></g><!--link Client to Facade--><g class="link" data-entity-1="Client" data-entity-2="Facade" data-source-line="34" data-uid="lnk7" id="link_Client_Facade"><path codeLine="34" d="M267.12,71.68 C267.12,93 267.12,115.91 267.12,141.96" fill="none" id="Client-to-Facade" style="stroke:#191919;stroke-width:1;"/><polygon fill="#191919" points="267.12,147.96,271.12,138.96,267.12,142.96,263.12,138.96,267.12,147.96" style="stroke:#191919;stroke-width:1;"/><text fill="#000000" font-family="sans-serif" font-size="13" lengthAdjust="spacing" textLength="29.7832" x="268.12" y="114.3669">uses</text></g><!--link Facade to SubsystemA--><g class="link" data-entity-1="Facade" data-entity-2="SubsystemA" data-source-line="35" data-uid="lnk8" id="link_Facade_SubsystemA"><path codeLine="35" d="M198.23,278.05 C170.19,304.1 143.4357,328.9662 120.4657,350.3062" fill="none" id="Facade-to-SubsystemA" style="stroke:#191919;stroke-width:1;"/><polygon fill="#191919" points="116.07,354.39,125.3861,351.1948,119.7331,350.9868,119.9411,345.3338,116.07,354.39" style="stroke:#191919;stroke-width:1;"/><text fill="#000000" font-family="sans-serif" font-size="13" lengthAdjust="spacing" textLength="29.7832" x="165.12" y="320.8469">uses</text></g><!--link Facade to SubsystemB--><g class="link" data-entity-1="Facade" data-entity-2="SubsystemB" data-source-line="36" data-uid="lnk9" id="link_Facade_SubsystemB"><path codeLine="36" d="M267.12,278.05 C267.12,304.2 267.12,327.26 267.12,348.62" fill="none" id="Facade-to-SubsystemB" style="stroke:#191919;stroke-width:1;"/><polygon fill="#191919" points="267.12,354.62,271.12,345.62,267.12,349.62,263.12,345.62,267.12,354.62" style="stroke:#191919;stroke-width:1;"/><text fill="#000000" font-family="sans-serif" font-size="13" lengthAdjust="spacing" textLength="29.7832" x="268.12" y="320.8469">uses</text></g><!--link Facade to SubsystemC--><g class="link" data-entity-1="Facade" data-entity-2="SubsystemC" data-source-line="37" data-uid="lnk10" id="link_Facade_SubsystemC"><path codeLine="37" d="M336.01,278.05 C364.05,304.1 390.8043,328.9662 413.7743,350.3062" fill="none" id="Facade-to-SubsystemC" style="stroke:#191919;stroke-width:1;"/><polygon fill="#191919" points="418.17,354.39,414.2989,345.3338,414.5069,350.9868,408.8539,351.1948,418.17,354.39" style="stroke:#191919;stroke-width:1;"/><text fill="#000000" font-family="sans-serif" font-size="13" lengthAdjust="spacing" textLength="29.7832" x="382.12" y="320.8469">uses</text></g><!--SRC=[Kop9ICrDLSXDB2hcAixEp2j8B4hCLKZEIImkTYmfASfCAYr9zKpEpmlEh4fLCE3YKbTukcxHiuxjprUlvmAhKd3EoKpDAr6evb9Gq0QQavcdeSbL2rQuPDgBvKqlbazwqRa9gjOjCJan9HMiLbUXk3IfkBAu93NNqKeX6Cv6bN92ad9IK42LT4QIT8PRxr-GMfHOafcVPwYXQQLGbf-PWYbb19U2k7JjXEURTp_VFTyHwaw4Sw3-oeVfTCIXqmbTfnEwJYSSEftHTJgZwtH6qzcw6QZpwRfPJtPsSa53NrVN3XQuLWgbnQd5N50UI0B9DtWadV19EiCakVBoIr8LYZBJCqeKyjCGTY97TapUi_u9J_RD1dhkoOw6PtrBd_OlZibxkg7nnU9MkBUVpsfvkgJtsTocPmtB0G00]--></g></svg>