
<svg xmlns="http://www.w3.org/2000/svg" xmlns:xlink="http://www.w3.org/1999/xlink" contentStyleType="text/css" data-diagram-type="CLASS" height="848px" preserveAspectRatio="none" style="width:1164px;height:848px;background:#FFFFFF;" version="1.1" viewBox="0 0 1164 848" width="1164px" zoomAndPan="magnify"><defs/><g><rect fill="#FFFFFF" height="848" style="stroke:none;stroke-width:1;" width="1164" x="0" y="0"/><!--class Character--><g class="entity" data-entity="Character" data-source-line="6" data-uid="ent0002" id="entity_Character"><rect fill="#F1F1F1" height="72.5625" rx="3.5" ry="3.5" style="stroke:#181818;stroke-width:0.5;" width="242.7881" x="417.51" y="416.07"/><ellipse cx="500.095" cy="436.2028" fill="#B4A7E5" rx="11" ry="11" style="stroke:#181818;stroke-width:1;"/><path d="M496.0168,431.9684 L496.0168,429.8122 L503.4075,429.8122 L503.4075,431.9684 L500.9387,431.9684 L500.9387,440.0466 L503.4075,440.0466 L503.4075,442.2028 L496.0168,442.2028 L496.0168,440.0466 L498.4856,440.0466 L498.4856,431.9684 L496.0168,431.9684 Z " fill="#000000"/><text fill="#000000" font-family="sans-serif" font-size="12" font-style="italic" lengthAdjust="spacing" textLength="72.4805" x="518.9138" y="432.2087">&#171;Flyweight&#187;</text><text fill="#000000" font-family="sans-serif" font-size="14" font-style="italic" lengthAdjust="spacing" textLength="69.1182" x="520.595" y="448.0339">Character</text><line style="stroke:#181818;stroke-width:0.5;" x1="418.51" x2="659.2981" y1="456.3356" y2="456.3356"/><line style="stroke:#181818;stroke-width:0.5;" x1="418.51" x2="659.2981" y1="464.3356" y2="464.3356"/><text fill="#000000" font-family="sans-serif" font-size="14" font-style="italic" lengthAdjust="spacing" textLength="230.7881" x="423.51" y="481.3307">+display(position: Position): void</text></g><!--class ConcreteCharacter--><g class="entity" data-entity="ConcreteCharacter" data-source-line="11" data-uid="ent0003" id="entity_ConcreteCharacter"><rect fill="#F1F1F1" height="137.75" rx="3.5" ry="3.5" style="stroke:#181818;stroke-width:0.5;" width="378.502" x="471.65" y="561.8"/><ellipse cx="590.4005" cy="581.9328" fill="#ADD1B2" rx="11" ry="11" style="stroke:#181818;stroke-width:1;"/><path d="M593.3692,587.5734 Q592.7911,587.8703 592.1505,588.0109 Q591.5099,588.1672 590.8067,588.1672 Q588.3067,588.1672 586.9786,586.5266 Q585.6661,584.8703 585.6661,581.7453 Q585.6661,578.6203 586.9786,576.9641 Q588.3067,575.3078 590.8067,575.3078 Q591.5099,575.3078 592.1505,575.4641 Q592.8067,575.6203 593.3692,575.9172 L593.3692,578.6359 Q592.7442,578.0578 592.1505,577.7922 Q591.5567,577.5109 590.9317,577.5109 Q589.588,577.5109 588.9005,578.5891 Q588.213,579.6516 588.213,581.7453 Q588.213,583.8391 588.9005,584.9172 Q589.588,585.9797 590.9317,585.9797 Q591.5567,585.9797 592.1505,585.7141 Q592.7442,585.4328 593.3692,584.8547 L593.3692,587.5734 Z " fill="#000000"/><text fill="#000000" font-family="sans-serif" font-size="12" font-style="italic" lengthAdjust="spacing" textLength="126.8086" x="613.7467" y="577.9387">&#171;ConcreteFlyweight&#187;</text><text fill="#000000" font-family="sans-serif" font-size="14" lengthAdjust="spacing" textLength="132.501" x="610.9005" y="593.7639">ConcreteCharacter</text><line style="stroke:#181818;stroke-width:0.5;" x1="472.65" x2="849.152" y1="602.0656" y2="602.0656"/><text fill="#000000" font-family="sans-serif" font-size="14" lengthAdjust="spacing" textLength="76.0293" x="477.65" y="619.0607">-char: char</text><text fill="#000000" font-family="sans-serif" font-size="14" lengthAdjust="spacing" textLength="73.0557" x="477.65" y="635.3576">-font: Font</text><text fill="#000000" font-family="sans-serif" font-size="14" lengthAdjust="spacing" textLength="59.6162" x="477.65" y="651.6545">-size: int</text><line style="stroke:#181818;stroke-width:0.5;" x1="472.65" x2="849.152" y1="658.9563" y2="658.9563"/><text fill="#000000" font-family="sans-serif" font-size="14" lengthAdjust="spacing" textLength="366.502" x="477.65" y="675.9514">+ConcreteCharacter(char: char, font: Font, size: int)</text><text fill="#000000" font-family="sans-serif" font-size="14" lengthAdjust="spacing" textLength="230.7881" x="477.65" y="692.2482">+display(position: Position): void</text></g><!--class CharacterContext--><g class="entity" data-entity="CharacterContext" data-source-line="20" data-uid="ent0004" id="entity_CharacterContext"><rect fill="#F1F1F1" height="137.75" rx="3.5" ry="3.5" style="stroke:#181818;stroke-width:0.5;" width="521.8105" x="7" y="189.16"/><ellipse cx="173.4844" cy="209.2928" fill="#ADD1B2" rx="11" ry="11" style="stroke:#181818;stroke-width:1;"/><path d="M176.4531,214.9334 Q175.875,215.2303 175.2344,215.3709 Q174.5938,215.5272 173.8906,215.5272 Q171.3906,215.5272 170.0625,213.8866 Q168.75,212.2303 168.75,209.1053 Q168.75,205.9803 170.0625,204.3241 Q171.3906,202.6678 173.8906,202.6678 Q174.5938,202.6678 175.2344,202.8241 Q175.8906,202.9803 176.4531,203.2772 L176.4531,205.9959 Q175.8281,205.4178 175.2344,205.1522 Q174.6406,204.8709 174.0156,204.8709 Q172.6719,204.8709 171.9844,205.9491 Q171.2969,207.0116 171.2969,209.1053 Q171.2969,211.1991 171.9844,212.2772 Q172.6719,213.3397 174.0156,213.3397 Q174.6406,213.3397 175.2344,213.0741 Q175.8281,212.7928 176.4531,212.2147 L176.4531,214.9334 Z " fill="#000000"/><text fill="#000000" font-family="sans-serif" font-size="12" font-style="italic" lengthAdjust="spacing" textLength="184.3418" x="191.9844" y="205.2987">&#171;UnsharedConcreteFlyweight&#187;</text><text fill="#000000" font-family="sans-serif" font-size="14" lengthAdjust="spacing" textLength="124.209" x="222.0508" y="221.1239">CharacterContext</text><line style="stroke:#181818;stroke-width:0.5;" x1="8" x2="527.8105" y1="229.4256" y2="229.4256"/><text fill="#000000" font-family="sans-serif" font-size="14" lengthAdjust="spacing" textLength="150.377" x="13" y="246.4207">-character: Character</text><text fill="#000000" font-family="sans-serif" font-size="14" lengthAdjust="spacing" textLength="124.6807" x="13" y="262.7176">-position: Position</text><text fill="#000000" font-family="sans-serif" font-size="14" lengthAdjust="spacing" textLength="85.2441" x="13" y="279.0145">-color: Color</text><line style="stroke:#181818;stroke-width:0.5;" x1="8" x2="527.8105" y1="286.3162" y2="286.3162"/><text fill="#000000" font-family="sans-serif" font-size="14" lengthAdjust="spacing" textLength="509.8105" x="13" y="303.3114">+CharacterContext(character: Character, position: Position, color: Color)</text><text fill="#000000" font-family="sans-serif" font-size="14" lengthAdjust="spacing" textLength="111.1592" x="13" y="319.6082">+display(): void</text></g><!--class CharacterFactory--><g class="entity" data-entity="CharacterFactory" data-source-line="29" data-uid="ent0005" id="entity_CharacterFactory"><rect fill="#F1F1F1" height="137.75" rx="3.5" ry="3.5" style="stroke:#181818;stroke-width:0.5;" width="416.3936" x="740.71" y="189.16"/><ellipse cx="883.8853" cy="209.2928" fill="#ADD1B2" rx="11" ry="11" style="stroke:#181818;stroke-width:1;"/><path d="M886.854,214.9334 Q886.2759,215.2303 885.6353,215.3709 Q884.9947,215.5272 884.2915,215.5272 Q881.7915,215.5272 880.4634,213.8866 Q879.1509,212.2303 879.1509,209.1053 Q879.1509,205.9803 880.4634,204.3241 Q881.7915,202.6678 884.2915,202.6678 Q884.9947,202.6678 885.6353,202.8241 Q886.2915,202.9803 886.854,203.2772 L886.854,205.9959 Q886.229,205.4178 885.6353,205.1522 Q885.0415,204.8709 884.4165,204.8709 Q883.0728,204.8709 882.3853,205.9491 Q881.6978,207.0116 881.6978,209.1053 Q881.6978,211.1991 882.3853,212.2772 Q883.0728,213.3397 884.4165,213.3397 Q885.0415,213.3397 885.6353,213.0741 Q886.229,212.7928 886.854,212.2147 L886.854,214.9334 Z " fill="#000000"/><text fill="#000000" font-family="sans-serif" font-size="12" font-style="italic" lengthAdjust="spacing" textLength="117.416" x="906.4488" y="205.2987">&#171;FlyweightFactory&#187;</text><text fill="#000000" font-family="sans-serif" font-size="14" lengthAdjust="spacing" textLength="121.543" x="904.3853" y="221.1239">CharacterFactory</text><line style="stroke:#181818;stroke-width:0.5;" x1="741.71" x2="1156.1036" y1="229.4256" y2="229.4256"/><text fill="#000000" font-family="sans-serif" font-size="14" lengthAdjust="spacing" textLength="283.5273" x="746.71" y="246.4207">-characterPool: Map&lt;String, Character&gt;</text><text fill="#000000" font-family="sans-serif" font-size="14" lengthAdjust="spacing" textLength="195.0703" x="746.71" y="262.7176">-instance: CharacterFactory</text><line style="stroke:#181818;stroke-width:0.5;" x1="741.71" x2="1156.1036" y1="270.0194" y2="270.0194"/><text fill="#000000" font-family="sans-serif" font-size="14" lengthAdjust="spacing" textLength="235.9014" x="746.71" y="287.0145">+getInstance(): CharacterFactory</text><text fill="#000000" font-family="sans-serif" font-size="14" lengthAdjust="spacing" textLength="404.3936" x="746.71" y="303.3114">+getCharacter(char: char, font: Font, size: int): Character</text><text fill="#000000" font-family="sans-serif" font-size="14" lengthAdjust="spacing" textLength="349.0977" x="746.71" y="319.6082">-createKey(char: char, font: Font, size: int): String</text></g><!--class Document--><g class="entity" data-entity="Document" data-source-line="38" data-uid="ent0006" id="entity_Document"><rect fill="#F1F1F1" height="105.1563" rx="3.5" ry="3.5" style="stroke:#181818;stroke-width:0.5;" width="597.8877" x="308.96" y="7"/><ellipse cx="567.3892" cy="27.1328" fill="#ADD1B2" rx="11" ry="11" style="stroke:#181818;stroke-width:1;"/><path d="M570.3579,32.7734 Q569.7798,33.0703 569.1392,33.2109 Q568.4986,33.3672 567.7954,33.3672 Q565.2954,33.3672 563.9673,31.7266 Q562.6548,30.0703 562.6548,26.9453 Q562.6548,23.8203 563.9673,22.1641 Q565.2954,20.5078 567.7954,20.5078 Q568.4986,20.5078 569.1392,20.6641 Q569.7954,20.8203 570.3579,21.1172 L570.3579,23.8359 Q569.7329,23.2578 569.1392,22.9922 Q568.5454,22.7109 567.9204,22.7109 Q566.5767,22.7109 565.8892,23.7891 Q565.2017,24.8516 565.2017,26.9453 Q565.2017,29.0391 565.8892,30.1172 Q566.5767,31.1797 567.9204,31.1797 Q568.5454,31.1797 569.1392,30.9141 Q569.7329,30.6328 570.3579,30.0547 L570.3579,32.7734 Z " fill="#000000"/><text fill="#000000" font-family="sans-serif" font-size="12" font-style="italic" lengthAdjust="spacing" textLength="49.4238" x="599.4419" y="23.1387">&#171;Client&#187;</text><text fill="#000000" font-family="sans-serif" font-size="14" lengthAdjust="spacing" textLength="72.5293" x="587.8892" y="38.9639">Document</text><line style="stroke:#181818;stroke-width:0.5;" x1="309.96" x2="905.8477" y1="47.2656" y2="47.2656"/><text fill="#000000" font-family="sans-serif" font-size="14" lengthAdjust="spacing" textLength="260.6953" x="314.96" y="64.2607">-characters: List&lt;CharacterContext&gt;</text><line style="stroke:#181818;stroke-width:0.5;" x1="309.96" x2="905.8477" y1="71.5625" y2="71.5625"/><text fill="#000000" font-family="sans-serif" font-size="14" lengthAdjust="spacing" textLength="585.8877" x="314.96" y="88.5576">+addCharacter(char: char, position: Position, font: Font, size: int, color: Color): void</text><text fill="#000000" font-family="sans-serif" font-size="14" lengthAdjust="spacing" textLength="111.1592" x="314.96" y="104.8545">+display(): void</text></g><!--class Position--><g class="entity" data-entity="Position" data-source-line="45" data-uid="ent0007" id="entity_Position"><rect fill="#F1F1F1" height="80.5938" rx="3.5" ry="3.5" style="stroke:#181818;stroke-width:0.5;" width="87.0088" x="114.4" y="412.05"/><ellipse cx="129.4" cy="428.05" fill="#ADD1B2" rx="11" ry="11" style="stroke:#181818;stroke-width:1;"/><path d="M132.3688,433.6906 Q131.7906,433.9875 131.15,434.1281 Q130.5094,434.2844 129.8063,434.2844 Q127.3063,434.2844 125.9781,432.6438 Q124.6656,430.9875 124.6656,427.8625 Q124.6656,424.7375 125.9781,423.0813 Q127.3063,421.425 129.8063,421.425 Q130.5094,421.425 131.15,421.5813 Q131.8063,421.7375 132.3688,422.0344 L132.3688,424.7531 Q131.7438,424.175 131.15,423.9094 Q130.5563,423.6281 129.9313,423.6281 Q128.5875,423.6281 127.9,424.7063 Q127.2125,425.7688 127.2125,427.8625 Q127.2125,429.9563 127.9,431.0344 Q128.5875,432.0969 129.9313,432.0969 Q130.5563,432.0969 131.15,431.8313 Q131.7438,431.55 132.3688,430.9719 L132.3688,433.6906 Z " fill="#000000"/><text fill="#000000" font-family="sans-serif" font-size="14" lengthAdjust="spacing" textLength="55.0088" x="143.4" y="432.8967">Position</text><line style="stroke:#181818;stroke-width:0.5;" x1="115.4" x2="200.4088" y1="444.05" y2="444.05"/><text fill="#000000" font-family="sans-serif" font-size="14" lengthAdjust="spacing" textLength="47.4346" x="120.4" y="461.0451">+x: int</text><text fill="#000000" font-family="sans-serif" font-size="14" lengthAdjust="spacing" textLength="47.4346" x="120.4" y="477.342">+y: int</text><line style="stroke:#181818;stroke-width:0.5;" x1="115.4" x2="200.4088" y1="484.6438" y2="484.6438"/></g><!--class Font--><g class="entity" data-entity="Font" data-source-line="50" data-uid="ent0008" id="entity_Font"><rect fill="#F1F1F1" height="80.5938" rx="3.5" ry="3.5" style="stroke:#181818;stroke-width:0.5;" width="114.3818" x="603.71" y="760.55"/><ellipse cx="641.8406" cy="776.55" fill="#ADD1B2" rx="11" ry="11" style="stroke:#181818;stroke-width:1;"/><path d="M644.8094,782.1906 Q644.2312,782.4875 643.5906,782.6281 Q642.95,782.7844 642.2469,782.7844 Q639.7469,782.7844 638.4187,781.1438 Q637.1062,779.4875 637.1062,776.3625 Q637.1062,773.2375 638.4187,771.5813 Q639.7469,769.925 642.2469,769.925 Q642.95,769.925 643.5906,770.0813 Q644.2469,770.2375 644.8094,770.5344 L644.8094,773.2531 Q644.1844,772.675 643.5906,772.4094 Q642.9969,772.1281 642.3719,772.1281 Q641.0281,772.1281 640.3406,773.2063 Q639.6531,774.2688 639.6531,776.3625 Q639.6531,778.4563 640.3406,779.5344 Q641.0281,780.5969 642.3719,780.5969 Q642.9969,780.5969 643.5906,780.3313 Q644.1844,780.05 644.8094,779.4719 L644.8094,782.1906 Z " fill="#000000"/><text fill="#000000" font-family="sans-serif" font-size="14" lengthAdjust="spacing" textLength="30.9805" x="660.9808" y="781.3967">Font</text><line style="stroke:#181818;stroke-width:0.5;" x1="604.71" x2="717.0918" y1="792.55" y2="792.55"/><text fill="#000000" font-family="sans-serif" font-size="14" lengthAdjust="spacing" textLength="102.3818" x="609.71" y="809.5451">+name: String</text><text fill="#000000" font-family="sans-serif" font-size="14" lengthAdjust="spacing" textLength="96.25" x="609.71" y="825.842">+style: String</text><line style="stroke:#181818;stroke-width:0.5;" x1="604.71" x2="717.0918" y1="833.1438" y2="833.1438"/></g><!--class Color--><g class="entity" data-entity="Color" data-source-line="55" data-uid="ent0009" id="entity_Color"><rect fill="#F1F1F1" height="96.8906" rx="3.5" ry="3.5" style="stroke:#181818;stroke-width:0.5;" width="91.8916" x="235.96" y="403.91"/><ellipse cx="261.4629" cy="419.91" fill="#ADD1B2" rx="11" ry="11" style="stroke:#181818;stroke-width:1;"/><path d="M264.4317,425.5506 Q263.8536,425.8475 263.2129,425.9881 Q262.5723,426.1444 261.8692,426.1444 Q259.3692,426.1444 258.0411,424.5037 Q256.7286,422.8475 256.7286,419.7225 Q256.7286,416.5975 258.0411,414.9412 Q259.3692,413.285 261.8692,413.285 Q262.5723,413.285 263.2129,413.4412 Q263.8692,413.5975 264.4317,413.8944 L264.4317,416.6131 Q263.8067,416.035 263.2129,415.7694 Q262.6192,415.4881 261.9942,415.4881 Q260.6504,415.4881 259.9629,416.5662 Q259.2754,417.6287 259.2754,419.7225 Q259.2754,421.8162 259.9629,422.8944 Q260.6504,423.9569 261.9942,423.9569 Q262.6192,423.9569 263.2129,423.6912 Q263.8067,423.41 264.4317,422.8319 L264.4317,425.5506 Z " fill="#000000"/><text fill="#000000" font-family="sans-serif" font-size="14" lengthAdjust="spacing" textLength="36.5518" x="277.7969" y="424.7567">Color</text><line style="stroke:#181818;stroke-width:0.5;" x1="236.96" x2="326.8516" y1="435.91" y2="435.91"/><text fill="#000000" font-family="sans-serif" font-size="14" lengthAdjust="spacing" textLength="62.4053" x="241.96" y="452.9051">+red: int</text><text fill="#000000" font-family="sans-serif" font-size="14" lengthAdjust="spacing" textLength="79.8916" x="241.96" y="469.202">+green: int</text><text fill="#000000" font-family="sans-serif" font-size="14" lengthAdjust="spacing" textLength="69.4121" x="241.96" y="485.4989">+blue: int</text><line style="stroke:#181818;stroke-width:0.5;" x1="236.96" x2="326.8516" y1="492.8006" y2="492.8006"/></g><g class="entity" data-entity="GMN20" data-source-line="74" data-uid="ent0021" id="entity_GMN20"><path d="M884.72,598.91 L884.72,626.67 L850.47,630.67 L884.72,634.67 L884.72,662.4413 A3.5,3.5 0 0 0 888.22,665.9413 L1023.6,665.9413 A3.5,3.5 0 0 0 1027.1,662.4413 L1027.1,605.41 L1017.1,595.41 L888.22,595.41 A3.5,3.5 0 0 0 884.72,598.91" fill="#E5E5E5" style="stroke:#191919;stroke-width:1.5;"/><path d="M1017.1,595.41 L1017.1,603.66 A1.75,1.75 0 0 0 1018.85,605.41 L1027.1,605.41 L1017.1,595.41" fill="#E5E5E5" style="stroke:#191919;stroke-width:1.5;"/><text fill="#191919" font-family="sans-serif" font-size="13" lengthAdjust="spacing" textLength="121.38" x="890.72" y="612.4769">&#20869;&#37096;&#29366;&#24577;&#65288;&#21487;&#20849;&#20139;&#65289;:</text><text fill="#191919" font-family="sans-serif" font-size="13" lengthAdjust="spacing" textLength="60.8233" x="890.72" y="627.6097">- &#23383;&#31526;&#20869;&#23481;</text><text fill="#191919" font-family="sans-serif" font-size="13" lengthAdjust="spacing" textLength="60.8233" x="890.72" y="642.7425">- &#23383;&#20307;&#20449;&#24687;</text><text fill="#191919" font-family="sans-serif" font-size="13" lengthAdjust="spacing" textLength="60.8233" x="890.72" y="657.8753">- &#23383;&#20307;&#22823;&#23567;</text></g><g class="entity" data-entity="GMN23" data-source-line="81" data-uid="ent0024" id="entity_GMN23"><path d="M563.72,233.83 L563.72,254.03 L529.18,258.03 L563.72,262.03 L563.72,282.2284 A3.5,3.5 0 0 0 567.22,285.7284 L702.6,285.7284 A3.5,3.5 0 0 0 706.1,282.2284 L706.1,240.33 L696.1,230.33 L567.22,230.33 A3.5,3.5 0 0 0 563.72,233.83" fill="#E5E5E5" style="stroke:#191919;stroke-width:1.5;"/><path d="M696.1,230.33 L696.1,238.58 A1.75,1.75 0 0 0 697.85,240.33 L706.1,240.33 L696.1,230.33" fill="#E5E5E5" style="stroke:#191919;stroke-width:1.5;"/><text fill="#191919" font-family="sans-serif" font-size="13" lengthAdjust="spacing" textLength="121.38" x="569.72" y="247.3969">&#22806;&#37096;&#29366;&#24577;&#65288;&#19981;&#20849;&#20139;&#65289;:</text><text fill="#191919" font-family="sans-serif" font-size="13" lengthAdjust="spacing" textLength="60.8233" x="569.72" y="262.5297">- &#23383;&#31526;&#20301;&#32622;</text><text fill="#191919" font-family="sans-serif" font-size="13" lengthAdjust="spacing" textLength="60.8233" x="569.72" y="277.6625">- &#23383;&#31526;&#39068;&#33394;</text></g><g class="entity" data-entity="GMN26" data-source-line="87" data-uid="ent0027" id="entity_GMN26"><path d="M855.99,420.59 L855.99,484.1213 A3.5,3.5 0 0 0 859.49,487.6213 L1038.3134,487.6213 A3.5,3.5 0 0 0 1041.8134,484.1213 L1041.8134,427.09 L1031.8134,417.09 L952.91,417.09 L948.91,327.38 L944.91,417.09 L859.49,417.09 A3.5,3.5 0 0 0 855.99,420.59" fill="#E5E5E5" style="stroke:#191919;stroke-width:1.5;"/><path d="M1031.8134,417.09 L1031.8134,425.34 A1.75,1.75 0 0 0 1033.5634,427.09 L1041.8134,427.09 L1031.8134,417.09" fill="#E5E5E5" style="stroke:#191919;stroke-width:1.5;"/><text fill="#191919" font-family="sans-serif" font-size="13" lengthAdjust="spacing" textLength="69.38" x="861.99" y="434.1569">&#20139;&#20803;&#27744;&#31649;&#29702;:</text><text fill="#191919" font-family="sans-serif" font-size="13" lengthAdjust="spacing" textLength="138.8234" x="861.99" y="449.2897">- &#32500;&#25252;&#24050;&#21019;&#24314;&#30340;&#23383;&#31526;&#20139;&#20803;</text><text fill="#191919" font-family="sans-serif" font-size="13" lengthAdjust="spacing" textLength="164.8234" x="861.99" y="464.4225">- &#26681;&#25454;&#23383;&#31526;&#12289;&#23383;&#20307;&#12289;&#22823;&#23567;&#32452;&#21512;</text><text fill="#191919" font-family="sans-serif" font-size="13" lengthAdjust="spacing" textLength="117.0001" x="870.2546" y="479.5553">&#36820;&#22238;&#30456;&#21516;&#30340;&#20139;&#20803;&#23454;&#20363;</text></g><!--reverse link Character to ConcreteCharacter--><g class="link" data-entity-1="Character" data-entity-2="ConcreteCharacter" data-source-line="62" data-uid="lnk10" id="link_Character_ConcreteCharacter"><path codeLine="62" d="M573.8354,503.8297 C588.2554,524.6597 596.67,536.84 613.79,561.58" fill="none" id="Character-backto-ConcreteCharacter" style="stroke:#191919;stroke-width:1;stroke-dasharray:7.0,7.0;"/><polygon fill="none" points="563.59,489.03,568.9022,507.2449,578.7686,500.4146,563.59,489.03" style="stroke:#191919;stroke-width:1;"/></g><!--reverse link CharacterContext to Character--><g class="link" data-entity-1="CharacterContext" data-entity-2="Character" data-source-line="63" data-uid="lnk11" id="link_CharacterContext_Character"><path codeLine="63" d="M361.6503,334.4443 C402.5703,364.2443 441.05,390.87 478.36,415.61" fill="none" id="CharacterContext-backto-Character" style="stroke:#191919;stroke-width:1;"/><polygon fill="#191919" points="351.95,327.38,354.4454,334.1456,361.6503,334.4443,359.1549,327.6787,351.95,327.38" style="stroke:#191919;stroke-width:1;"/></g><!--link CharacterContext to Character--><g class="link" data-entity-1="CharacterContext" data-entity-2="Character" data-source-line="64" data-uid="lnk12" id="link_CharacterContext_Character"><path codeLine="64" d="M377.2,327.38 C420.32,357.18 452.7883,379.914 485.0383,404.654" fill="none" id="CharacterContext-to-Character" style="stroke:#191919;stroke-width:1;stroke-dasharray:7.0,7.0;"/><polygon fill="none" points="499.32,415.61,488.6903,399.8935,481.3863,409.4146,499.32,415.61" style="stroke:#191919;stroke-width:1;"/></g><!--reverse link CharacterContext to Position--><g class="link" data-entity-1="CharacterContext" data-entity-2="Position" data-source-line="65" data-uid="lnk13" id="link_CharacterContext_Position"><path codeLine="65" d="M222.8508,337.7957 C206.6708,366.0757 194.45,387.46 180.54,411.78" fill="none" id="CharacterContext-backto-Position" style="stroke:#191919;stroke-width:1;"/><polygon fill="#191919" points="228.81,327.38,222.3585,330.6015,222.8508,337.7957,229.3023,334.5743,228.81,327.38" style="stroke:#191919;stroke-width:1;"/></g><!--reverse link CharacterContext to Color--><g class="link" data-entity-1="CharacterContext" data-entity-2="Color" data-source-line="66" data-uid="lnk14" id="link_CharacterContext_Color"><path codeLine="66" d="M273.7509,339.3484 C275.5809,364.4984 276.75,380.47 278.42,403.44" fill="none" id="CharacterContext-backto-Color" style="stroke:#191919;stroke-width:1;"/><polygon fill="#191919" points="272.88,327.38,269.326,333.6545,273.7509,339.3484,277.3049,333.0739,272.88,327.38" style="stroke:#191919;stroke-width:1;"/></g><!--link CharacterFactory to ConcreteCharacter--><g class="link" data-entity-1="CharacterFactory" data-entity-2="ConcreteCharacter" data-source-line="67" data-uid="lnk15" id="link_CharacterFactory_ConcreteCharacter"><path codeLine="67" d="M863.41,327.36 C837.77,350.15 810.69,376.71 788.91,403.91 C749.89,452.61 718.3018,509.3277 695.0618,556.0577" fill="none" id="CharacterFactory-to-ConcreteCharacter" style="stroke:#191919;stroke-width:1;stroke-dasharray:7.0,7.0;"/><polygon fill="#191919" points="692.39,561.43,699.9792,555.1527,694.6165,556.9531,692.8161,551.5904,692.39,561.43" style="stroke:#191919;stroke-width:1;"/><text fill="#000000" font-family="sans-serif" font-size="13" lengthAdjust="spacing" textLength="48.3247" x="789.91" y="456.9169">creates</text></g><!--reverse link CharacterFactory to Character--><g class="link" data-entity-1="CharacterFactory" data-entity-2="Character" data-source-line="68" data-uid="lnk16" id="link_CharacterFactory_Character"><path codeLine="68" d="M729.269,329.1981 C705.069,339.0081 692.2,345.27 669.91,356.91 C638.59,373.25 606.36,396.39 581.71,415.67" fill="none" id="CharacterFactory-backto-Character" style="stroke:#191919;stroke-width:1;"/><polygon fill="#191919" points="740.39,324.69,733.3268,323.2371,729.269,329.1981,736.3322,330.6511,740.39,324.69" style="stroke:#191919;stroke-width:1;"/><text fill="#000000" font-family="sans-serif" font-size="13" lengthAdjust="spacing" textLength="59.8584" x="670.91" y="369.9769">manages</text></g><!--link Document to CharacterContext--><g class="link" data-entity-1="Document" data-entity-2="CharacterContext" data-source-line="69" data-uid="lnk17" id="link_Document_CharacterContext"><path codeLine="69" d="M518.13,112.45 C477.7,135.81 434.6052,160.7083 391.2852,185.7383" fill="none" id="Document-to-CharacterContext" style="stroke:#191919;stroke-width:1;"/><polygon fill="#191919" points="386.09,188.74,395.8839,187.7008,390.4193,186.2386,391.8816,180.774,386.09,188.74" style="stroke:#191919;stroke-width:1;"/><text fill="#000000" font-family="sans-serif" font-size="13" lengthAdjust="spacing" textLength="55.0278" x="459.91" y="155.2269">contains</text></g><!--link Document to CharacterFactory--><g class="link" data-entity-1="Document" data-entity-2="CharacterFactory" data-source-line="70" data-uid="lnk18" id="link_Document_CharacterFactory"><path codeLine="70" d="M697.95,112.45 C738.49,135.81 781.721,160.715 825.171,185.745" fill="none" id="Document-to-CharacterFactory" style="stroke:#191919;stroke-width:1;stroke-dasharray:7.0,7.0;"/><polygon fill="#191919" points="830.37,188.74,824.5681,180.7815,826.0375,186.2442,820.5748,187.7136,830.37,188.74" style="stroke:#191919;stroke-width:1;"/><text fill="#000000" font-family="sans-serif" font-size="13" lengthAdjust="spacing" textLength="29.7832" x="779.91" y="155.2269">uses</text></g><!--reverse link ConcreteCharacter to Font--><g class="link" data-entity-1="ConcreteCharacter" data-entity-2="Font" data-source-line="71" data-uid="lnk19" id="link_ConcreteCharacter_Font"><path codeLine="71" d="M660.91,711.59 C660.91,732.19 660.91,742.14 660.91,760.23" fill="none" id="ConcreteCharacter-backto-Font" style="stroke:#191919;stroke-width:1;"/><polygon fill="#191919" points="660.91,699.59,656.91,705.59,660.91,711.59,664.91,705.59,660.91,699.59" style="stroke:#191919;stroke-width:1;"/></g><!--SRC=[bLLTJzDG6BxlhpXS2UuZNZVB4ZB14D4GqH_GRMUZiJjTrZDb0Wc8mp55I3IOY1A6-1LqE30E68CVuquxhlWBdjFJhgKjWhlepddxlk_pVZxjmnCm1q5EAcX2NnfcP0J1lQ74_S6xjqQ7G4gHD4tG7ieeBnMa7ByFOboGaqKCHr8g6fUVG7134Au1lThkDcgTmsrIdZSQBK5661OoKWg2n0GrJj4RYCM6bT9ZA6SdS3mEfWH0VrDIKiFi_Gm8fMKjhqYb_hogoLXMaGZ6hDE021wfSbgOOL2atEoqN_UWG0IG7s-Dxv-vH32Z10aLfGeGGpUwBVD74KbHDH6m9xzdL8H5C4oV_AxHH4KWMzUGptk_uo0C7ECmw1aESCihvdZwOPsK6pIZW3JRIqQxtZcfwNCxTh9s63Gk32SnpVK1qgWGfY_9sRGI7GVyZJyuoq9LLARD_gn2U93xWvo6WTzX6BYTUOfphXIy0gJvYRnwoYRBa_8mVQg5adkuB550fcEggeZWZfIFZTCfHjcmuoVELMMaOGcbeEX3u25c8HwnL5YO5ohzpsJuwayx9c5u6vQkPCnJiNQZlgbNciRs3fyOVVMvNljebUoccYhc86BJaL1aUWWea2Q2KLd3CMzVUNL2KZeTd5XGWmFZzVJTQlJ5tUyUbqdrczDtsxqLUMZIjPKbVgPsN9T1stf8oi5UgKo9XaiAT5VF9WuQbsr55yZbFrk04BdkIQK8Uv2Cb_QClPRWOfpfQDHFH89lMwz78k0VhwFHwJYunBotfy7EpONrhKmq6W_WITfIS_mqly6vGAbYJa9IbYhs9YiIYVl9Y3ga9ubkbgDeGdlTYw2eCLXVI0pNv681gHY20bjoe6O2QWi0MIYVpdyrgh_rsRcpemfPtk54UdQqADBNDejIDL8_i0NiUy89rH6GhI_avx80KHemL1-s9qq6lRNgXkxiBmL2Sm9t2KutttSNTxr8IHLZDNSEoY4PJefwOyEeruoL1UxUQFtIgrkakKigQwHrQBnxTkx3o5JqZGDzgSx5VsRdUARiO2Phj9wHbOevtDsJDsHjtLZR9oilgIEBXElhdUCNlK3_0W00]--></g></svg>