<?xml version="1.0" encoding="UTF-8"?>
<svg id="Layer_1" xmlns="http://www.w3.org/2000/svg" xmlns:xlink="http://www.w3.org/1999/xlink" viewBox="0 0 270.77 312.97">
  <defs>
    <style>
      .cls-1, .cls-2 {
        font-family: Noteworthy-Bold, Noteworthy;
        font-weight: 700;
      }

      .cls-1, .cls-2, .cls-3 {
        fill: #231f20;
      }

      .cls-1, .cls-3 {
        font-size: 24px;
      }

      .cls-2 {
        font-size: 48px;
      }

      .cls-4 {
        fill: url(#Orange_Yellow);
      }

      .cls-5 {
        fill: url(#linear-gradient);
      }

      .cls-6 {
        fill: url(#Fading_Sky);
      }

      .cls-3 {
        font-family: AmericanTypewriter-Semibold, 'American Typewriter';
        font-weight: 600;
      }

      .cls-7 {
        fill: #fff;
      }

      .cls-7, .cls-8 {
        stroke-width: 3px;
      }

      .cls-7, .cls-8, .cls-9 {
        stroke: #231f20;
        stroke-miterlimit: 10;
      }

      .cls-8 {
        fill: #a97c50;
      }

      .cls-9 {
        fill: none;
        stroke-width: 2px;
      }

      .cls-10 {
        letter-spacing: 0em;
      }

      .cls-11 {
        letter-spacing: -.05em;
      }

      .cls-12 {
        letter-spacing: -.03em;
      }
    </style>
    <linearGradient id="Orange_Yellow" data-name="Orange, Yellow" x1="39.73" y1="159" x2="218.93" y2="159" gradientTransform="translate(61.86 -33.54) rotate(21.63)" gradientUnits="userSpaceOnUse">
      <stop offset="0" stop-color="#fff33b"/>
      <stop offset=".04" stop-color="#fee62d"/>
      <stop offset=".12" stop-color="#fdd51b"/>
      <stop offset=".2" stop-color="#fdca0f"/>
      <stop offset=".28" stop-color="#fdc70c"/>
      <stop offset=".67" stop-color="#f3903f"/>
      <stop offset=".89" stop-color="#ed683c"/>
      <stop offset="1" stop-color="#e93e3a"/>
    </linearGradient>
    <linearGradient id="Fading_Sky" data-name="Fading Sky" x1="111.9" y1="174.54" x2="151.79" y2="174.54" gradientUnits="userSpaceOnUse">
      <stop offset="0" stop-color="#2484c6"/>
      <stop offset="1" stop-color="#2484c6" stop-opacity="0"/>
    </linearGradient>
    <linearGradient id="linear-gradient" x1="65.15" y1="148.14" x2="111.9" y2="148.14" gradientUnits="userSpaceOnUse">
      <stop offset="0" stop-color="#158040"/>
      <stop offset="1" stop-color="#6dbe45" stop-opacity="0"/>
    </linearGradient>
  </defs>
  <rect class="cls-7" x="27.91" y="1.5" width="241.36" height="292" rx="52.82" ry="52.82"/>
  <rect class="cls-8" x="1.5" y="1.5" width="241.36" height="292" rx="27.43" ry="27.43"/>
  <path class="cls-9" d="M216.06,1.5c72.2,0,4.2,148.33,53.21,148.33"/>
  <path class="cls-9" d="M216.45,293.5c67.81,0,8.48-143.67,52.82-143.67"/>
  <path class="cls-9" d="M216.45,1.5c76.39,0,24.5,148.33,52.82,148.33"/>
  <path class="cls-9" d="M216.45,293.5c76.39,0,24.5-143.67,52.82-143.67"/>
  <text class="cls-2" transform="translate(27.91 80.92)"><tspan x="0" y="0">N</tspan><tspan class="cls-11" x="33.3" y="0">o</tspan><tspan class="cls-12" x="55.74" y="0">t</tspan><tspan class="cls-10" x="72.12" y="0">ebook</tspan></text>
  <text class="cls-1" transform="translate(24.98 217.22) rotate(-57.83) scale(.83 1)"><tspan x="0" y="0"> </tspan></text>
  <text class="cls-1" transform="translate(28.13 212.3) rotate(-53.91) scale(.83 1)"><tspan x="0" y="0"> </tspan></text>
  <text class="cls-1" transform="translate(31.53 207.73) rotate(-48.42) scale(.83 1)"><tspan x="0" y="0"> </tspan></text>
  <text class="cls-1" transform="translate(35.26 203.63) rotate(-40.48) scale(.83 1)"><tspan x="0" y="0"> </tspan></text>
  <text class="cls-1" transform="translate(39.32 200.27) rotate(-29.33) scale(.83 1)"><tspan x="0" y="0"> </tspan></text>
  <text class="cls-3" transform="translate(42.82 197.25) rotate(-4.33) scale(.83 1)"><tspan x="0" y="0">L</tspan></text>
  <text class="cls-3" transform="translate(56.61 197.43) rotate(20.35) scale(.83 1)"><tspan x="0" y="0">i</tspan></text>
  <text class="cls-3" transform="translate(64.52 200.61) rotate(29.7) scale(.83 1)"><tspan x="0" y="0">t</tspan></text>
  <text class="cls-3" transform="translate(73.78 206.09) rotate(33.24) scale(.83 1)"><tspan x="0" y="0">t</tspan></text>
  <text class="cls-3" transform="translate(82.93 212.13) rotate(33.24) scale(.83 1)"><tspan x="0" y="0">l</tspan></text>
  <text class="cls-3" transform="translate(90.95 217.39) rotate(31) scale(.83 1)"><tspan x="0" y="0">e</tspan></text>
  <text class="cls-3" transform="translate(103.3 224.59) rotate(27.29) scale(.83 1)"><tspan x="0" y="0"> </tspan></text>
  <text class="cls-3" transform="translate(111.42 228.82) rotate(21.6) scale(.83 1)"><tspan x="0" y="0">G</tspan></text>
  <text class="cls-3" transform="translate(129.03 235.33) rotate(13.43) scale(.83 1)"><tspan x="0" y="0">o</tspan></text>
  <text class="cls-3" transform="translate(143.83 238.48) rotate(7.16) scale(.83 1)"><tspan x="0" y="0">l</tspan></text>
  <text class="cls-3" transform="translate(154.18 239.7) rotate(.93) scale(.83 1)"><tspan x="0" y="0">d</tspan></text>
  <text class="cls-3" transform="translate(170.32 239.6) rotate(-4.9) scale(.83 1)"><tspan x="0" y="0">f</tspan></text>
  <text class="cls-3" transform="translate(181.56 238.46) rotate(-9.1) scale(.83 1)"><tspan x="0" y="0">i</tspan></text>
  <text class="cls-3" transform="translate(191.45 236.79) rotate(-13.13) scale(.83 1)"><tspan x="0" y="0">s</tspan></text>
  <text class="cls-3" transform="translate(204.77 233.57) rotate(-17.6) scale(.83 1)"><tspan x="0" y="0">h</tspan></text>
  <g>
    <path class="cls-4" d="M190.65,200.94c65.47-50.69-19.49-41.76-19.49-41.76,0,0-180.4,6.05-96.5-19.12,95.45-28.63,93.17,129.9,42.92,29.94-50.25-99.95-136.99-29.13-17.63,4.09"/>
    <path class="cls-6" d="M151.79,189.4c0-10.49-8.11-26.42-10.69-29.72h-29.2c4.13,7.35,11.68,21.47,11.68,21.47l28.21,8.26Z"/>
    <path class="cls-5" d="M94.09,136.6s9.55,9.29,17.81,23.08c-21.25,0-82.69-5.62-17.81-23.08Z"/>
  </g>
</svg>