
<svg xmlns="http://www.w3.org/2000/svg" xmlns:xlink="http://www.w3.org/1999/xlink" contentStyleType="text/css" data-diagram-type="CLASS" height="764px" preserveAspectRatio="none" style="width:710px;height:764px;background:#FFFFFF;" version="1.1" viewBox="0 0 710 764" width="710px" zoomAndPan="magnify"><defs/><g><!--class AbstractChatroom--><g class="entity" data-entity="AbstractChatroom" data-source-line="4" data-uid="ent0002" id="entity_AbstractChatroom"><rect fill="#F1F1F1" height="105.1563" rx="2.5" ry="2.5" style="stroke:#181818;stroke-width:0.5;" width="420.8301" x="217" y="7"/><ellipse cx="359.1602" cy="27.1328" fill="#A9DCDF" rx="11" ry="11" style="stroke:#181818;stroke-width:1;"/><path d="M359.2695,22.4766 L358.1133,27.5547 L360.4414,27.5547 L359.2695,22.4766 Z M357.7852,20.2422 L360.7695,20.2422 L364.1289,32.6328 L361.6758,32.6328 L360.9102,29.5703 L357.6289,29.5703 L356.8789,32.6328 L354.4414,32.6328 L357.7852,20.2422 Z " fill="#000000"/><text fill="#000000" font-family="sans-serif" font-size="12" font-style="italic" lengthAdjust="spacing" textLength="67.7051" x="409.8125" y="23.1387">&#171;Mediator&#187;</text><text fill="#000000" font-family="sans-serif" font-size="14" font-style="italic" lengthAdjust="spacing" textLength="128.0098" x="379.6602" y="38.9639">AbstractChatroom</text><line style="stroke:#181818;stroke-width:0.5;" x1="218" x2="636.8301" y1="47.2656" y2="47.2656"/><line style="stroke:#181818;stroke-width:0.5;" x1="218" x2="636.8301" y1="55.2656" y2="55.2656"/><ellipse cx="228" cy="68.9141" fill="#84BE84" rx="3" ry="3" style="stroke:#038048;stroke-width:1;"/><text fill="#000000" font-family="sans-serif" font-size="14" font-style="italic" lengthAdjust="spacing" textLength="229.9131" x="237" y="72.2607">register(member: Member): void</text><ellipse cx="228" cy="85.2109" fill="#84BE84" rx="3" ry="3" style="stroke:#038048;stroke-width:1;"/><text fill="#000000" font-family="sans-serif" font-size="14" font-style="italic" lengthAdjust="spacing" textLength="394.8301" x="237" y="88.5576">sendText(from: String, to: String, message: String): void</text><ellipse cx="228" cy="101.5078" fill="#84BE84" rx="3" ry="3" style="stroke:#038048;stroke-width:1;"/><text fill="#000000" font-family="sans-serif" font-size="14" font-style="italic" lengthAdjust="spacing" textLength="388.4248" x="237" y="104.8545">sendImage(from: String, to: String, image: String): void</text></g><!--class ChatGroup--><g class="entity" data-entity="ChatGroup" data-source-line="11" data-uid="ent0003" id="entity_ChatGroup"><rect fill="#F1F1F1" height="121.4531" rx="2.5" ry="2.5" style="stroke:#181818;stroke-width:0.5;" width="420.8301" x="7" y="173.16"/><ellipse cx="154.1484" cy="193.2928" fill="#ADD1B2" rx="11" ry="11" style="stroke:#181818;stroke-width:1;"/><path d="M157.1172,198.9334 Q156.5391,199.2303 155.8984,199.3709 Q155.2578,199.5272 154.5547,199.5272 Q152.0547,199.5272 150.7266,197.8866 Q149.4141,196.2303 149.4141,193.1053 Q149.4141,189.9803 150.7266,188.3241 Q152.0547,186.6678 154.5547,186.6678 Q155.2578,186.6678 155.8984,186.8241 Q156.5547,186.9803 157.1172,187.2772 L157.1172,189.9959 Q156.4922,189.4178 155.8984,189.1522 Q155.3047,188.8709 154.6797,188.8709 Q153.3359,188.8709 152.6484,189.9491 Q151.9609,191.0116 151.9609,193.1053 Q151.9609,195.1991 152.6484,196.2772 Q153.3359,197.3397 154.6797,197.3397 Q155.3047,197.3397 155.8984,197.0741 Q156.4922,196.7928 157.1172,196.2147 L157.1172,198.9334 Z " fill="#000000"/><text fill="#000000" font-family="sans-serif" font-size="12" font-style="italic" lengthAdjust="spacing" textLength="122.0332" x="172.6484" y="189.2987">&#171;ConcreteMediator&#187;</text><text fill="#000000" font-family="sans-serif" font-size="14" lengthAdjust="spacing" textLength="75.6465" x="195.8418" y="205.1239">ChatGroup</text><line style="stroke:#181818;stroke-width:0.5;" x1="8" x2="426.8301" y1="213.4256" y2="213.4256"/><rect fill="none" height="6" style="stroke:#C82930;stroke-width:1;" width="6" x="15" y="224.0741"/><text fill="#000000" font-family="sans-serif" font-size="14" lengthAdjust="spacing" textLength="139.043" x="27" y="230.4207">member: Hashtable</text><line style="stroke:#181818;stroke-width:0.5;" x1="8" x2="426.8301" y1="237.7225" y2="237.7225"/><ellipse cx="18" cy="251.3709" fill="#84BE84" rx="3" ry="3" style="stroke:#038048;stroke-width:1;"/><text fill="#000000" font-family="sans-serif" font-size="14" lengthAdjust="spacing" textLength="229.9131" x="27" y="254.7176">register(member: Member): void</text><ellipse cx="18" cy="267.6678" fill="#84BE84" rx="3" ry="3" style="stroke:#038048;stroke-width:1;"/><text fill="#000000" font-family="sans-serif" font-size="14" lengthAdjust="spacing" textLength="394.8301" x="27" y="271.0145">sendText(from: String, to: String, message: String): void</text><ellipse cx="18" cy="283.9647" fill="#84BE84" rx="3" ry="3" style="stroke:#038048;stroke-width:1;"/><text fill="#000000" font-family="sans-serif" font-size="14" lengthAdjust="spacing" textLength="388.4248" x="27" y="287.3114">sendImage(from: String, to: String, image: String): void</text></g><!--class Member--><g class="entity" data-entity="Member" data-source-line="19" data-uid="ent0004" id="entity_Member"><rect fill="#F1F1F1" height="235.5313" rx="2.5" ry="2.5" style="stroke:#181818;stroke-width:0.5;" width="370.6953" x="172.07" y="355.61"/><ellipse cx="317.9606" cy="375.7428" fill="#ADD1B2" rx="11" ry="11" style="stroke:#181818;stroke-width:1;"/><path d="M320.9294,381.3834 Q320.3513,381.6803 319.7106,381.8209 Q319.07,381.9772 318.3669,381.9772 Q315.8669,381.9772 314.5388,380.3366 Q313.2263,378.6803 313.2263,375.5553 Q313.2263,372.4303 314.5388,370.7741 Q315.8669,369.1178 318.3669,369.1178 Q319.07,369.1178 319.7106,369.2741 Q320.3669,369.4303 320.9294,369.7272 L320.9294,372.4459 Q320.3044,371.8678 319.7106,371.6022 Q319.1169,371.3209 318.4919,371.3209 Q317.1481,371.3209 316.4606,372.3991 Q315.7731,373.4616 315.7731,375.5553 Q315.7731,377.6491 316.4606,378.7272 Q317.1481,379.7897 318.4919,379.7897 Q319.1169,379.7897 319.7106,379.5241 Q320.3044,379.2428 320.9294,378.6647 L320.9294,381.3834 Z " fill="#000000"/><text fill="#000000" font-family="sans-serif" font-size="12" font-style="italic" lengthAdjust="spacing" textLength="74.4141" x="336.4606" y="371.7487">&#171;Colleague&#187;</text><text fill="#000000" font-family="sans-serif" font-size="14" lengthAdjust="spacing" textLength="57.5859" x="344.8747" y="387.5739">Member</text><line style="stroke:#181818;stroke-width:0.5;" x1="173.07" x2="541.7653" y1="395.8756" y2="395.8756"/><polygon fill="none" points="183.07,404.5241,187.07,408.5241,183.07,412.5241,179.07,408.5241" style="stroke:#B38D22;stroke-width:1;"/><text fill="#000000" font-family="sans-serif" font-size="14" lengthAdjust="spacing" textLength="204.3398" x="192.07" y="412.8707">chatroom: AbstractChatroom</text><polygon fill="none" points="183.07,420.8209,187.07,424.8209,183.07,428.8209,179.07,424.8209" style="stroke:#B38D22;stroke-width:1;"/><text fill="#000000" font-family="sans-serif" font-size="14" lengthAdjust="spacing" textLength="90.6514" x="192.07" y="429.1676">name: String</text><line style="stroke:#181818;stroke-width:0.5;" x1="173.07" x2="541.7653" y1="436.4694" y2="436.4694"/><ellipse cx="183.07" cy="450.1178" fill="#84BE84" rx="3" ry="3" style="stroke:#038048;stroke-width:1;"/><text fill="#000000" font-family="sans-serif" font-size="14" lengthAdjust="spacing" textLength="159.1611" x="192.07" y="453.4645">Member(name: String)</text><ellipse cx="183.07" cy="466.4147" fill="#84BE84" rx="3" ry="3" style="stroke:#038048;stroke-width:1;"/><text fill="#000000" font-family="sans-serif" font-size="14" lengthAdjust="spacing" textLength="126.1641" x="192.07" y="469.7614">getName(): String</text><ellipse cx="183.07" cy="482.7116" fill="#84BE84" rx="3" ry="3" style="stroke:#038048;stroke-width:1;"/><text fill="#000000" font-family="sans-serif" font-size="14" lengthAdjust="spacing" textLength="203.0684" x="192.07" y="486.0582">setName(name: String): void</text><ellipse cx="183.07" cy="499.0084" fill="#84BE84" rx="3" ry="3" style="stroke:#038048;stroke-width:1;"/><text fill="#000000" font-family="sans-serif" font-size="14" lengthAdjust="spacing" textLength="240.3311" x="192.07" y="502.3551">getChatroom(): AbstractChatroom</text><ellipse cx="183.07" cy="515.3053" fill="#84BE84" rx="3" ry="3" style="stroke:#038048;stroke-width:1;"/><text fill="#000000" font-family="sans-serif" font-size="14" lengthAdjust="spacing" textLength="344.6953" x="192.07" y="518.652">setChatroom(chatroom: AbstractChatroom): void</text><ellipse cx="183.07" cy="531.6022" fill="#84BE84" rx="3" ry="3" style="stroke:#038048;stroke-width:1;"/><text fill="#000000" font-family="sans-serif" font-size="14" lengthAdjust="spacing" textLength="302.0938" x="192.07" y="534.9489">sendText(to: String, message: String): void</text><ellipse cx="183.07" cy="547.8991" fill="#84BE84" rx="3" ry="3" style="stroke:#038048;stroke-width:1;"/><text fill="#000000" font-family="sans-serif" font-size="14" lengthAdjust="spacing" textLength="295.6885" x="192.07" y="551.2457">sendImage(to: String, image: String): void</text><ellipse cx="183.07" cy="564.1959" fill="#84BE84" rx="3" ry="3" style="stroke:#038048;stroke-width:1;"/><text fill="#000000" font-family="sans-serif" font-size="14" lengthAdjust="spacing" textLength="338.7275" x="192.07" y="567.5426">receiveText(from: String, message: String): void</text><ellipse cx="183.07" cy="580.4928" fill="#84BE84" rx="3" ry="3" style="stroke:#038048;stroke-width:1;"/><text fill="#000000" font-family="sans-serif" font-size="14" lengthAdjust="spacing" textLength="332.3223" x="192.07" y="583.8395">receiveImage(from: String, image: String): void</text></g><!--class DiamondMember--><g class="entity" data-entity="DiamondMember" data-source-line="34" data-uid="ent0005" id="entity_DiamondMember"><rect fill="#F1F1F1" height="105.1563" rx="2.5" ry="2.5" style="stroke:#181818;stroke-width:0.5;" width="328.0938" x="12.37" y="652.14"/><ellipse cx="109.7958" cy="672.2728" fill="#ADD1B2" rx="11" ry="11" style="stroke:#181818;stroke-width:1;"/><path d="M112.7645,677.9134 Q112.1864,678.2103 111.5458,678.3509 Q110.9052,678.5072 110.202,678.5072 Q107.702,678.5072 106.3739,676.8666 Q105.0614,675.2103 105.0614,672.0853 Q105.0614,668.9603 106.3739,667.3041 Q107.702,665.6478 110.202,665.6478 Q110.9052,665.6478 111.5458,665.8041 Q112.202,665.9603 112.7645,666.2572 L112.7645,668.9759 Q112.1395,668.3978 111.5458,668.1322 Q110.952,667.8509 110.327,667.8509 Q108.9833,667.8509 108.2958,668.9291 Q107.6083,669.9916 107.6083,672.0853 Q107.6083,674.1791 108.2958,675.2572 Q108.9833,676.3197 110.327,676.3197 Q110.952,676.3197 111.5458,676.0541 Q112.1395,675.7728 112.7645,675.1947 L112.7645,677.9134 Z " fill="#000000"/><text fill="#000000" font-family="sans-serif" font-size="12" font-style="italic" lengthAdjust="spacing" textLength="128.7422" x="128.2958" y="668.2787">&#171;ConcreteColleague&#187;</text><text fill="#000000" font-family="sans-serif" font-size="14" lengthAdjust="spacing" textLength="120.7979" x="132.2679" y="684.1039">DiamondMember</text><line style="stroke:#181818;stroke-width:0.5;" x1="13.37" x2="339.4638" y1="692.4056" y2="692.4056"/><line style="stroke:#181818;stroke-width:0.5;" x1="13.37" x2="339.4638" y1="700.4056" y2="700.4056"/><ellipse cx="23.37" cy="714.0541" fill="#84BE84" rx="3" ry="3" style="stroke:#038048;stroke-width:1;"/><text fill="#000000" font-family="sans-serif" font-size="14" lengthAdjust="spacing" textLength="222.373" x="32.37" y="717.4007">DiamondMember(name: String)</text><ellipse cx="23.37" cy="730.3509" fill="#84BE84" rx="3" ry="3" style="stroke:#038048;stroke-width:1;"/><text fill="#000000" font-family="sans-serif" font-size="14" lengthAdjust="spacing" textLength="302.0938" x="32.37" y="733.6976">sendText(to: String, message: String): void</text><ellipse cx="23.37" cy="746.6478" fill="#84BE84" rx="3" ry="3" style="stroke:#038048;stroke-width:1;"/><text fill="#000000" font-family="sans-serif" font-size="14" lengthAdjust="spacing" textLength="295.6885" x="32.37" y="749.9945">sendImage(to: String, image: String): void</text></g><!--class CommonMember--><g class="entity" data-entity="CommonMember" data-source-line="41" data-uid="ent0006" id="entity_CommonMember"><rect fill="#F1F1F1" height="105.1563" rx="2.5" ry="2.5" style="stroke:#181818;stroke-width:0.5;" width="328.0938" x="375.37" y="652.14"/><ellipse cx="472.7958" cy="672.2728" fill="#ADD1B2" rx="11" ry="11" style="stroke:#181818;stroke-width:1;"/><path d="M475.7645,677.9134 Q475.1864,678.2103 474.5458,678.3509 Q473.9052,678.5072 473.202,678.5072 Q470.702,678.5072 469.3739,676.8666 Q468.0614,675.2103 468.0614,672.0853 Q468.0614,668.9603 469.3739,667.3041 Q470.702,665.6478 473.202,665.6478 Q473.9052,665.6478 474.5458,665.8041 Q475.202,665.9603 475.7645,666.2572 L475.7645,668.9759 Q475.1395,668.3978 474.5458,668.1322 Q473.952,667.8509 473.327,667.8509 Q471.9833,667.8509 471.2958,668.9291 Q470.6083,669.9916 470.6083,672.0853 Q470.6083,674.1791 471.2958,675.2572 Q471.9833,676.3197 473.327,676.3197 Q473.952,676.3197 474.5458,676.0541 Q475.1395,675.7728 475.7645,675.1947 L475.7645,677.9134 Z " fill="#000000"/><text fill="#000000" font-family="sans-serif" font-size="12" font-style="italic" lengthAdjust="spacing" textLength="128.7422" x="491.2958" y="668.2787">&#171;ConcreteColleague&#187;</text><text fill="#000000" font-family="sans-serif" font-size="14" lengthAdjust="spacing" textLength="120.6406" x="495.3466" y="684.1039">CommonMember</text><line style="stroke:#181818;stroke-width:0.5;" x1="376.37" x2="702.4638" y1="692.4056" y2="692.4056"/><line style="stroke:#181818;stroke-width:0.5;" x1="376.37" x2="702.4638" y1="700.4056" y2="700.4056"/><ellipse cx="386.37" cy="714.0541" fill="#84BE84" rx="3" ry="3" style="stroke:#038048;stroke-width:1;"/><text fill="#000000" font-family="sans-serif" font-size="14" lengthAdjust="spacing" textLength="222.2158" x="395.37" y="717.4007">CommonMember(name: String)</text><ellipse cx="386.37" cy="730.3509" fill="#84BE84" rx="3" ry="3" style="stroke:#038048;stroke-width:1;"/><text fill="#000000" font-family="sans-serif" font-size="14" lengthAdjust="spacing" textLength="302.0938" x="395.37" y="733.6976">sendText(to: String, message: String): void</text><ellipse cx="386.37" cy="746.6478" fill="#84BE84" rx="3" ry="3" style="stroke:#038048;stroke-width:1;"/><text fill="#000000" font-family="sans-serif" font-size="14" lengthAdjust="spacing" textLength="295.6885" x="395.37" y="749.9945">sendImage(to: String, image: String): void</text></g><!--reverse link AbstractChatroom to ChatGroup--><g class="link" data-entity-1="AbstractChatroom" data-entity-2="ChatGroup" data-source-line="48" data-uid="lnk7" id="link_AbstractChatroom_ChatGroup"><path codeLine="48" d="M350.2078,123.9315 C327.0278,142.9615 314.51,153.22 290.53,172.89" fill="none" id="AbstractChatroom-backto-ChatGroup" style="stroke:#181818;stroke-width:1;"/><polygon fill="none" points="364.12,112.51,346.4006,119.2941,354.0149,128.5689,364.12,112.51" style="stroke:#181818;stroke-width:1;"/></g><!--reverse link Member to DiamondMember--><g class="link" data-entity-1="Member" data-entity-2="DiamondMember" data-source-line="49" data-uid="lnk8" id="link_Member_DiamondMember"><path codeLine="49" d="M253.9092,605.5301 C237.1792,626.7301 231.68,633.7 217.4,651.79" fill="none" id="Member-backto-DiamondMember" style="stroke:#181818;stroke-width:1;"/><polygon fill="none" points="265.06,591.4,249.1992,601.8132,258.6192,609.247,265.06,591.4" style="stroke:#181818;stroke-width:1;"/></g><!--reverse link Member to CommonMember--><g class="link" data-entity-1="Member" data-entity-2="CommonMember" data-source-line="50" data-uid="lnk9" id="link_Member_CommonMember"><path codeLine="50" d="M461.4717,605.4977 C478.3017,626.6977 483.85,633.7 498.2,651.79" fill="none" id="Member-backto-CommonMember" style="stroke:#181818;stroke-width:1;"/><polygon fill="none" points="450.28,591.4,456.7725,609.2283,466.171,601.7671,450.28,591.4" style="stroke:#181818;stroke-width:1;"/></g><!--link ChatGroup to Member--><g class="link" data-entity-1="ChatGroup" data-entity-2="Member" data-source-line="53" data-uid="lnk10" id="link_ChatGroup_Member"><path codeLine="53" d="M252.74,294.82 C263.68,313.37 273.0725,329.3116 285.4725,350.3416" fill="none" id="ChatGroup-to-Member" style="stroke:#181818;stroke-width:1;"/><polygon fill="#181818" points="288.52,355.51,287.3944,345.7257,285.9804,351.203,280.5031,349.789,288.52,355.51" style="stroke:#181818;stroke-width:1;"/></g><!--link Member to AbstractChatroom--><g class="link" data-entity-1="Member" data-entity-2="AbstractChatroom" data-source-line="54" data-uid="lnk11" id="link_Member_AbstractChatroom"><path codeLine="54" d="M424.69,355.2 C433.25,335.53 440.67,314.9 445.42,294.61 C459.8,233.11 451.3776,166.1672 441.5376,118.2772" fill="none" id="Member-to-AbstractChatroom" style="stroke:#181818;stroke-width:1;"/><polygon fill="#181818" points="440.33,112.4,438.2232,122.0209,441.3363,117.2977,446.0595,120.4108,440.33,112.4" style="stroke:#181818;stroke-width:1;"/><text fill="#000000" font-family="sans-serif" font-size="13" lengthAdjust="spacing" textLength="62.3657" x="454.42" y="238.4569">chatroom</text></g><!--SRC=[nPJDIiD04CVlUOeL3xRKl42GGgsW7kf1-mBRP9e6kbdPtOgWWWK5zQJYGRs8K10lXT9Z_7WPsxHlOT9DsiJ4MYbYBardv-it_yak652rR425rPtoTg5OHdeTSwueIwX_yJheF0wQ5xtMSw_TSZkEWYjSCAmBwOGAmTzY3Gj6AK4hAoKmB2meo-VHWOAyvo2CEK8v1gR51R0C0L81fg7Iw3UheJrg6Gbt3hPHXdsHgJ9ADBGZc6MRoqZGoJi1ph49eM5QfatYEKv9PP6KH4V-8EG8tBUMwvpuKv3mFlGweurTZxf8RPs1W0Iz6f9kO5uJk5A7aNcMISo9FoUp5Bz_Tjcxkfqmoov7mFKwOBC1Oz95FLW2BR4Myjp6P5nATYYpPQ87MNbYWjZoh9biF807vbX4bDcB2ulwiQcD-5d6JjytdIx5xuV_uxY3VT31seCKkQTL2QBILFvUsU6rupvqFrxkOygkMPXGsuW8B3SwANGkvfgctbzEIoxdNNjuVFyLeKY9rzSi157FVm5mdQV- -NlljEjs7ILvYnwgwkHwKK8YtngRVUmaokINy98FcZT1YSbTfQfv58_sBOaMD1H-6Py0]--></g></svg>