
<svg xmlns="http://www.w3.org/2000/svg" xmlns:xlink="http://www.w3.org/1999/xlink" contentStyleType="text/css" data-diagram-type="CLASS" height="561px" preserveAspectRatio="none" style="width:1188px;height:561px;background:#F9F9F9;" version="1.1" viewBox="0 0 1188 561" width="1188px" zoomAndPan="magnify"><defs/><g><rect fill="#F9F9F9" height="561" style="stroke:none;stroke-width:1;" width="1188" x="0" y="0"/><!--class Mediator--><g class="entity" data-entity="Mediator" data-source-line="6" data-uid="ent0002" id="entity_Mediator"><rect fill="#F1F1F1" height="64.2969" rx="3.5" ry="3.5" style="stroke:#181818;stroke-width:0.5;" width="378.6113" x="703.37" y="387.67"/><ellipse cx="857.4965" cy="403.67" fill="#A9DCDF" rx="11" ry="11" style="stroke:#181818;stroke-width:1;"/><path d="M857.6058,399.0137 L856.4496,404.0919 L858.7777,404.0919 L857.6058,399.0137 Z M856.1215,396.7794 L859.1058,396.7794 L862.4652,409.17 L860.0121,409.17 L859.2465,406.1075 L855.9652,406.1075 L855.2152,409.17 L852.7777,409.17 L856.1215,396.7794 Z " fill="#000000"/><text fill="#000000" font-family="sans-serif" font-size="14" font-style="italic" lengthAdjust="spacing" textLength="61.8584" x="877.9965" y="408.5167">Mediator</text><line style="stroke:#181818;stroke-width:0.5;" x1="704.37" x2="1080.9813" y1="419.67" y2="419.67"/><line style="stroke:#181818;stroke-width:0.5;" x1="704.37" x2="1080.9813" y1="427.67" y2="427.67"/><ellipse cx="714.37" cy="441.3184" fill="#84BE84" rx="3" ry="3" style="stroke:#038048;stroke-width:1;"/><text fill="#000000" font-family="sans-serif" font-size="14" font-style="italic" lengthAdjust="spacing" textLength="352.6113" x="723.37" y="444.6651">send(message: String, colleague: Colleague): void</text></g><!--class ConcreteMediator--><g class="entity" data-entity="ConcreteMediator" data-source-line="11" data-uid="ent0003" id="entity_ConcreteMediator"><rect fill="#F1F1F1" height="113.1875" rx="3.5" ry="3.5" style="stroke:#181818;stroke-width:0.5;" width="378.6113" x="590.37" y="7"/><ellipse cx="712.8051" cy="23" fill="#ADD1B2" rx="11" ry="11" style="stroke:#181818;stroke-width:1;"/><path d="M715.7738,28.6406 Q715.1957,28.9375 714.5551,29.0781 Q713.9144,29.2344 713.2113,29.2344 Q710.7113,29.2344 709.3832,27.5938 Q708.0707,25.9375 708.0707,22.8125 Q708.0707,19.6875 709.3832,18.0313 Q710.7113,16.375 713.2113,16.375 Q713.9144,16.375 714.5551,16.5313 Q715.2113,16.6875 715.7738,16.9844 L715.7738,19.7031 Q715.1488,19.125 714.5551,18.8594 Q713.9613,18.5781 713.3363,18.5781 Q711.9926,18.5781 711.3051,19.6563 Q710.6176,20.7188 710.6176,22.8125 Q710.6176,24.9063 711.3051,25.9844 Q711.9926,27.0469 713.3363,27.0469 Q713.9613,27.0469 714.5551,26.7813 Q715.1488,26.5 715.7738,25.9219 L715.7738,28.6406 Z " fill="#000000"/><text fill="#000000" font-family="sans-serif" font-size="14" lengthAdjust="spacing" textLength="125.2412" x="733.3051" y="27.8467">ConcreteMediator</text><line style="stroke:#181818;stroke-width:0.5;" x1="591.37" x2="967.9813" y1="39" y2="39"/><rect fill="none" height="6" style="stroke:#C82930;stroke-width:1;" width="6" x="598.37" y="49.6484"/><text fill="#000000" font-family="sans-serif" font-size="14" lengthAdjust="spacing" textLength="201.6875" x="610.37" y="55.9951">colleagues: List&lt;Colleague&gt;</text><line style="stroke:#181818;stroke-width:0.5;" x1="591.37" x2="967.9813" y1="63.2969" y2="63.2969"/><ellipse cx="601.37" cy="76.9453" fill="#84BE84" rx="3" ry="3" style="stroke:#038048;stroke-width:1;"/><text fill="#000000" font-family="sans-serif" font-size="14" lengthAdjust="spacing" textLength="292.2158" x="610.37" y="80.292">addColleague(colleague: Colleague): void</text><ellipse cx="601.37" cy="93.2422" fill="#84BE84" rx="3" ry="3" style="stroke:#038048;stroke-width:1;"/><text fill="#000000" font-family="sans-serif" font-size="14" lengthAdjust="spacing" textLength="319.334" x="610.37" y="96.5889">removeColleague(colleague: Colleague): void</text><ellipse cx="601.37" cy="109.5391" fill="#84BE84" rx="3" ry="3" style="stroke:#038048;stroke-width:1;"/><text fill="#000000" font-family="sans-serif" font-size="14" lengthAdjust="spacing" textLength="352.6113" x="610.37" y="112.8857">send(message: String, colleague: Colleague): void</text></g><!--class Colleague--><g class="entity" data-entity="Colleague" data-source-line="19" data-uid="ent0004" id="entity_Colleague"><rect fill="#F1F1F1" height="113.1875" rx="3.5" ry="3.5" style="stroke:#181818;stroke-width:0.5;" width="241.0518" x="520.15" y="197.19"/><ellipse cx="601.5831" cy="213.19" fill="#A9DCDF" rx="11" ry="11" style="stroke:#181818;stroke-width:1;"/><path d="M601.6925,208.5338 L600.5362,213.6119 L602.8644,213.6119 L601.6925,208.5338 Z M600.2081,206.2994 L603.1925,206.2994 L606.5519,218.69 L604.0987,218.69 L603.3331,215.6275 L600.0519,215.6275 L599.3019,218.69 L596.8644,218.69 L600.2081,206.2994 Z " fill="#000000"/><text fill="#000000" font-family="sans-serif" font-size="14" font-style="italic" lengthAdjust="spacing" textLength="69.6855" x="622.0831" y="218.0367">Colleague</text><line style="stroke:#181818;stroke-width:0.5;" x1="521.15" x2="760.2018" y1="229.19" y2="229.19"/><polygon fill="none" points="531.15,237.8384,535.15,241.8384,531.15,245.8384,527.15,241.8384" style="stroke:#B38D22;stroke-width:1;"/><text fill="#000000" font-family="sans-serif" font-size="14" lengthAdjust="spacing" textLength="134.4424" x="540.15" y="246.1851">mediator: Mediator</text><line style="stroke:#181818;stroke-width:0.5;" x1="521.15" x2="760.2018" y1="253.4869" y2="253.4869"/><ellipse cx="531.15" cy="267.1353" fill="#84BE84" rx="3" ry="3" style="stroke:#038048;stroke-width:1;"/><text fill="#000000" font-family="sans-serif" font-size="14" lengthAdjust="spacing" textLength="215.0518" x="540.15" y="270.482">Colleague(mediator: Mediator)</text><ellipse cx="531.15" cy="283.4322" fill="#84BE84" rx="3" ry="3" style="stroke:#038048;stroke-width:1;"/><text fill="#000000" font-family="sans-serif" font-size="14" font-style="italic" lengthAdjust="spacing" textLength="197.251" x="540.15" y="286.7789">send(message: String): void</text><ellipse cx="531.15" cy="299.7291" fill="#84BE84" rx="3" ry="3" style="stroke:#038048;stroke-width:1;"/><text fill="#000000" font-family="sans-serif" font-size="14" font-style="italic" lengthAdjust="spacing" textLength="215.0518" x="540.15" y="303.0757">receive(message: String): void</text></g><!--class ConcreteColleague1--><g class="entity" data-entity="ConcreteColleague1" data-source-line="27" data-uid="ent0005" id="entity_ConcreteColleague1"><rect fill="#F1F1F1" height="96.8906" rx="3.5" ry="3.5" style="stroke:#181818;stroke-width:0.5;" width="313.3418" x="7" y="371.38"/><ellipse cx="88.4331" cy="387.38" fill="#ADD1B2" rx="11" ry="11" style="stroke:#181818;stroke-width:1;"/><path d="M91.4019,393.0206 Q90.8237,393.3175 90.1831,393.4581 Q89.5425,393.6144 88.8394,393.6144 Q86.3394,393.6144 85.0112,391.9738 Q83.6987,390.3175 83.6987,387.1925 Q83.6987,384.0675 85.0112,382.4113 Q86.3394,380.755 88.8394,380.755 Q89.5425,380.755 90.1831,380.9113 Q90.8394,381.0675 91.4019,381.3644 L91.4019,384.0831 Q90.7769,383.505 90.1831,383.2394 Q89.5894,382.9581 88.9644,382.9581 Q87.6206,382.9581 86.9331,384.0363 Q86.2456,385.0988 86.2456,387.1925 Q86.2456,389.2863 86.9331,390.3644 Q87.6206,391.4269 88.9644,391.4269 Q89.5894,391.4269 90.1831,391.1613 Q90.7769,390.88 91.4019,390.3019 L91.4019,393.0206 Z " fill="#000000"/><text fill="#000000" font-family="sans-serif" font-size="14" lengthAdjust="spacing" textLength="141.9756" x="108.9331" y="392.2267">ConcreteColleague1</text><line style="stroke:#181818;stroke-width:0.5;" x1="8" x2="319.3418" y1="403.38" y2="403.38"/><line style="stroke:#181818;stroke-width:0.5;" x1="8" x2="319.3418" y1="411.38" y2="411.38"/><ellipse cx="18" cy="425.0284" fill="#84BE84" rx="3" ry="3" style="stroke:#038048;stroke-width:1;"/><text fill="#000000" font-family="sans-serif" font-size="14" lengthAdjust="spacing" textLength="287.3418" x="27" y="428.3751">ConcreteColleague1(mediator: Mediator)</text><ellipse cx="18" cy="441.3253" fill="#84BE84" rx="3" ry="3" style="stroke:#038048;stroke-width:1;"/><text fill="#000000" font-family="sans-serif" font-size="14" lengthAdjust="spacing" textLength="197.251" x="27" y="444.672">send(message: String): void</text><ellipse cx="18" cy="457.6222" fill="#84BE84" rx="3" ry="3" style="stroke:#038048;stroke-width:1;"/><text fill="#000000" font-family="sans-serif" font-size="14" lengthAdjust="spacing" textLength="215.0518" x="27" y="460.9689">receive(message: String): void</text></g><!--class ConcreteColleague2--><g class="entity" data-entity="ConcreteColleague2" data-source-line="34" data-uid="ent0006" id="entity_ConcreteColleague2"><rect fill="#F1F1F1" height="96.8906" rx="3.5" ry="3.5" style="stroke:#181818;stroke-width:0.5;" width="313.3418" x="355" y="371.38"/><ellipse cx="436.4331" cy="387.38" fill="#ADD1B2" rx="11" ry="11" style="stroke:#181818;stroke-width:1;"/><path d="M439.4019,393.0206 Q438.8237,393.3175 438.1831,393.4581 Q437.5425,393.6144 436.8394,393.6144 Q434.3394,393.6144 433.0112,391.9738 Q431.6987,390.3175 431.6987,387.1925 Q431.6987,384.0675 433.0112,382.4113 Q434.3394,380.755 436.8394,380.755 Q437.5425,380.755 438.1831,380.9113 Q438.8394,381.0675 439.4019,381.3644 L439.4019,384.0831 Q438.7769,383.505 438.1831,383.2394 Q437.5894,382.9581 436.9644,382.9581 Q435.6206,382.9581 434.9331,384.0363 Q434.2456,385.0988 434.2456,387.1925 Q434.2456,389.2863 434.9331,390.3644 Q435.6206,391.4269 436.9644,391.4269 Q437.5894,391.4269 438.1831,391.1613 Q438.7769,390.88 439.4019,390.3019 L439.4019,393.0206 Z " fill="#000000"/><text fill="#000000" font-family="sans-serif" font-size="14" lengthAdjust="spacing" textLength="141.9756" x="456.9331" y="392.2267">ConcreteColleague2</text><line style="stroke:#181818;stroke-width:0.5;" x1="356" x2="667.3418" y1="403.38" y2="403.38"/><line style="stroke:#181818;stroke-width:0.5;" x1="356" x2="667.3418" y1="411.38" y2="411.38"/><ellipse cx="366" cy="425.0284" fill="#84BE84" rx="3" ry="3" style="stroke:#038048;stroke-width:1;"/><text fill="#000000" font-family="sans-serif" font-size="14" lengthAdjust="spacing" textLength="287.3418" x="375" y="428.3751">ConcreteColleague2(mediator: Mediator)</text><ellipse cx="366" cy="441.3253" fill="#84BE84" rx="3" ry="3" style="stroke:#038048;stroke-width:1;"/><text fill="#000000" font-family="sans-serif" font-size="14" lengthAdjust="spacing" textLength="197.251" x="375" y="444.672">send(message: String): void</text><ellipse cx="366" cy="457.6222" fill="#84BE84" rx="3" ry="3" style="stroke:#038048;stroke-width:1;"/><text fill="#000000" font-family="sans-serif" font-size="14" lengthAdjust="spacing" textLength="215.0518" x="375" y="460.9689">receive(message: String): void</text></g><g class="entity" data-entity="GMN12" data-source-line="50" data-uid="ent0013" id="entity_GMN12"><path d="M1004.17,46.96 L1004.17,59.6 L969.18,63.6 L1004.17,67.6 L1004.17,80.2256 A3.5,3.5 0 0 0 1007.67,83.7256 L1177.6702,83.7256 A3.5,3.5 0 0 0 1181.1702,80.2256 L1181.1702,53.46 L1171.1702,43.46 L1007.67,43.46 A3.5,3.5 0 0 0 1004.17,46.96" fill="#E5E5E5" style="stroke:#191919;stroke-width:1.5;"/><path d="M1171.1702,43.46 L1171.1702,51.71 A1.75,1.75 0 0 0 1172.9202,53.46 L1181.1702,53.46 L1171.1702,43.46" fill="#E5E5E5" style="stroke:#191919;stroke-width:1.5;"/><text fill="#191919" font-family="sans-serif" font-size="13" lengthAdjust="spacing" textLength="156.0002" x="1010.17" y="60.5269">&#20351;&#29992;&#21015;&#34920;&#31649;&#29702;&#25152;&#26377;&#21516;&#20107;&#23545;&#35937;</text><text fill="#191919" font-family="sans-serif" font-size="13" lengthAdjust="spacing" textLength="143.0002" x="1010.17" y="75.6597">&#25903;&#25345;&#21160;&#24577;&#28155;&#21152;&#21644;&#31227;&#38500;&#21516;&#20107;</text></g><g class="entity" data-entity="GMN15" data-source-line="51" data-uid="ent0016" id="entity_GMN15"><path d="M75.17,532.77 L75.17,550.9028 A3.5,3.5 0 0 0 78.67,554.4028 L248.6702,554.4028 A3.5,3.5 0 0 0 252.1702,550.9028 L252.1702,539.27 L242.1702,529.27 L167.67,529.27 L163.67,468.6 L159.67,529.27 L78.67,529.27 A3.5,3.5 0 0 0 75.17,532.77" fill="#E5E5E5" style="stroke:#191919;stroke-width:1.5;"/><path d="M242.1702,529.27 L242.1702,537.52 A1.75,1.75 0 0 0 243.9202,539.27 L252.1702,539.27 L242.1702,529.27" fill="#E5E5E5" style="stroke:#191919;stroke-width:1.5;"/><text fill="#191919" font-family="sans-serif" font-size="13" lengthAdjust="spacing" textLength="156.0002" x="81.17" y="546.3369">&#36890;&#36807;&#20013;&#20171;&#32773;&#19982;&#20854;&#20182;&#21516;&#20107;&#20132;&#20114;</text></g><g class="entity" data-entity="GMN18" data-source-line="52" data-uid="ent0019" id="entity_GMN18"><path d="M423.17,532.77 L423.17,550.9028 A3.5,3.5 0 0 0 426.67,554.4028 L596.6702,554.4028 A3.5,3.5 0 0 0 600.1702,550.9028 L600.1702,539.27 L590.1702,529.27 L515.67,529.27 L511.67,468.6 L507.67,529.27 L426.67,529.27 A3.5,3.5 0 0 0 423.17,532.77" fill="#E5E5E5" style="stroke:#191919;stroke-width:1.5;"/><path d="M590.1702,529.27 L590.1702,537.52 A1.75,1.75 0 0 0 591.9202,539.27 L600.1702,539.27 L590.1702,529.27" fill="#E5E5E5" style="stroke:#191919;stroke-width:1.5;"/><text fill="#191919" font-family="sans-serif" font-size="13" lengthAdjust="spacing" textLength="156.0002" x="429.17" y="546.3369">&#36890;&#36807;&#20013;&#20171;&#32773;&#19982;&#20854;&#20182;&#21516;&#20107;&#20132;&#20114;</text></g><!--reverse link Mediator to ConcreteMediator--><g class="link" data-entity-1="Mediator" data-entity-2="ConcreteMediator" data-source-line="41" data-uid="lnk7" id="link_Mediator_ConcreteMediator"><path codeLine="41" d="M877.2498,370.4713 C858.1298,310.5313 821.5,195.73 797.45,120.33" fill="none" id="Mediator-backto-ConcreteMediator" style="stroke:#191919;stroke-width:1;"/><polygon fill="none" points="882.72,387.62,882.966,368.6479,871.5336,372.2947,882.72,387.62" style="stroke:#191919;stroke-width:1;"/></g><!--reverse link Colleague to ConcreteColleague1--><g class="link" data-entity-1="Colleague" data-entity-2="ConcreteColleague1" data-source-line="42" data-uid="lnk8" id="link_Colleague_ConcreteColleague1"><path codeLine="42" d="M502.668,302.2425 C436.558,324.9725 371.42,347.38 302.69,371.01" fill="none" id="Colleague-backto-ConcreteColleague1" style="stroke:#191919;stroke-width:1;"/><polygon fill="none" points="519.69,296.39,500.7172,296.5685,504.6189,307.9165,519.69,296.39" style="stroke:#191919;stroke-width:1;"/></g><!--reverse link Colleague to ConcreteColleague2--><g class="link" data-entity-1="Colleague" data-entity-2="ConcreteColleague2" data-source-line="43" data-uid="lnk9" id="link_Colleague_ConcreteColleague2"><path codeLine="43" d="M585.5122,324.9282 C570.1122,344.5082 564.1,352.15 549.27,371.01" fill="none" id="Colleague-backto-ConcreteColleague2" style="stroke:#191919;stroke-width:1;"/><polygon fill="none" points="596.64,310.78,580.7961,321.2189,590.2283,328.6375,596.64,310.78" style="stroke:#191919;stroke-width:1;"/></g><!--link ConcreteMediator to Colleague--><g class="link" data-entity-1="ConcreteMediator" data-entity-2="Colleague" data-source-line="46" data-uid="lnk10" id="link_ConcreteMediator_Colleague"><path codeLine="46" d="M738.34,120.55 C720.58,144.6 703.4146,167.8337 685.6446,191.8937" fill="none" id="ConcreteMediator-to-Colleague" style="stroke:#191919;stroke-width:1;"/><polygon fill="#191919" points="682.08,196.72,690.6445,191.8569,685.0505,192.698,684.2093,187.1041,682.08,196.72" style="stroke:#191919;stroke-width:1;"/><text fill="#000000" font-family="sans-serif" font-size="13" lengthAdjust="spacing" textLength="59.8584" x="714.67" y="163.2569">manages</text></g><!--link Colleague to Mediator--><g class="link" data-entity-1="Colleague" data-entity-2="Mediator" data-source-line="47" data-uid="lnk11" id="link_Colleague_Mediator"><path codeLine="47" d="M726.69,310.78 C765.9,336.3 805.841,362.3075 839.081,383.9375" fill="none" id="Colleague-to-Mediator" style="stroke:#191919;stroke-width:1;"/><polygon fill="#191919" points="844.11,387.21,838.7482,378.9486,839.9192,384.4829,834.3848,385.6539,844.11,387.21" style="stroke:#191919;stroke-width:1;"/></g><!--SRC=[jLJFInj15BxFNp7IGvLq3-vn4I4D5WJRW-ROoxZx4XUoEx0pvcA5U4XjOYXYHMbHQ40mbrOajDeiCV_Cx8_y5zsuSNQR9OqLkgVblU-zxtk_PevlWGNO8Wv3SmQKJ1jm_kL6SJrVA6AzGbXYNdrJN5b_bI-iODFcu9I83WWzntwp7rwtnUqtuHw4jJeYcumxHETnD7uDXaauTV0Emj6ty-3UnJa6jZ5l0MEa31hUu8vfbrzWdLOgGChRaQdmyBkWuIer3RGx8lJgDwB_AI6CUGhKrXtWCC6do7HCmsicuqiowV8z84SCGvhc_qP-ZtR0ebNuXu0d5XbtrJjiYTv1SErETbK6ZSjyPetBrcJ3O_f4QHQnyAY9fAj9OntGmQp2D7XgLBAAnObPIN6Bup9oMSzKtJF5FaMXEasXEbMX-fyL1kwbtnXuzMxGTP7SxgLtYfBPUPIinH_-f9ip4Ug8KjoTXpzEnfIPmrAKvTJ-QT7ROKVQMIhr224rZPQvsndkDv5DEM37B6znJ4lPWzMmw0-2uuxtuJHiTuBlxU3mlT-e-MUDU3pUrQ_e9DxQ_l6LtzhpcXs_jkVVk5xpgtVK2YxTuUUB61WJRLBEgPLcIgsRXeUrB-5WNxuYulQZL_yft9CuXUXTYDxHp4Jg8nFz1W00]--></g></svg>