<?xml version="1.0" encoding="UTF-8" standalone="no"?>
<!-- Created with Inkscape (http://www.inkscape.org/) -->
<svg
   xmlns:dc="http://purl.org/dc/elements/1.1/"
   xmlns:cc="http://web.resource.org/cc/"
   xmlns:rdf="http://www.w3.org/1999/02/22-rdf-syntax-ns#"
   xmlns:svg="http://www.w3.org/2000/svg"
   xmlns="http://www.w3.org/2000/svg"
   xmlns:sodipodi="http://sodipodi.sourceforge.net/DTD/sodipodi-0.dtd"
   xmlns:inkscape="http://www.inkscape.org/namespaces/inkscape"
   id="svg2"
   sodipodi:version="0.32"
   inkscape:version="0.45.1"
   width="760"
   height="700"
   version="1.0"
   sodipodi:docbase="c:\temp"
   sodipodi:docname="NDFA.svg"
   inkscape:output_extension="org.inkscape.output.svg.inkscape">
  <metadata
     id="metadata7">
    <rdf:RDF>
      <cc:Work
         rdf:about="">
        <dc:format>image/svg+xml</dc:format>
        <dc:type
           rdf:resource="http://purl.org/dc/dcmitype/StillImage" />
      </cc:Work>
    </rdf:RDF>
  </metadata>
  <defs
     id="defs5">
    <marker
       inkscape:stockid="Arrow2Lend"
       orient="auto"
       refY="0"
       refX="0"
       id="Arrow2Lend"
       style="overflow:visible">
      <path
         id="path4724"
         style="font-size:12px;fill-rule:evenodd;stroke-width:0.625;stroke-linejoin:round"
         d="M 8.7185878,4.0337352 L -2.2072895,0.016013256 L 8.7185884,-4.0017078 C 6.97309,-1.6296469 6.9831476,1.6157441 8.7185878,4.0337352 z "
         transform="matrix(-1.1,0,0,-1.1,-1.1,0)" />
    </marker>
    <marker
       inkscape:stockid="Arrow1Lend"
       orient="auto"
       refY="0"
       refX="0"
       id="Arrow1Lend"
       style="overflow:visible">
      <path
         id="path4706"
         d="M 0,0 L 5,-5 L -12.5,0 L 5,5 L 0,0 z "
         style="fill-rule:evenodd;stroke:#000000;stroke-width:1pt;marker-start:none"
         transform="matrix(-0.8,0,0,-0.8,-10,0)" />
    </marker>
    <marker
       inkscape:stockid="Dot_l"
       orient="auto"
       refY="0"
       refX="0"
       id="Dot_l"
       style="overflow:visible">
      <path
         id="path4765"
         d="M -2.5,-1 C -2.5,1.76 -4.74,4 -7.5,4 C -10.26,4 -12.5,1.76 -12.5,-1 C -12.5,-3.76 -10.26,-6 -7.5,-6 C -4.74,-6 -2.5,-3.76 -2.5,-1 z "
         style="fill-rule:evenodd;stroke:#000000;stroke-width:1pt;marker-start:none;marker-end:none"
         transform="matrix(0.8,0,0,0.8,5.92,0.8)" />
    </marker>
    <marker
       inkscape:stockid="Arrow1Lstart"
       orient="auto"
       refY="0"
       refX="0"
       id="Arrow1Lstart"
       style="overflow:visible">
      <path
         id="path4703"
         d="M 0,0 L 5,-5 L -12.5,0 L 5,5 L 0,0 z "
         style="fill-rule:evenodd;stroke:#000000;stroke-width:1pt;marker-start:none"
         transform="matrix(0.8,0,0,0.8,10,0)" />
    </marker>
  </defs>
  <sodipodi:namedview
     inkscape:window-height="1031"
     inkscape:window-width="1920"
     inkscape:pageshadow="2"
     inkscape:pageopacity="0.0"
     guidetolerance="10.0"
     gridtolerance="10.0"
     objecttolerance="10.0"
     borderopacity="1.0"
     bordercolor="#666666"
     pagecolor="#ffffff"
     id="base"
     width="200px"
     height="120px"
     inkscape:zoom="2"
     inkscape:cx="458.97376"
     inkscape:cy="302.51416"
     inkscape:window-x="0"
     inkscape:window-y="22"
     inkscape:current-layer="svg2" />
  <text
     xml:space="preserve"
     style="font-size:32.03926086px;font-style:normal;font-variant:normal;font-weight:normal;font-stretch:normal;text-align:start;line-height:125%;writing-mode:lr-tb;text-anchor:start;fill:#000000;fill-opacity:1;stroke:none;stroke-width:1px;stroke-linecap:butt;stroke-linejoin:miter;stroke-opacity:1;font-family:Arial"
     x="109.35686"
     y="536.55707"
     id="text4954"
     sodipodi:linespacing="125%"><tspan
       sodipodi:role="line"
       id="tspan4956"
       x="109.35686"
       y="536.55707">ε</tspan></text>
  <g
     id="g2646"
     transform="translate(246,414.65152)">
    <path
       transform="matrix(1.8887994,0,0,1.7336817,132.08161,-382.56676)"
       d="M 42.007371 77.355034 A 32.444717 35.347668 0 1 1  -22.882064,77.355034 A 32.444717 35.347668 0 1 1  42.007371 77.355034 z"
       sodipodi:ry="35.347668"
       sodipodi:rx="32.444717"
       sodipodi:cy="77.355034"
       sodipodi:cx="9.5626535"
       id="path2449"
       style="fill:#ffffff;fill-opacity:1;fill-rule:nonzero;stroke:#000000;stroke-width:1;stroke-miterlimit:4;stroke-dasharray:none;stroke-opacity:1"
       sodipodi:type="arc" />
    <path
       transform="matrix(1.5110395,0,0,1.3869453,135.69399,-355.74496)"
       d="M 42.007371 77.355034 A 32.444717 35.347668 0 1 1  -22.882064,77.355034 A 32.444717 35.347668 0 1 1  42.007371 77.355034 z"
       sodipodi:ry="35.347668"
       sodipodi:rx="32.444717"
       sodipodi:cy="77.355034"
       sodipodi:cx="9.5626535"
       id="path2451"
       style="fill:none;fill-opacity:1;fill-rule:nonzero;stroke:#000000;stroke-width:1;stroke-miterlimit:4;stroke-dasharray:none;stroke-opacity:1"
       sodipodi:type="arc" />
    <path
       transform="matrix(1.8887994,0,0,1.7336817,405.70174,-382.56676)"
       d="M 42.007371 77.355034 A 32.444717 35.347668 0 1 1  -22.882064,77.355034 A 32.444717 35.347668 0 1 1  42.007371 77.355034 z"
       sodipodi:ry="35.347668"
       sodipodi:rx="32.444717"
       sodipodi:cy="77.355034"
       sodipodi:cx="9.5626535"
       id="path2453"
       style="color:#000000;fill:#ffffff;fill-opacity:1;fill-rule:nonzero;stroke:#000000;stroke-width:1;stroke-linecap:butt;stroke-linejoin:miter;marker:none;marker-start:none;marker-mid:none;marker-end:none;stroke-miterlimit:4;stroke-dasharray:none;stroke-dashoffset:0;stroke-opacity:1;visibility:visible;display:inline;overflow:visible"
       sodipodi:type="arc" />
    <path
       id="path2455"
       d="M 431.16898,-260.33512 L 431.16898,-256.98531 C 429.8653,-257.60878 428.63533,-258.07355 427.47908,-258.37965 C 426.32279,-258.6857 425.2062,-258.83874 424.12928,-258.83876 C 422.25881,-258.83874 420.81348,-258.47598 419.79322,-257.7505 C 418.78431,-257.02497 418.27985,-255.99339 418.27988,-254.65575 C 418.27985,-253.53347 418.61426,-252.68326 419.28312,-252.10514 C 419.96326,-251.53832 421.24423,-251.07921 423.12604,-250.72781 L 425.20053,-250.30271 C 427.76245,-249.81524 429.64991,-248.9537 430.8629,-247.71808 C 432.08717,-246.49378 432.69931,-244.85005 432.69933,-242.7869 C 432.69931,-240.32697 431.87178,-238.46219 430.21673,-237.19255 C 428.57299,-235.92291 426.15842,-235.2881 422.97299,-235.2881 C 421.77137,-235.2881 420.49038,-235.42413 419.13007,-235.6962 C 417.78107,-235.96826 416.38108,-236.37069 414.93007,-236.90348 L 414.93007,-240.44034 C 416.32439,-239.65814 417.69038,-239.06867 419.02805,-238.67191 C 420.36568,-238.27514 421.68068,-238.07677 422.97299,-238.07677 C 424.93412,-238.07677 426.44749,-238.46219 427.51309,-239.23305 C 428.57866,-240.00389 429.11145,-241.10349 429.11148,-242.53184 C 429.11145,-243.7788 428.72603,-244.7537 427.95518,-245.45654 C 427.19567,-246.15937 425.94303,-246.68649 424.19729,-247.03792 L 422.10579,-247.44602 C 419.54383,-247.95613 417.69038,-248.75532 416.54545,-249.8436 C 415.4005,-250.93184 414.82804,-252.4452 414.82804,-254.38369 C 414.82804,-256.62821 415.61589,-258.39663 417.19161,-259.68896 C 418.77864,-260.98125 420.96083,-261.6274 423.73818,-261.62743 C 424.92845,-261.6274 426.1414,-261.51971 427.37705,-261.30435 C 428.61267,-261.08894 429.87664,-260.76586 431.16898,-260.33512"
       style="font-size:14px;font-style:normal;font-weight:normal;fill:#000000;fill-opacity:1;stroke:none;stroke-width:1px;stroke-linecap:butt;stroke-linejoin:miter;stroke-opacity:1;font-family:Bitstream Vera Sans" />
    <path
       id="path2457"
       d="M 157.54882,-260.3351 L 157.54882,-256.9853 C 156.24516,-257.60876 155.0152,-258.07353 153.85894,-258.37963 C 152.70264,-258.68568 151.58604,-258.83872 150.50913,-258.83874 C 148.63867,-258.83872 147.19332,-258.47596 146.17308,-257.75048 C 145.16417,-257.02495 144.65972,-255.99337 144.65973,-254.65573 C 144.65972,-253.53345 144.99413,-252.68324 145.66296,-252.10512 C 146.34312,-251.5383 147.6241,-251.07919 149.50589,-250.72779 L 151.58039,-250.30269 C 154.14232,-249.81522 156.02977,-248.95368 157.24275,-247.71807 C 158.46702,-246.49376 159.07917,-244.85003 159.07919,-242.78688 C 159.07917,-240.32695 158.25164,-238.46217 156.59659,-237.19253 C 154.95285,-235.9229 152.53827,-235.28808 149.35285,-235.28808 C 148.15122,-235.28808 146.87025,-235.42411 145.50993,-235.69618 C 144.16093,-235.96824 142.76093,-236.37067 141.30991,-236.90347 L 141.30991,-240.44032 C 142.70424,-239.65813 144.07024,-239.06865 145.4079,-238.67189 C 146.74555,-238.27513 148.06053,-238.07675 149.35285,-238.07675 C 151.31397,-238.07675 152.82734,-238.46217 153.89294,-239.23303 C 154.95851,-240.00387 155.49131,-241.10347 155.49133,-242.53182 C 155.49131,-243.77878 155.10588,-244.75368 154.33505,-245.45652 C 153.57552,-246.15935 152.32289,-246.68648 150.57715,-247.0379 L 148.48564,-247.446 C 145.92369,-247.95611 144.07024,-248.7553 142.9253,-249.84358 C 141.78036,-250.93182 141.20789,-252.44519 141.20789,-254.38367 C 141.20789,-256.62819 141.99575,-258.39661 143.57146,-259.68895 C 145.1585,-260.98123 147.34069,-261.62739 150.11804,-261.62741 C 151.30831,-261.62739 152.52126,-261.51969 153.75691,-261.30433 C 154.99253,-261.08892 156.25649,-260.76585 157.54882,-260.3351"
       style="font-size:14px;font-style:normal;font-weight:normal;fill:#000000;fill-opacity:1;stroke:none;stroke-width:1px;stroke-linecap:butt;stroke-linejoin:miter;stroke-opacity:1;font-family:Bitstream Vera Sans" />
    <path
       id="path2459"
       d="M 417.70779,-382.478 L 422.51754,-382.478 L 422.51754,-399.07885 L 417.28512,-398.02945 L 417.28512,-400.71124 L 422.48838,-401.76064 L 425.43251,-401.76064 L 425.43251,-382.478 L 430.24225,-382.478 L 430.24225,-380.00027 L 417.70779,-380.00027 L 417.70779,-382.478"
       style="font-size:12px;font-style:normal;font-weight:normal;fill:#000000;fill-opacity:1;stroke:none;stroke-width:1px;stroke-linecap:butt;stroke-linejoin:miter;stroke-opacity:1;font-family:Bitstream Vera Sans" />
    <path
       id="path2461"
       d="M 286.95361,-141.78699 C 285.4378,-141.78699 284.29611,-141.03879 283.52851,-139.54246 C 282.77061,-138.05581 282.39164,-135.81613 282.39167,-132.82342 C 282.39164,-129.84041 282.77061,-127.60073 283.52851,-126.10438 C 284.29611,-124.61773 285.4378,-123.8744 286.95361,-123.8744 C 288.47912,-123.8744 289.62081,-124.61773 290.37871,-126.10438 C 291.14631,-127.60073 291.53013,-129.84041 291.53013,-132.82342 C 291.53013,-135.81613 291.14631,-138.05581 290.37871,-139.54246 C 289.62081,-141.03879 288.47912,-141.78699 286.95361,-141.78699 M 286.95361,-144.11898 C 289.39246,-144.11895 291.2532,-143.15215 292.5358,-141.21858 C 293.82811,-139.29466 294.47426,-136.49627 294.47428,-132.82342 C 294.47426,-129.16024 293.82811,-126.36186 292.5358,-124.42825 C 291.2532,-122.50436 289.39246,-121.54241 286.95361,-121.54241 C 284.51473,-121.54241 282.64914,-122.50436 281.35683,-124.42825 C 280.07423,-126.36186 279.43294,-129.16024 279.43294,-132.82342 C 279.43294,-136.49627 280.07423,-139.29466 281.35683,-141.21858 C 282.64914,-143.15215 284.51473,-144.11895 286.95361,-144.11898"
       style="font-size:12px;font-style:normal;font-weight:normal;fill:#000000;fill-opacity:1;stroke:none;stroke-width:1px;stroke-linecap:butt;stroke-linejoin:miter;stroke-opacity:1;font-family:Bitstream Vera Sans" />
    <path
       sodipodi:nodetypes="cscccccssccc"
       id="path2463"
       d="M 186.22784,-343.43134 C 181.09706,-362.57965 161.3392,-373.94575 142.21428,-368.82124 C 123.08937,-363.69674 111.73548,-343.99427 116.86625,-324.84596 L 112.83171,-323.7649 L 120.52693,-315.91167 L 123.26456,-326.56038 L 119.23002,-325.47932 C 114.45034,-343.3173 124.99399,-361.64271 142.85538,-366.42866 C 160.71677,-371.2146 179.08441,-360.63595 183.86408,-342.79797 C 186.2539,-333.87898 184.79444,-324.83318 180.50487,-317.41889 C 180.50487,-317.41889 182.61276,-316.17487 182.61276,-316.17487 C 187.21896,-324.13954 188.79322,-333.85718 186.22784,-343.43134 z "
       style="fill:#000000;fill-opacity:1;fill-rule:nonzero;stroke:none;stroke-width:1;stroke-miterlimit:4;stroke-opacity:1" />
    <path
       sodipodi:nodetypes="cscccccssccc"
       id="path2465"
       d="M 387.6794,-343.43133 C 392.81017,-362.57965 412.56803,-373.94575 431.69293,-368.82124 C 450.81786,-363.69674 462.17172,-343.99427 457.04097,-324.84595 L 461.0755,-323.7649 L 453.38031,-315.91167 L 450.64267,-326.56037 L 454.67719,-325.47931 C 459.45689,-343.3173 448.91324,-361.64271 431.05184,-366.42866 C 413.19047,-371.2146 394.82282,-360.63595 390.04318,-342.79797 C 387.65331,-333.87897 389.11278,-324.83318 393.40237,-317.41888 C 393.40237,-317.41888 391.29447,-316.17487 391.29447,-316.17487 C 386.68825,-324.13953 385.11402,-333.85718 387.6794,-343.43133 z "
       style="fill:#000000;fill-opacity:1;fill-rule:nonzero;stroke:none;stroke-width:1;stroke-miterlimit:4;stroke-opacity:1" />
    <path
       id="path2467"
       d="M 286.95361,-373.04353 C 285.4378,-373.0435 284.29611,-372.29532 283.52851,-370.79898 C 282.77061,-369.31233 282.39164,-367.07264 282.39167,-364.07994 C 282.39164,-361.09693 282.77061,-358.85725 283.52851,-357.3609 C 284.29611,-355.87425 285.4378,-355.13093 286.95361,-355.13093 C 288.47912,-355.13093 289.62081,-355.87425 290.37871,-357.3609 C 291.14631,-358.85725 291.53013,-361.09693 291.53013,-364.07994 C 291.53013,-367.07264 291.14631,-369.31233 290.37871,-370.79898 C 289.62081,-372.29532 288.47912,-373.0435 286.95361,-373.04353 M 286.95361,-375.37551 C 289.39246,-375.37549 291.2532,-374.40869 292.5358,-372.4751 C 293.82811,-370.55119 294.47426,-367.75281 294.47428,-364.07994 C 294.47426,-360.41676 293.82811,-357.61839 292.5358,-355.68478 C 291.2532,-353.76088 289.39246,-352.79894 286.95361,-352.79894 C 284.51473,-352.79894 282.64914,-353.76088 281.35683,-355.68478 C 280.07423,-357.61839 279.43294,-360.41676 279.43294,-364.07994 C 279.43294,-367.75281 280.07423,-370.55119 281.35683,-372.4751 C 282.64914,-374.40869 284.51473,-375.37549 286.95361,-375.37551"
       style="font-size:12px;font-style:normal;font-weight:normal;fill:#000000;fill-opacity:1;stroke:none;stroke-width:1px;stroke-linecap:butt;stroke-linejoin:miter;stroke-opacity:1;font-family:Bitstream Vera Sans" />
    <path
       id="path2469"
       d="M 144.08765,-382.47799 L 148.89739,-382.47799 L 148.89739,-399.07884 L 143.66498,-398.02945 L 143.66498,-400.71124 L 148.86823,-401.76064 L 151.81237,-401.76064 L 151.81237,-382.47799 L 156.6221,-382.47799 L 156.6221,-380.00026 L 144.08765,-380.00026 L 144.08765,-382.47799"
       style="font-size:12px;font-style:normal;font-weight:normal;fill:#000000;fill-opacity:1;stroke:none;stroke-width:1px;stroke-linecap:butt;stroke-linejoin:miter;stroke-opacity:1;font-family:Bitstream Vera Sans" />
    <path
       inkscape:transform-center-x="-20.320853"
       inkscape:transform-center-y="-19.30594"
       sodipodi:nodetypes="cscccccscc"
       id="path2471"
       d="M 374.01454,-307.33103 C 351.28316,-330.06241 319.0444,-342.84912 287.93996,-342.84912 C 256.8355,-342.84913 224.65149,-329.91724 201.9225,-307.18823 L 197.87611,-311.34665 L 197.44043,-301.31197 L 208.37136,-301.07546 L 203.76481,-305.34591 C 226.4954,-328.07651 257.63226,-340.67064 288.20032,-340.67065 C 318.76836,-340.67066 349.42841,-328.30502 372.20843,-305.52497 C 372.20843,-305.52497 374.01454,-307.33103 374.01454,-307.33103 z "
       style="fill:#000000;fill-opacity:1;fill-rule:nonzero;stroke:none;stroke-width:0.07586141;stroke-miterlimit:4;stroke-opacity:1" />
    <path
       inkscape:transform-center-x="20.320846"
       inkscape:transform-center-y="19.305937"
       sodipodi:nodetypes="cscccccscc"
       id="path2473"
       d="M 199.89267,-189.58685 C 222.62405,-166.85549 254.8628,-154.0688 285.96726,-154.06877 C 317.07175,-154.06877 349.25573,-167.00066 371.98473,-189.72966 L 375.72619,-186.025 L 375.90499,-194.83927 L 366.31212,-195.34626 L 370.1424,-191.57199 C 347.41183,-168.8414 316.27496,-156.24726 285.70689,-156.24726 C 255.13883,-156.24724 224.47881,-168.61288 201.69876,-191.39294 C 201.69876,-191.39294 199.89267,-189.58685 199.89267,-189.58685 z "
       style="fill:#000000;fill-opacity:1;fill-rule:nonzero;stroke:none;stroke-width:0.07586141;stroke-miterlimit:4;stroke-opacity:1" />
    <text
       sodipodi:linespacing="125%"
       id="text2477"
       y="-220.82047"
       x="156.63841"
       style="font-size:20.78260803px;font-style:normal;font-variant:normal;font-weight:normal;font-stretch:normal;text-align:start;line-height:125%;writing-mode:lr-tb;text-anchor:start;fill:#000000;fill-opacity:1;stroke:none;stroke-width:1px;stroke-linecap:butt;stroke-linejoin:miter;stroke-opacity:1;font-family:Arial"
       xml:space="preserve"><tspan
         y="-220.82047"
         x="156.63841"
         id="tspan2479"
         sodipodi:role="line">1</tspan></text>
    <text
       sodipodi:linespacing="125%"
       id="text2481"
       y="-221.0011"
       x="431.66779"
       style="font-size:19.70581818px;font-style:normal;font-variant:normal;font-weight:normal;font-stretch:normal;text-align:start;line-height:125%;writing-mode:lr-tb;text-anchor:start;fill:#000000;fill-opacity:1;stroke:none;stroke-width:1px;stroke-linecap:butt;stroke-linejoin:miter;stroke-opacity:1;font-family:Arial"
       xml:space="preserve"><tspan
         y="-221.0011"
         x="431.66779"
         id="tspan2483"
         sodipodi:role="line">2</tspan></text>
  </g>
  <g
     id="g2622"
     transform="translate(246,414.65152)">
    <path
       transform="matrix(1.8887994,0,0,1.7336817,-177.06193,-190.33231)"
       d="M 42.007371 77.355034 A 32.444717 35.347668 0 1 1  -22.882064,77.355034 A 32.444717 35.347668 0 1 1  42.007371 77.355034 z"
       sodipodi:ry="35.347668"
       sodipodi:rx="32.444717"
       sodipodi:cy="77.355034"
       sodipodi:cx="9.5626535"
       id="path2511"
       style="color:#000000;fill:#ffffff;fill-opacity:1;fill-rule:nonzero;stroke:#000000;stroke-width:1;stroke-linecap:butt;stroke-linejoin:miter;marker:none;marker-start:none;marker-mid:none;marker-end:none;stroke-miterlimit:4;stroke-dasharray:none;stroke-dashoffset:0;stroke-opacity:1;visibility:visible;display:inline;overflow:visible"
       sodipodi:type="arc" />
    <path
       id="path2513"
       d="M -151.59469,-68.10067 L -151.59469,-64.75086 C -152.89837,-65.37433 -154.12834,-65.8391 -155.28459,-66.1452 C -156.44088,-66.45125 -157.55747,-66.60429 -158.63439,-66.60431 C -160.50486,-66.60429 -161.95019,-66.24153 -162.97045,-65.51605 C -163.97936,-64.79052 -164.48382,-63.75894 -164.48379,-62.4213 C -164.48382,-61.29902 -164.14941,-60.44881 -163.48055,-59.87069 C -162.80041,-59.30387 -161.51944,-58.84476 -159.63763,-58.49336 L -157.56314,-58.06826 C -155.00122,-57.58079 -153.11376,-56.71925 -151.90077,-55.48363 C -150.6765,-54.25933 -150.06436,-52.6156 -150.06434,-50.55245 C -150.06436,-48.09252 -150.89189,-46.22774 -152.54694,-44.9581 C -154.19068,-43.68846 -156.60525,-43.05365 -159.79068,-43.05365 C -160.9923,-43.05365 -162.27329,-43.18968 -163.6336,-43.46175 C -164.9826,-43.73381 -166.38259,-44.13624 -167.8336,-44.66903 L -167.8336,-48.20589 C -166.43928,-47.42369 -165.07329,-46.83422 -163.73562,-46.43746 C -162.39799,-46.04069 -161.08299,-45.84232 -159.79068,-45.84232 C -157.82955,-45.84232 -156.31618,-46.22774 -155.25058,-46.9986 C -154.18501,-47.76944 -153.65222,-48.86904 -153.65219,-50.29739 C -153.65222,-51.54435 -154.03764,-52.51925 -154.80849,-53.22209 C -155.568,-53.92492 -156.82064,-54.45204 -158.56638,-54.80347 L -160.65788,-55.21157 C -163.21984,-55.72168 -165.07329,-56.52087 -166.21822,-57.60915 C -167.36317,-58.69739 -167.93563,-60.21075 -167.93563,-62.14924 C -167.93563,-64.39376 -167.14778,-66.16218 -165.57206,-67.45451 C -163.98503,-68.7468 -161.80284,-69.39295 -159.02549,-69.39298 C -157.83522,-69.39295 -156.62227,-69.28526 -155.38662,-69.0699 C -154.151,-68.85449 -152.88703,-68.53141 -151.59469,-68.10067"
       style="font-size:14px;font-style:normal;font-weight:normal;fill:#000000;fill-opacity:1;stroke:none;stroke-width:1px;stroke-linecap:butt;stroke-linejoin:miter;stroke-opacity:1;font-family:Bitstream Vera Sans" />
    <text
       sodipodi:linespacing="125%"
       id="text2515"
       y="-28.766644"
       x="-151.09589"
       style="font-size:19.70581818px;font-style:normal;font-variant:normal;font-weight:normal;font-stretch:normal;text-align:start;line-height:125%;writing-mode:lr-tb;text-anchor:start;fill:#000000;fill-opacity:1;stroke:none;stroke-width:1px;stroke-linecap:butt;stroke-linejoin:miter;stroke-opacity:1;font-family:Arial"
       xml:space="preserve"><tspan
         y="-28.766644"
         x="-151.09589"
         id="tspan2517"
         sodipodi:role="line">0</tspan></text>
  </g>
  <g
     id="g4906"
     transform="translate(246,386.65152)">
    <path
       transform="matrix(1.8887994,0,0,1.7336817,132.08161,28.28968)"
       d="M 42.007371 77.355034 A 32.444717 35.347668 0 1 1  -22.882064,77.355034 A 32.444717 35.347668 0 1 1  42.007371 77.355034 z"
       sodipodi:ry="35.347668"
       sodipodi:rx="32.444717"
       sodipodi:cy="77.355034"
       sodipodi:cx="9.5626535"
       id="path2764"
       style="fill:#ffffff;fill-opacity:1;fill-rule:nonzero;stroke:#000000;stroke-width:1;stroke-miterlimit:4;stroke-dasharray:none;stroke-opacity:1"
       sodipodi:type="arc" />
    <path
       transform="matrix(1.5110395,0,0,1.3869453,135.69399,55.11148)"
       d="M 42.007371 77.355034 A 32.444717 35.347668 0 1 1  -22.882064,77.355034 A 32.444717 35.347668 0 1 1  42.007371 77.355034 z"
       sodipodi:ry="35.347668"
       sodipodi:rx="32.444717"
       sodipodi:cy="77.355034"
       sodipodi:cx="9.5626535"
       id="path1873"
       style="fill:none;fill-opacity:1;fill-rule:nonzero;stroke:#000000;stroke-width:1;stroke-miterlimit:4;stroke-dasharray:none;stroke-opacity:1"
       sodipodi:type="arc" />
    <path
       id="text2770"
       d="M 157.54882,150.52134 L 157.54882,153.87114 C 156.24516,153.24768 155.0152,152.78291 153.85894,152.47681 C 152.70264,152.17076 151.58604,152.01772 150.50913,152.0177 C 148.63867,152.01772 147.19332,152.38048 146.17308,153.10596 C 145.16417,153.83149 144.65972,154.86307 144.65973,156.20071 C 144.65972,157.32299 144.99413,158.1732 145.66296,158.75132 C 146.34312,159.31814 147.6241,159.77725 149.50589,160.12865 L 151.58039,160.55375 C 154.14232,161.04122 156.02977,161.90276 157.24275,163.13837 C 158.46702,164.36268 159.07917,166.00641 159.07919,168.06956 C 159.07917,170.52949 158.25164,172.39427 156.59659,173.66391 C 154.95285,174.93354 152.53827,175.56836 149.35285,175.56836 C 148.15122,175.56836 146.87025,175.43233 145.50993,175.16026 C 144.16093,174.8882 142.76093,174.48577 141.30991,173.95297 L 141.30991,170.41612 C 142.70424,171.19831 144.07024,171.78779 145.4079,172.18455 C 146.74555,172.58131 148.06053,172.77969 149.35285,172.77969 C 151.31397,172.77969 152.82734,172.39427 153.89294,171.62341 C 154.95851,170.85257 155.49131,169.75297 155.49133,168.32462 C 155.49131,167.07766 155.10588,166.10276 154.33505,165.39992 C 153.57552,164.69709 152.32289,164.16996 150.57715,163.81854 L 148.48564,163.41044 C 145.92369,162.90033 144.07024,162.10114 142.9253,161.01286 C 141.78036,159.92462 141.20789,158.41125 141.20789,156.47277 C 141.20789,154.22825 141.99575,152.45983 143.57146,151.16749 C 145.1585,149.87521 147.34069,149.22905 150.11804,149.22903 C 151.30831,149.22905 152.52126,149.33675 153.75691,149.55211 C 154.99253,149.76752 156.25649,150.09059 157.54882,150.52134"
       style="font-size:14px;font-style:normal;font-weight:normal;fill:#000000;fill-opacity:1;stroke:none;stroke-width:1px;stroke-linecap:butt;stroke-linejoin:miter;stroke-opacity:1;font-family:Bitstream Vera Sans" />
    <path
       sodipodi:nodetypes="cscccccssccc"
       id="path2812"
       d="M 186.22784,67.4251 C 181.09706,48.27679 161.3392,36.91069 142.21428,42.0352 C 123.08937,47.1597 111.73548,66.86217 116.86625,86.010481 L 112.83171,87.091539 L 120.52693,94.944775 L 123.26456,84.296062 L 119.23002,85.37712 C 114.45034,67.53914 124.99399,49.21373 142.85538,44.42778 C 160.71677,39.64184 179.08441,50.22049 183.86408,68.05847 C 186.2539,76.97746 184.79444,86.023257 180.50487,93.43755 C 180.50487,93.43755 182.61276,94.681574 182.61276,94.681574 C 187.21896,86.716902 188.79322,76.99926 186.22784,67.4251 z "
       style="fill:#000000;fill-opacity:1;fill-rule:nonzero;stroke:none;stroke-width:1;stroke-miterlimit:4;stroke-opacity:1" />
    <path
       sodipodi:nodetypes="cscccccssccc"
       id="path2819"
       d="M 387.6794,67.42511 C 392.81017,48.27679 412.56803,36.91069 431.69293,42.0352 C 450.81786,47.1597 462.17172,66.86217 457.04097,86.010489 L 461.0755,87.091539 L 453.38031,94.944775 L 450.64267,84.29607 L 454.67719,85.377128 C 459.45689,67.53914 448.91324,49.21373 431.05184,44.42778 C 413.19047,39.64184 394.82282,50.22049 390.04318,68.05847 C 387.65331,76.97747 389.11278,86.023265 393.40237,93.437559 C 393.40237,93.437559 391.29447,94.681574 391.29447,94.681574 C 386.68825,86.71691 385.11402,76.99926 387.6794,67.42511 z "
       style="fill:#000000;fill-opacity:1;fill-rule:nonzero;stroke:none;stroke-width:1;stroke-miterlimit:4;stroke-opacity:1" />
    <path
       inkscape:transform-center-x="-20.320853"
       inkscape:transform-center-y="-19.30594"
       sodipodi:nodetypes="cscccccscc"
       id="path2849"
       d="M 374.01454,103.52541 C 351.28316,80.794033 319.0444,68.00732 287.93996,68.00732 C 256.8355,68.00731 224.65149,80.939204 201.9225,103.66821 L 197.87611,99.509795 L 197.44043,109.54447 L 208.37136,109.78098 L 203.76481,105.51053 C 226.4954,82.779928 257.63226,70.1858 288.20032,70.18579 C 318.76836,70.18578 349.42841,82.551419 372.20843,105.33147 C 372.20843,105.33147 374.01454,103.52541 374.01454,103.52541 z "
       style="fill:#000000;fill-opacity:1;fill-rule:nonzero;stroke:none;stroke-width:0.07586141;stroke-miterlimit:4;stroke-opacity:1" />
    <path
       inkscape:transform-center-x="20.320846"
       inkscape:transform-center-y="19.305937"
       sodipodi:nodetypes="cscccccscc"
       id="path3744"
       d="M 199.89267,221.26959 C 222.62405,244.00095 254.8628,256.78764 285.96726,256.78767 C 317.07175,256.78767 349.25573,243.85578 371.98473,221.12678 L 375.72619,224.83144 L 375.90499,216.01717 L 366.31212,215.51018 L 370.1424,219.28445 C 347.41183,242.01504 316.27496,254.60918 285.70689,254.60918 C 255.13883,254.6092 224.47881,242.24356 201.69876,219.4635 C 201.69876,219.4635 199.89267,221.26959 199.89267,221.26959 z "
       style="fill:#000000;fill-opacity:1;fill-rule:nonzero;stroke:none;stroke-width:0.07586141;stroke-miterlimit:4;stroke-opacity:1" />
    <text
       sodipodi:linespacing="125%"
       id="text2415"
       y="190.03598"
       x="156.63841"
       style="font-size:20.78260803px;font-style:normal;font-variant:normal;font-weight:normal;font-stretch:normal;text-align:start;line-height:125%;writing-mode:lr-tb;text-anchor:start;fill:#000000;fill-opacity:1;stroke:none;stroke-width:1px;stroke-linecap:butt;stroke-linejoin:miter;stroke-opacity:1;font-family:Arial"
       xml:space="preserve"><tspan
         y="190.03598"
         x="156.63841"
         id="tspan2417"
         sodipodi:role="line">3</tspan></text>
    <g
       id="g2503">
      <path
         sodipodi:type="arc"
         style="color:#000000;fill:#ffffff;fill-opacity:1;fill-rule:nonzero;stroke:#000000;stroke-width:1;stroke-linecap:butt;stroke-linejoin:miter;marker:none;marker-start:none;marker-mid:none;marker-end:none;stroke-miterlimit:4;stroke-dasharray:none;stroke-dashoffset:0;stroke-opacity:1;visibility:visible;display:inline;overflow:visible"
         id="path2762"
         sodipodi:cx="9.5626535"
         sodipodi:cy="77.355034"
         sodipodi:rx="32.444717"
         sodipodi:ry="35.347668"
         d="M 42.007371 77.355034 A 32.444717 35.347668 0 1 1  -22.882064,77.355034 A 32.444717 35.347668 0 1 1  42.007371 77.355034 z"
         transform="matrix(1.8887994,0,0,1.7336817,405.70174,28.28968)" />
      <path
         style="font-size:14px;font-style:normal;font-weight:normal;fill:#000000;fill-opacity:1;stroke:none;stroke-width:1px;stroke-linecap:butt;stroke-linejoin:miter;stroke-opacity:1;font-family:Bitstream Vera Sans"
         d="M 431.16898,150.52132 L 431.16898,153.87113 C 429.8653,153.24766 428.63533,152.78289 427.47908,152.47679 C 426.32279,152.17074 425.2062,152.0177 424.12928,152.01768 C 422.25881,152.0177 420.81348,152.38046 419.79322,153.10594 C 418.78431,153.83147 418.27985,154.86305 418.27988,156.20069 C 418.27985,157.32297 418.61426,158.17318 419.28312,158.7513 C 419.96326,159.31812 421.24423,159.77723 423.12604,160.12863 L 425.20053,160.55373 C 427.76245,161.0412 429.64991,161.90274 430.8629,163.13836 C 432.08717,164.36266 432.69931,166.00639 432.69933,168.06954 C 432.69931,170.52947 431.87178,172.39425 430.21673,173.66389 C 428.57299,174.93353 426.15842,175.56834 422.97299,175.56834 C 421.77137,175.56834 420.49038,175.43231 419.13007,175.16024 C 417.78107,174.88818 416.38108,174.48575 414.93007,173.95296 L 414.93007,170.4161 C 416.32439,171.1983 417.69038,171.78777 419.02805,172.18453 C 420.36568,172.5813 421.68068,172.77967 422.97299,172.77967 C 424.93412,172.77967 426.44749,172.39425 427.51309,171.62339 C 428.57866,170.85255 429.11145,169.75295 429.11148,168.3246 C 429.11145,167.07764 428.72603,166.10274 427.95518,165.3999 C 427.19567,164.69707 425.94303,164.16995 424.19729,163.81852 L 422.10579,163.41042 C 419.54383,162.90031 417.69038,162.10112 416.54545,161.01284 C 415.4005,159.9246 414.82804,158.41124 414.82804,156.47275 C 414.82804,154.22823 415.61589,152.45981 417.19161,151.16748 C 418.77864,149.87519 420.96083,149.22904 423.73818,149.22901 C 424.92845,149.22904 426.1414,149.33673 427.37705,149.55209 C 428.61267,149.7675 429.87664,150.09058 431.16898,150.52132"
         id="text2766" />
      <text
         xml:space="preserve"
         style="font-size:19.70581818px;font-style:normal;font-variant:normal;font-weight:normal;font-stretch:normal;text-align:start;line-height:125%;writing-mode:lr-tb;text-anchor:start;fill:#000000;fill-opacity:1;stroke:none;stroke-width:1px;stroke-linecap:butt;stroke-linejoin:miter;stroke-opacity:1;font-family:Arial"
         x="431.66779"
         y="189.85535"
         id="text2419"
         sodipodi:linespacing="125%"><tspan
           sodipodi:role="line"
           id="tspan2421"
           x="431.66779"
           y="189.85535">4</tspan></text>
    </g>
    <text
       sodipodi:linespacing="125%"
       id="text3691"
       y="30.852793"
       x="414.49838"
       style="font-size:30.41386604px;font-style:normal;font-variant:normal;font-weight:normal;font-stretch:normal;text-align:start;line-height:125%;writing-mode:lr-tb;text-anchor:start;fill:#000000;fill-opacity:1;stroke:none;stroke-width:1px;stroke-linecap:butt;stroke-linejoin:miter;stroke-opacity:1;font-family:Arial"
       xml:space="preserve"><tspan
         y="30.852793"
         x="414.49838"
         id="tspan3693"
         sodipodi:role="line">0</tspan></text>
    <text
       sodipodi:linespacing="125%"
       id="text3695"
       y="60.468758"
       x="277.99628"
       style="font-size:30.41386604px;font-style:normal;font-variant:normal;font-weight:normal;font-stretch:normal;text-align:start;line-height:125%;writing-mode:lr-tb;text-anchor:start;fill:#000000;fill-opacity:1;stroke:none;stroke-width:1px;stroke-linecap:butt;stroke-linejoin:miter;stroke-opacity:1;font-family:Arial"
       xml:space="preserve"><tspan
         y="60.468758"
         x="277.99628"
         id="tspan3697"
         sodipodi:role="line">1</tspan></text>
    <text
       sodipodi:linespacing="125%"
       id="text3699"
       y="30.955767"
       x="140.35332"
       style="font-size:30.41386604px;font-style:normal;font-variant:normal;font-weight:normal;font-stretch:normal;text-align:start;line-height:125%;writing-mode:lr-tb;text-anchor:start;fill:#000000;fill-opacity:1;stroke:none;stroke-width:1px;stroke-linecap:butt;stroke-linejoin:miter;stroke-opacity:1;font-family:Arial"
       xml:space="preserve"><tspan
         y="30.955767"
         x="140.35332"
         id="tspan3701"
         sodipodi:role="line">0</tspan></text>
    <text
       sodipodi:linespacing="125%"
       id="text3717"
       y="288.59741"
       x="278.17065"
       style="font-size:30.41386604px;font-style:normal;font-variant:normal;font-weight:normal;font-stretch:normal;text-align:start;line-height:125%;writing-mode:lr-tb;text-anchor:start;fill:#000000;fill-opacity:1;stroke:none;stroke-width:1px;stroke-linecap:butt;stroke-linejoin:miter;stroke-opacity:1;font-family:Arial"
       xml:space="preserve"><tspan
         y="288.59741"
         x="278.17065"
         id="tspan3719"
         sodipodi:role="line">1</tspan></text>
  </g>
  <text
     xml:space="preserve"
     style="font-size:32.03926086px;font-style:normal;font-variant:normal;font-weight:normal;font-stretch:normal;text-align:start;line-height:125%;writing-mode:lr-tb;text-anchor:start;fill:#000000;fill-opacity:1;stroke:none;stroke-width:1px;stroke-linecap:butt;stroke-linejoin:miter;stroke-opacity:1;font-family:Arial"
     x="108.79001"
     y="186.42502"
     id="text3723"
     sodipodi:linespacing="125%"><tspan
       sodipodi:role="line"
       id="tspan3725"
       x="108.79001"
       y="186.42502">ε</tspan></text>
  <g
     id="g4958">
    <path
       style="fill:#000000;fill-opacity:1;fill-rule:evenodd;stroke:none;stroke-width:1px;stroke-linecap:butt;stroke-linejoin:miter;stroke-opacity:1"
       d="M 314,163.5 C 219.01696,163.5 160.68295,176.15335 126.03125,197.0625 C 91.379546,217.97165 80.5,247.19756 80.5,280 L 81.5,280 C 81.5,247.41741 92.183511,218.65084 126.5625,197.90625 C 160.94149,177.16166 219.10581,164.5 314,164.5 L 314,163.5 z "
       id="path3729" />
    <path
       d="M 303.30955,159.56289 L 315.32802,163.98239 L 303.30955,168.40188 C 305.2296,165.79261 305.21854,162.22268 303.30955,159.56289 z "
       style="font-size:12px;fill-rule:evenodd;stroke-width:0.625;stroke-linejoin:round"
       id="path4964" />
  </g>
  <g
     id="g4966">
    <path
       style="fill:#000000;fill-opacity:1;fill-rule:evenodd;stroke:none;stroke-width:1px;stroke-linecap:butt;stroke-linejoin:miter;stroke-opacity:1"
       d="M 80.59375,432.03125 C 80.59375,464.83369 91.473296,494.0596 126.125,514.96875 C 160.7767,535.8779 219.11071,548.53125 314.09375,548.53125 L 314.09375,547.53125 C 219.19956,547.53125 161.00399,534.86959 126.625,514.125 C 92.246011,493.38041 81.59375,464.61385 81.59375,432.03125 L 80.59375,432.03125 z "
       id="path4904" />
    <path
       d="M 303.39554,543.59433 L 315.41401,548.01383 L 303.39554,552.43332 C 305.31559,549.82405 305.30453,546.25412 303.39554,543.59433 z "
       style="font-size:12px;fill-rule:evenodd;stroke-width:0.625;stroke-linejoin:round"
       id="path4972" />
  </g>
</svg>
