<svg xmlns="http://www.w3.org/2000/svg" xmlns:xlink="http://www.w3.org/1999/xlink" contentStyleType="text/css" data-diagram-type="CLASS" height="431px" preserveAspectRatio="none" style="width:356px;height:431px;background:#F9F9F9;" version="1.1" viewBox="0 0 356 431" width="356px" zoomAndPan="magnify"><defs/><g><rect fill="#F9F9F9" height="431" style="stroke:none;stroke-width:1;" width="356" x="0" y="0"/><!--class Subject--><g class="entity" data-entity="Subject" data-source-line="4" data-uid="ent0002" id="entity_Subject"><rect fill="#F1F1F1" height="64.2969" rx="3.5" ry="3.5" style="stroke:#181818;stroke-width:0.5;" width="90.4492" x="50.35" y="7"/><ellipse cx="68.101" cy="23" fill="#A9DCDF" rx="11" ry="11" style="stroke:#181818;stroke-width:1;"/><path d="M68.2104,18.3438 L67.0541,23.4219 L69.3822,23.4219 L68.2104,18.3438 Z M66.726,16.1094 L69.7104,16.1094 L73.0697,28.5 L70.6166,28.5 L69.851,25.4375 L66.5697,25.4375 L65.8197,28.5 L63.3822,28.5 L66.726,16.1094 Z " fill="#000000"/><text fill="#000000" font-family="sans-serif" font-size="14" font-style="italic" lengthAdjust="spacing" textLength="52.3359" x="82.7123" y="27.8467">Subject</text><line style="stroke:#181818;stroke-width:0.5;" x1="51.35" x2="139.7992" y1="39" y2="39"/><line style="stroke:#181818;stroke-width:0.5;" x1="51.35" x2="139.7992" y1="47" y2="47"/><ellipse cx="61.35" cy="60.6484" fill="#84BE84" rx="3" ry="3" style="stroke:#038048;stroke-width:1;"/><text fill="#000000" font-family="sans-serif" font-size="14" lengthAdjust="spacing" textLength="64.4492" x="70.35" y="63.9951">request()</text></g><!--class Proxy--><g class="entity" data-entity="Proxy" data-source-line="8" data-uid="ent0003" id="entity_Proxy"><rect fill="#F1F1F1" height="113.1875" rx="3.5" ry="3.5" style="stroke:#181818;stroke-width:0.5;" width="201.9365" x="147.6" y="148.3"/><ellipse cx="224.6513" cy="164.3" fill="#ADD1B2" rx="11" ry="11" style="stroke:#181818;stroke-width:1;"/><path d="M227.62,169.9406 Q227.0419,170.2375 226.4013,170.3781 Q225.7606,170.5344 225.0575,170.5344 Q222.5575,170.5344 221.2294,168.8937 Q219.9169,167.2375 219.9169,164.1125 Q219.9169,160.9875 221.2294,159.3312 Q222.5575,157.675 225.0575,157.675 Q225.7606,157.675 226.4013,157.8312 Q227.0575,157.9875 227.62,158.2844 L227.62,161.0031 Q226.995,160.425 226.4013,160.1594 Q225.8075,159.8781 225.1825,159.8781 Q223.8388,159.8781 223.1513,160.9562 Q222.4638,162.0187 222.4638,164.1125 Q222.4638,166.2062 223.1513,167.2844 Q223.8388,168.3469 225.1825,168.3469 Q225.8075,168.3469 226.4013,168.0812 Q226.995,167.8 227.62,167.2219 L227.62,169.9406 Z " fill="#000000"/><text fill="#000000" font-family="sans-serif" font-size="14" lengthAdjust="spacing" textLength="39.334" x="245.1513" y="169.1467">Proxy</text><line style="stroke:#181818;stroke-width:0.5;" x1="148.6" x2="348.5365" y1="180.3" y2="180.3"/><rect fill="none" height="6" style="stroke:#C82930;stroke-width:1;" width="6" x="155.6" y="190.9484"/><text fill="#000000" font-family="sans-serif" font-size="14" lengthAdjust="spacing" textLength="175.9365" x="167.6" y="197.2951">realSubject : RealSubject</text><line style="stroke:#181818;stroke-width:0.5;" x1="148.6" x2="348.5365" y1="204.5969" y2="204.5969"/><ellipse cx="158.6" cy="218.2453" fill="#84BE84" rx="3" ry="3" style="stroke:#038048;stroke-width:1;"/><text fill="#000000" font-family="sans-serif" font-size="14" lengthAdjust="spacing" textLength="91.6768" x="167.6" y="221.592">preRequest()</text><ellipse cx="158.6" cy="234.5422" fill="#84BE84" rx="3" ry="3" style="stroke:#038048;stroke-width:1;"/><text fill="#000000" font-family="sans-serif" font-size="14" lengthAdjust="spacing" textLength="64.4492" x="167.6" y="237.8889">request()</text><ellipse cx="158.6" cy="250.8391" fill="#84BE84" rx="3" ry="3" style="stroke:#038048;stroke-width:1;"/><text fill="#000000" font-family="sans-serif" font-size="14" lengthAdjust="spacing" textLength="98.6563" x="167.6" y="254.1857">postRequest()</text></g><!--class RealSubject--><g class="entity" data-entity="RealSubject" data-source-line="15" data-uid="ent0004" id="entity_RealSubject"><rect fill="#F1F1F1" height="64.2969" rx="3.5" ry="3.5" style="stroke:#181818;stroke-width:0.5;" width="115.1455" x="7" y="349.17"/><ellipse cx="22" cy="365.17" fill="#ADD1B2" rx="11" ry="11" style="stroke:#181818;stroke-width:1;"/><path d="M24.9688,370.8106 Q24.3906,371.1075 23.75,371.2481 Q23.1094,371.4044 22.4063,371.4044 Q19.9063,371.4044 18.5781,369.7637 Q17.2656,368.1075 17.2656,364.9825 Q17.2656,361.8575 18.5781,360.2012 Q19.9063,358.545 22.4063,358.545 Q23.1094,358.545 23.75,358.7012 Q24.4063,358.8575 24.9688,359.1544 L24.9688,361.8731 Q24.3438,361.295 23.75,361.0294 Q23.1563,360.7481 22.5313,360.7481 Q21.1875,360.7481 20.5,361.8262 Q19.8125,362.8887 19.8125,364.9825 Q19.8125,367.0762 20.5,368.1544 Q21.1875,369.2169 22.5313,369.2169 Q23.1563,369.2169 23.75,368.9512 Q24.3438,368.67 24.9688,368.0919 L24.9688,370.8106 Z " fill="#000000"/><text fill="#000000" font-family="sans-serif" font-size="14" lengthAdjust="spacing" textLength="83.1455" x="36" y="370.0167">RealSubject</text><line style="stroke:#181818;stroke-width:0.5;" x1="8" x2="121.1455" y1="381.17" y2="381.17"/><line style="stroke:#181818;stroke-width:0.5;" x1="8" x2="121.1455" y1="389.17" y2="389.17"/><ellipse cx="18" cy="402.8184" fill="#84BE84" rx="3" ry="3" style="stroke:#038048;stroke-width:1;"/><text fill="#000000" font-family="sans-serif" font-size="14" lengthAdjust="spacing" textLength="64.4492" x="27" y="406.1651">request()</text></g><!--class Client--><g class="entity" data-entity="Client" data-source-line="19" data-uid="ent0005" id="entity_Client"><rect fill="#F1F1F1" height="48" rx="3.5" ry="3.5" style="stroke:#181818;stroke-width:0.5;" width="72.5303" x="212.31" y="15.15"/><ellipse cx="227.31" cy="31.15" fill="#ADD1B2" rx="11" ry="11" style="stroke:#181818;stroke-width:1;"/><path d="M230.2788,36.7906 Q229.7006,37.0875 229.06,37.2281 Q228.4194,37.3844 227.7163,37.3844 Q225.2163,37.3844 223.8881,35.7437 Q222.5756,34.0875 222.5756,30.9625 Q222.5756,27.8375 223.8881,26.1812 Q225.2163,24.525 227.7163,24.525 Q228.4194,24.525 229.06,24.6812 Q229.7163,24.8375 230.2788,25.1344 L230.2788,27.8531 Q229.6538,27.275 229.06,27.0094 Q228.4663,26.7281 227.8413,26.7281 Q226.4975,26.7281 225.81,27.8062 Q225.1225,28.8687 225.1225,30.9625 Q225.1225,33.0562 225.81,34.1344 Q226.4975,35.1969 227.8413,35.1969 Q228.4663,35.1969 229.06,34.9312 Q229.6538,34.65 230.2788,34.0719 L230.2788,36.7906 Z " fill="#000000"/><text fill="#000000" font-family="sans-serif" font-size="14" lengthAdjust="spacing" textLength="40.5303" x="241.31" y="35.9967">Client</text><line style="stroke:#181818;stroke-width:0.5;" x1="213.31" x2="283.8403" y1="47.15" y2="47.15"/><line style="stroke:#181818;stroke-width:0.5;" x1="213.31" x2="283.8403" y1="55.15" y2="55.15"/></g><g class="entity" data-entity="GMN10" data-source-line="29" data-uid="ent0011" id="entity_GMN10"><path d="M163,341.99 L163,420.6541 A3.5,3.5 0 0 0 166.5,424.1541 L330.6411,424.1541 A3.5,3.5 0 0 0 334.1411,420.6541 L334.1411,348.49 L324.1411,338.49 L252.57,338.49 L248.57,261.56 L244.57,338.49 L166.5,338.49 A3.5,3.5 0 0 0 163,341.99" fill="#E5E5E5" style="stroke:#191919;stroke-width:1.5;"/><path d="M324.1411,338.49 L324.1411,346.74 A1.75,1.75 0 0 0 325.8911,348.49 L334.1411,348.49 L324.1411,338.49" fill="#E5E5E5" style="stroke:#191919;stroke-width:1.5;"/><text fill="#191919" font-family="sans-serif" font-size="13" lengthAdjust="spacing" textLength="72.249" x="169" y="355.5569">request() {</text><text fill="#191919" font-family="sans-serif" font-size="13" lengthAdjust="spacing" textLength="89.5083" x="177.2646" y="370.6897">preRequest();</text><text fill="#191919" font-family="sans-serif" font-size="13" lengthAdjust="spacing" textLength="141.8765" x="177.2646" y="385.8225">realSubject.request();</text><text fill="#191919" font-family="sans-serif" font-size="13" lengthAdjust="spacing" textLength="95.9893" x="177.2646" y="400.9553">postRequest();</text><text fill="#191919" font-family="sans-serif" font-size="13" lengthAdjust="spacing" textLength="8.271" x="169" y="416.0881">}</text></g><!--link Client to Proxy--><g class="link" data-entity-1="Client" data-entity-2="Proxy" data-source-line="23" data-uid="lnk6" id="link_Client_Proxy"><path codeLine="23" d="M248.57,63.61 C248.57,85.54 248.57,113.14 248.57,141.96" fill="none" id="Client-to-Proxy" style="stroke:#191919;stroke-width:1;"/><polygon fill="#191919" points="248.57,147.96,252.57,138.96,248.57,142.96,244.57,138.96,248.57,147.96" style="stroke:#191919;stroke-width:1;"/><text fill="#000000" font-family="sans-serif" font-size="13" lengthAdjust="spacing" textLength="29.7832" x="249.57" y="114.3669">uses</text></g><!--link Proxy to RealSubject--><g class="link" data-entity-1="Proxy" data-entity-2="RealSubject" data-source-line="24" data-uid="lnk7" id="link_Proxy_RealSubject"><path codeLine="24" d="M189.59,261.8 C159.22,290.6 127.6546,320.5223 102.1346,344.7123" fill="none" id="Proxy-to-RealSubject" style="stroke:#191919;stroke-width:1;"/><polygon fill="#191919" points="97.78,348.84,107.0637,345.5516,101.4088,345.4003,101.5601,339.7455,97.78,348.84" style="stroke:#191919;stroke-width:1;"/><text fill="#000000" font-family="sans-serif" font-size="13" lengthAdjust="spacing" textLength="73.5186" x="157.57" y="304.5569">realSubject</text></g><!--reverse link Subject to Proxy--><g class="link" data-entity-1="Subject" data-entity-2="Proxy" data-source-line="25" data-uid="lnk8" id="link_Subject_Proxy"><path codeLine="25" d="M137.3606,84.8707 C157.5106,106.4307 172.46,122.44 196.24,147.88" fill="none" id="Subject-backto-Proxy" style="stroke:#191919;stroke-width:1;"/><polygon fill="none" points="125.07,71.72,132.9771,88.9676,141.7442,80.7738,125.07,71.72" style="stroke:#191919;stroke-width:1;"/><text fill="#000000" font-family="sans-serif" font-size="13" lengthAdjust="spacing" textLength="52.0508" x="168.57" y="114.3669">extends</text></g><!--reverse link Subject to RealSubject--><g class="link" data-entity-1="Subject" data-entity-2="RealSubject" data-source-line="26" data-uid="lnk9" id="link_Subject_RealSubject"><path codeLine="26" d="M85.5037,89.3711 C81.2737,110.8611 79.51,122.35 76.57,148.3 C68.49,219.64 65.85,303.94 64.99,348.69" fill="none" id="Subject-backto-RealSubject" style="stroke:#191919;stroke-width:1;"/><polygon fill="none" points="88.98,71.71,79.6166,88.2123,91.3907,90.5299,88.98,71.71" style="stroke:#191919;stroke-width:1;"/><text fill="#000000" font-family="sans-serif" font-size="13" lengthAdjust="spacing" textLength="52.0508" x="77.57" y="209.4569">extends</text></g><!--SRC=[Kop9ICrDLSXDB2hcub9NUBfkrfETdSytxkPAJ2ekAKfCBb58paaiBbO8BatAIWNoghaK5BGLYb8BIrEBIpGqkMgvk20A0ehoAoh1qhf0wSGSc0OhXI043wove2Wr2AuVrJImT7vnIH2c-KYcu7I3SqvcQXvGkXRXbQUjcvzltiq5aL7GrRM3EjHAeRGujPWBmW491w6u6Sa7N31HcnfTNRZkr8gIrBoKObH9L3DWIe1kURPzzzEk1SyshtZPtiMLbr-Igf2KNrAIdwkGdmOt4UuVXMg5c3m5b62o1WaWkKcl24K69SY08hK0]--></g></svg>