
<svg xmlns="http://www.w3.org/2000/svg" xmlns:xlink="http://www.w3.org/1999/xlink" contentStyleType="text/css" data-diagram-type="CLASS" height="546px" preserveAspectRatio="none" style="width:530px;height:546px;background:#F9F9F9;" version="1.1" viewBox="0 0 530 546" width="530px" zoomAndPan="magnify"><defs/><g><rect fill="#F9F9F9" height="546" style="stroke:none;stroke-width:1;" width="530" x="0" y="0"/><!--class AbstractClass--><g class="entity" data-entity="AbstractClass" data-source-line="3" data-uid="ent0002" id="entity_AbstractClass"><rect fill="#F1F1F1" height="145.7813" rx="3.5" ry="3.5" style="stroke:#181818;stroke-width:0.5;" width="202.8867" x="122.23" y="63.9"/><ellipse cx="171.6231" cy="79.9" fill="#A9DCDF" rx="11" ry="11" style="stroke:#181818;stroke-width:1;"/><path d="M171.7324,75.2437 L170.5762,80.3219 L172.9043,80.3219 L171.7324,75.2437 Z M170.2481,73.0094 L173.2324,73.0094 L176.5918,85.4 L174.1387,85.4 L173.3731,82.3375 L170.0918,82.3375 L169.3418,85.4 L166.9043,85.4 L170.2481,73.0094 Z " fill="#000000"/><text fill="#000000" font-family="sans-serif" font-size="14" font-style="italic" lengthAdjust="spacing" textLength="95.6006" x="192.1231" y="84.7467">AbstractClass</text><line style="stroke:#181818;stroke-width:0.5;" x1="123.23" x2="324.1167" y1="95.9" y2="95.9"/><line style="stroke:#181818;stroke-width:0.5;" x1="123.23" x2="324.1167" y1="103.9" y2="103.9"/><ellipse cx="133.23" cy="117.5484" fill="#84BE84" rx="3" ry="3" style="stroke:#038048;stroke-width:1;"/><text fill="#000000" font-family="sans-serif" font-size="14" lengthAdjust="spacing" textLength="169.873" x="142.23" y="120.8951">templateMethod() : void</text><ellipse cx="133.23" cy="133.8453" fill="#84BE84" rx="3" ry="3" style="stroke:#038048;stroke-width:1;"/><text fill="#000000" font-family="sans-serif" font-size="14" lengthAdjust="spacing" textLength="176.8867" x="142.23" y="137.192">concreteMethod1() : void</text><ellipse cx="133.23" cy="150.1422" fill="#84BE84" rx="3" ry="3" style="stroke:#038048;stroke-width:1;"/><text fill="#000000" font-family="sans-serif" font-size="14" lengthAdjust="spacing" textLength="176.8867" x="142.23" y="153.4889">concreteMethod2() : void</text><ellipse cx="133.23" cy="166.4391" fill="#84BE84" rx="3" ry="3" style="stroke:#038048;stroke-width:1;"/><text fill="#000000" font-family="sans-serif" font-size="14" lengthAdjust="spacing" textLength="140.7861" x="142.23" y="169.7857">hookMethod() : void</text><ellipse cx="133.23" cy="182.7359" fill="#84BE84" rx="3" ry="3" style="stroke:#038048;stroke-width:1;"/><text fill="#000000" font-family="sans-serif" font-size="14" font-style="italic" lengthAdjust="spacing" textLength="173.3525" x="142.23" y="186.0826">abstractMethod1() : void</text><ellipse cx="133.23" cy="199.0328" fill="#84BE84" rx="3" ry="3" style="stroke:#038048;stroke-width:1;"/><text fill="#000000" font-family="sans-serif" font-size="14" font-style="italic" lengthAdjust="spacing" textLength="173.3525" x="142.23" y="202.3795">abstractMethod2() : void</text></g><!--class ConcreteClassA--><g class="entity" data-entity="ConcreteClassA" data-source-line="12" data-uid="ent0003" id="entity_ConcreteClassA"><rect fill="#F1F1F1" height="96.8906" rx="3.5" ry="3.5" style="stroke:#181818;stroke-width:0.5;" width="199.3525" x="7" y="327.59"/><ellipse cx="47.9022" cy="343.59" fill="#ADD1B2" rx="11" ry="11" style="stroke:#181818;stroke-width:1;"/><path d="M50.871,349.2306 Q50.2929,349.5275 49.6522,349.6681 Q49.0116,349.8244 48.3085,349.8244 Q45.8085,349.8244 44.4804,348.1838 Q43.1679,346.5275 43.1679,343.4025 Q43.1679,340.2775 44.4804,338.6213 Q45.8085,336.965 48.3085,336.965 Q49.0116,336.965 49.6522,337.1213 Q50.3085,337.2775 50.871,337.5744 L50.871,340.2931 Q50.246,339.715 49.6522,339.4494 Q49.0585,339.1681 48.4335,339.1681 Q47.0897,339.1681 46.4022,340.2463 Q45.7147,341.3088 45.7147,343.4025 Q45.7147,345.4963 46.4022,346.5744 Q47.0897,347.6369 48.4335,347.6369 Q49.0585,347.6369 49.6522,347.3713 Q50.246,347.09 50.871,346.5119 L50.871,349.2306 Z " fill="#000000"/><text fill="#000000" font-family="sans-serif" font-size="14" lengthAdjust="spacing" textLength="109.792" x="67.6583" y="348.4367">ConcreteClassA</text><line style="stroke:#181818;stroke-width:0.5;" x1="8" x2="205.3525" y1="359.59" y2="359.59"/><line style="stroke:#181818;stroke-width:0.5;" x1="8" x2="205.3525" y1="367.59" y2="367.59"/><ellipse cx="18" cy="381.2384" fill="#84BE84" rx="3" ry="3" style="stroke:#038048;stroke-width:1;"/><text fill="#000000" font-family="sans-serif" font-size="14" lengthAdjust="spacing" textLength="173.3525" x="27" y="384.5851">abstractMethod1() : void</text><ellipse cx="18" cy="397.5353" fill="#84BE84" rx="3" ry="3" style="stroke:#038048;stroke-width:1;"/><text fill="#000000" font-family="sans-serif" font-size="14" lengthAdjust="spacing" textLength="173.3525" x="27" y="400.882">abstractMethod2() : void</text><ellipse cx="18" cy="413.8322" fill="#84BE84" rx="3" ry="3" style="stroke:#038048;stroke-width:1;"/><text fill="#000000" font-family="sans-serif" font-size="14" lengthAdjust="spacing" textLength="140.7861" x="27" y="417.1789">hookMethod() : void</text></g><!--class ConcreteClassB--><g class="entity" data-entity="ConcreteClassB" data-source-line="18" data-uid="ent0004" id="entity_ConcreteClassB"><rect fill="#F1F1F1" height="80.5938" rx="3.5" ry="3.5" style="stroke:#181818;stroke-width:0.5;" width="199.3525" x="241" y="335.74"/><ellipse cx="281.8899" cy="351.74" fill="#ADD1B2" rx="11" ry="11" style="stroke:#181818;stroke-width:1;"/><path d="M284.8587,357.3806 Q284.2806,357.6775 283.6399,357.8181 Q282.9993,357.9744 282.2962,357.9744 Q279.7962,357.9744 278.4681,356.3338 Q277.1556,354.6775 277.1556,351.5525 Q277.1556,348.4275 278.4681,346.7713 Q279.7962,345.115 282.2962,345.115 Q282.9993,345.115 283.6399,345.2713 Q284.2962,345.4275 284.8587,345.7244 L284.8587,348.4431 Q284.2337,347.865 283.6399,347.5994 Q283.0462,347.3181 282.4212,347.3181 Q281.0774,347.3181 280.3899,348.3963 Q279.7024,349.4588 279.7024,351.5525 Q279.7024,353.6463 280.3899,354.7244 Q281.0774,355.7869 282.4212,355.7869 Q283.0462,355.7869 283.6399,355.5213 Q284.2337,355.24 284.8587,354.6619 L284.8587,357.3806 Z " fill="#000000"/><text fill="#000000" font-family="sans-serif" font-size="14" lengthAdjust="spacing" textLength="109.8193" x="301.6433" y="356.5867">ConcreteClassB</text><line style="stroke:#181818;stroke-width:0.5;" x1="242" x2="439.3525" y1="367.74" y2="367.74"/><line style="stroke:#181818;stroke-width:0.5;" x1="242" x2="439.3525" y1="375.74" y2="375.74"/><ellipse cx="252" cy="389.3884" fill="#84BE84" rx="3" ry="3" style="stroke:#038048;stroke-width:1;"/><text fill="#000000" font-family="sans-serif" font-size="14" lengthAdjust="spacing" textLength="173.3525" x="261" y="392.7351">abstractMethod1() : void</text><ellipse cx="252" cy="405.6853" fill="#84BE84" rx="3" ry="3" style="stroke:#038048;stroke-width:1;"/><text fill="#000000" font-family="sans-serif" font-size="14" lengthAdjust="spacing" textLength="173.3525" x="261" y="409.032">abstractMethod2() : void</text></g><path d="M359.68,6 L359.68,29.6992 L312.103,116.0484 L359.68,37.6992 L359.68,61.3984 A0,0 0 0 0 359.68,61.3984 L523.6802,61.3984 A0,0 0 0 0 523.6802,61.3984 L523.6802,16 L513.6802,6 L359.68,6 A0,0 0 0 0 359.68,6" fill="#E5E5E5" style="stroke:#191919;stroke-width:1.5;"/><path d="M513.6802,6 L513.6802,16 L523.6802,16 L513.6802,6" fill="#E5E5E5" style="stroke:#191919;stroke-width:1.5;"/><text fill="#191919" font-family="sans-serif" font-size="13" lengthAdjust="spacing" textLength="52.0001" x="365.68" y="23.0669">&#27169;&#29256;&#26041;&#27861;</text><text fill="#191919" font-family="sans-serif" font-size="13" lengthAdjust="spacing" textLength="78.0001" x="365.68" y="38.1997">&#23450;&#20041;&#31639;&#27861;&#39592;&#26550;</text><text fill="#191919" font-family="sans-serif" font-size="13" lengthAdjust="spacing" textLength="143.0002" x="365.68" y="53.3325">&#35843;&#29992;&#25277;&#35937;&#26041;&#27861;&#21644;&#20855;&#20307;&#26041;&#27861;</text><path d="M359.68,71.3984 L359.68,95.0977 L319.1167,132.3453 L359.68,103.0977 L359.68,126.7969 A0,0 0 0 0 359.68,126.7969 L471.6801,126.7969 A0,0 0 0 0 471.6801,126.7969 L471.6801,81.3984 L461.6801,71.3984 L359.68,71.3984 A0,0 0 0 0 359.68,71.3984" fill="#E5E5E5" style="stroke:#191919;stroke-width:1.5;"/><path d="M461.6801,71.3984 L461.6801,81.3984 L471.6801,81.3984 L461.6801,71.3984" fill="#E5E5E5" style="stroke:#191919;stroke-width:1.5;"/><text fill="#191919" font-family="sans-serif" font-size="13" lengthAdjust="spacing" textLength="52.0001" x="365.68" y="88.4653">&#20855;&#20307;&#26041;&#27861;</text><text fill="#191919" font-family="sans-serif" font-size="13" lengthAdjust="spacing" textLength="78.0001" x="365.68" y="103.5981">&#21253;&#21547;&#22266;&#23450;&#36923;&#36753;</text><text fill="#191919" font-family="sans-serif" font-size="13" lengthAdjust="spacing" textLength="91.0001" x="365.68" y="118.731">&#23376;&#31867;&#19981;&#38656;&#35201;&#37325;&#20889;</text><path d="M359.68,136.7969 L359.68,160.4961 L283.0161,164.9391 L359.68,168.4961 L359.68,192.1953 A0,0 0 0 0 359.68,192.1953 L523.6802,192.1953 A0,0 0 0 0 523.6802,192.1953 L523.6802,146.7969 L513.6802,136.7969 L359.68,136.7969 A0,0 0 0 0 359.68,136.7969" fill="#E5E5E5" style="stroke:#191919;stroke-width:1.5;"/><path d="M513.6802,136.7969 L513.6802,146.7969 L523.6802,146.7969 L513.6802,136.7969" fill="#E5E5E5" style="stroke:#191919;stroke-width:1.5;"/><text fill="#191919" font-family="sans-serif" font-size="13" lengthAdjust="spacing" textLength="52.0001" x="365.68" y="153.8638">&#38057;&#23376;&#26041;&#27861;</text><text fill="#191919" font-family="sans-serif" font-size="13" lengthAdjust="spacing" textLength="52.0001" x="365.68" y="168.9966">&#21487;&#36873;&#37325;&#20889;</text><text fill="#191919" font-family="sans-serif" font-size="13" lengthAdjust="spacing" textLength="143.0002" x="365.68" y="184.1294">&#25552;&#20379;&#39069;&#22806;&#21151;&#33021;&#25110;&#35843;&#25972;&#34892;&#20026;</text><path d="M359.68,202.1953 L359.68,225.8945 L315.5825,181.2359 L359.68,233.8945 L359.68,257.5938 A0,0 0 0 0 359.68,257.5938 L471.6801,257.5938 A0,0 0 0 0 471.6801,257.5938 L471.6801,212.1953 L461.6801,202.1953 L359.68,202.1953 A0,0 0 0 0 359.68,202.1953" fill="#E5E5E5" style="stroke:#191919;stroke-width:1.5;"/><path d="M461.6801,202.1953 L461.6801,212.1953 L471.6801,212.1953 L461.6801,202.1953" fill="#E5E5E5" style="stroke:#191919;stroke-width:1.5;"/><text fill="#191919" font-family="sans-serif" font-size="13" lengthAdjust="spacing" textLength="52.0001" x="365.68" y="219.2622">&#25277;&#35937;&#26041;&#27861;</text><text fill="#191919" font-family="sans-serif" font-size="13" lengthAdjust="spacing" textLength="78.0001" x="365.68" y="234.395">&#23376;&#31867;&#24517;&#39035;&#23454;&#29616;</text><text fill="#191919" font-family="sans-serif" font-size="13" lengthAdjust="spacing" textLength="91.0001" x="365.68" y="249.5278">&#21253;&#21547;&#21464;&#21270;&#30340;&#36923;&#36753;</text><g class="entity" data-entity="GMN9" data-source-line="51" data-uid="ent0010" id="entity_GMN9"><path d="M37.68,487.98 L37.68,536.3784 A3.5,3.5 0 0 0 41.18,539.8784 L172.1801,539.8784 A3.5,3.5 0 0 0 175.6801,536.3784 L175.6801,494.48 L165.6801,484.48 L110.68,484.48 L106.68,424.71 L102.68,484.48 L41.18,484.48 A3.5,3.5 0 0 0 37.68,487.98" fill="#E5E5E5" style="stroke:#191919;stroke-width:1.5;"/><path d="M165.6801,484.48 L165.6801,492.73 A1.75,1.75 0 0 0 167.4301,494.48 L175.6801,494.48 L165.6801,484.48" fill="#E5E5E5" style="stroke:#191919;stroke-width:1.5;"/><text fill="#191919" font-family="sans-serif" font-size="13" lengthAdjust="spacing" textLength="47.8931" x="43.68" y="501.5469">&#20855;&#20307;&#31867;A</text><text fill="#191919" font-family="sans-serif" font-size="13" lengthAdjust="spacing" textLength="104.0001" x="43.68" y="516.6797">&#23454;&#29616;&#25152;&#26377;&#25277;&#35937;&#26041;&#27861;</text><text fill="#191919" font-family="sans-serif" font-size="13" lengthAdjust="spacing" textLength="117.0001" x="43.68" y="531.8125">&#21487;&#36873;&#25321;&#37325;&#20889;&#38057;&#23376;&#26041;&#27861;</text></g><g class="entity" data-entity="GMN12" data-source-line="57" data-uid="ent0013" id="entity_GMN12"><path d="M278.18,487.98 L278.18,536.3784 A3.5,3.5 0 0 0 281.68,539.8784 L399.6801,539.8784 A3.5,3.5 0 0 0 403.1801,536.3784 L403.1801,494.48 L393.1801,484.48 L344.68,484.48 L340.68,416.56 L336.68,484.48 L281.68,484.48 A3.5,3.5 0 0 0 278.18,487.98" fill="#E5E5E5" style="stroke:#191919;stroke-width:1.5;"/><path d="M393.1801,484.48 L393.1801,492.73 A1.75,1.75 0 0 0 394.9301,494.48 L403.1801,494.48 L393.1801,484.48" fill="#E5E5E5" style="stroke:#191919;stroke-width:1.5;"/><text fill="#191919" font-family="sans-serif" font-size="13" lengthAdjust="spacing" textLength="47.9185" x="284.18" y="501.5469">&#20855;&#20307;&#31867;B</text><text fill="#191919" font-family="sans-serif" font-size="13" lengthAdjust="spacing" textLength="104.0001" x="284.18" y="516.6797">&#23454;&#29616;&#25152;&#26377;&#25277;&#35937;&#26041;&#27861;</text><text fill="#191919" font-family="sans-serif" font-size="13" lengthAdjust="spacing" textLength="104.0001" x="284.18" y="531.8125">&#20351;&#29992;&#40664;&#35748;&#38057;&#23376;&#26041;&#27861;</text></g><!--reverse link AbstractClass to ConcreteClassA--><g class="link" data-entity-1="AbstractClass" data-entity-2="ConcreteClassA" data-source-line="23" data-uid="lnk5" id="link_AbstractClass_ConcreteClassA"><path codeLine="23" d="M180.1385,226.0836 C161.3785,264.1236 146.85,293.58 130.26,327.21" fill="none" id="AbstractClass-backto-ConcreteClassA" style="stroke:#191919;stroke-width:1;"/><polygon fill="none" points="188.1,209.94,174.7574,223.4298,185.5197,228.7374,188.1,209.94" style="stroke:#191919;stroke-width:1;"/></g><!--reverse link AbstractClass to ConcreteClassB--><g class="link" data-entity-1="AbstractClass" data-entity-2="ConcreteClassB" data-source-line="24" data-uid="lnk6" id="link_AbstractClass_ConcreteClassB"><path codeLine="24" d="M267.2203,226.0841 C287.5203,267.2541 304.24,301.15 321.07,335.28" fill="none" id="AbstractClass-backto-ConcreteClassB" style="stroke:#191919;stroke-width:1;"/><polygon fill="none" points="259.26,209.94,261.8389,228.7376,272.6017,223.4307,259.26,209.94" style="stroke:#191919;stroke-width:1;"/></g><!--SRC=[fPBDJi904CVl-nJhJMCuw95u0Su-H2rLZC0Qkl6Y9ZM8MWL154Jm8nXZK2DAD7urwCjqjzstS2cjq0OAYJtjPAR_t_ndPWB7f8G44q9A1a1Oa75A434Kuu8imv0THgne7K3-JKCi9LRZ0fRc9Hn3qSaf68HhQ3bgPqMK55EIavtnJyzwqp64LWRfhZkTRV8YvpqGuLFPHzi4e6inOlTZMGpzUVH5-EWETp6O6FutaUkwrpIt4GXuR8si20EGH5Y2gUMb68PeqRtvOD2zSa0RTKFTe-LF-b82f5dLFrMZUSe3Tj-Wbs_0V4uR9mswtpPRzMuLAMP9vbrl7zi_ISaex117S3t715mQ99iXXGTI- -8TC4Kpluy0UImOBKt_oB5pnRpTOhividCsBgotDS2ATrpAuUIVcABQMZHVqBzhxFg2t9J9_fMPRjEzClTBIwzcFQj_V8rBy-mRz4_Bza5-CgokaUQbSVZikCrNIBPiLBTjmnxO0i8O9Jeqpm5q1ySr-TFIewf2prKtrF993-wwLbqp68yJxd72mpbw-uTV1zCgPlDc8EGN]--></g></svg>